<svg width="129" height="40" viewBox="0 0 129 40" fill="none" xmlns="http://www.w3.org/2000/svg">
<mask id="path-1-inside-1_340_5258" fill="white">
<path d="M11.4854 27.5478L9.2511 24.8114L7.16695 27.3638L4.66359 24.2977L2.17375 27.3471L0.204727 22.05C-0.47316 20.2265 0.61525 18.155 2.25117 18.155H10.2434C10.0676 15.8589 11.5012 13.8526 13.3827 13.7614L17.5663 13.5587C16.7901 9.7572 16.722 0.00353438 36.4704 0.000743484C60.6445 -0.00277098 22.2623 -0.258616 19.6142 13.1988C20.1932 10.9705 24.3263 3.23062 53.8066 2.44018C88.2866 1.51577 27.6738 6.76834 25.4265 12.4617C25.4265 12.4617 44.368 3.69473 60.2917 10.5617C60.2917 10.5617 34.223 11.09 30.2422 13.9952C30.2422 13.9952 45.1385 10.2317 56.5034 15.0516C56.5034 15.0516 35.6357 14.3913 31.9116 17.7588C31.9116 17.7588 39.7681 14.2593 49.3235 19.6737C49.3235 19.6737 48.1583 19.5799 46.4697 19.5136C47.7186 20.346 48.7926 21.4521 49.5551 22.767C50.1909 23.8346 50.6278 25.0377 50.8436 26.2737L52.1245 26.2728L55.9769 26.2699L56.5344 26.2695L56.5381 25.1987L56.5514 21.2371L56.5548 20.2467L56.5565 19.7515L56.5633 19.3733L56.5933 18.7796C56.7086 17.1929 57.2175 15.6195 58.029 14.2636C59.6237 11.5329 62.5499 9.67636 65.6542 9.4226L66.2302 9.39127L66.5147 9.38323L66.6351 9.38364L67.1167 9.38538L68.0798 9.38881L70.006 9.39572L73.8584 9.40938L75.7846 9.42168L76.8576 9.43458C77.6205 9.45743 78.3912 9.55534 79.1384 9.76414C82.155 10.555 84.6713 12.8664 85.8055 15.8188C86.085 16.5565 86.2981 17.3268 86.3993 18.1091C86.4618 18.5006 86.485 18.8909 86.4979 19.2826L86.5059 19.5762L86.5054 19.7122L86.5035 19.9598L86.4885 21.9406L86.4587 25.9022L86.4537 26.5544L87.8875 26.5658L91.7399 26.5965L92.6084 26.6036L92.6263 25.087L92.6731 21.1255L92.6848 20.135L92.6906 19.6399L92.7098 19.1289C92.7206 18.9405 92.7307 18.7525 92.7504 18.5647C92.9154 17.0562 93.4357 15.5792 94.2419 14.3144C95.8365 11.7806 98.6591 10.0882 101.6 9.95382L102.146 9.93457L102.398 9.93707L102.88 9.94306L103.843 9.95505L105.769 9.97911L109.621 10.0273L111.602 10.0538C113.036 10.0773 114.491 10.4565 115.769 11.1486C118.331 12.5214 120.187 15.1719 120.599 18.1236C120.722 18.8066 120.708 19.7732 120.704 19.9235L120.693 20.9139L120.665 22.8947L120.601 26.8563L120.593 27.3313L123.651 27.3835L127.503 27.4492L127.758 27.4536L127.82 23.5857L127.884 19.6241C127.885 18.3183 128.21 16.8906 128.815 15.6799C129.416 14.4508 130.3 13.3888 131.369 12.5827C132.435 11.7735 133.695 11.2173 135.006 11.0016C135.333 10.9485 135.662 10.903 135.99 10.8945L136.476 10.8793L136.717 10.8835L137.68 10.8999L141.532 10.9721L145.385 11.056L145.866 11.0664C146.154 11.0779 146.499 11.0934 146.811 11.1322C147.451 11.2208 148.087 11.368 148.69 11.6075C149.902 12.0729 151 12.8247 151.862 13.7956C152.725 14.7621 153.381 15.934 153.727 17.2041C153.896 17.8384 154.009 18.4915 154.029 19.1411L154.041 19.6133L154.036 19.8609L154.026 20.3561L153.944 24.3176L153.868 28.0847C153.837 28.1693 153.861 28.2645 153.937 28.3621C153.977 28.4003 154.016 28.4311 154.072 28.4556C154.087 28.4634 154.105 28.4569 154.121 28.4715L154.598 28.4823L155.561 28.5031L159.414 28.5871L162.539 28.6575C162.707 28.6475 162.914 28.5356 163.02 28.3512C163.051 28.3081 163.066 28.2596 163.088 28.2098C163.085 28.1816 163.109 28.1588 163.107 28.1283C163.106 28.0838 163.123 28.1302 163.123 27.9047L163.164 25.924L163.245 21.9624L163.286 19.9816L163.291 19.7341L163.303 19.4003C163.319 19.107 163.333 18.8149 163.385 18.5237C163.465 17.9404 163.631 17.3692 163.844 16.8233C164.702 14.6375 166.615 12.9528 168.823 12.465C169.37 12.3309 169.931 12.2844 170.481 12.2886L170.674 12.2906L170.794 12.2989L171.035 12.3192L171.517 12.3662C172.159 12.431 172.801 12.483 173.443 12.5725C174.727 12.7269 176.011 12.9232 177.295 13.1687C179.863 13.6683 182.432 14.2883 185 15.3614C182.432 16.4345 179.863 17.0545 177.295 17.554C176.011 17.7994 174.727 17.9957 173.443 18.1501C172.801 18.2397 172.159 18.2917 171.517 18.3566L171.035 18.4035L170.794 18.4239L170.674 18.4321C170.634 18.4349 170.643 18.441 170.626 18.4447C170.536 18.4732 170.453 18.4965 170.382 18.5469C170.092 18.7036 169.888 18.9817 169.809 19.2542C169.794 19.324 169.773 19.3905 169.778 19.4636C169.768 19.4974 169.781 19.5365 169.778 19.5728C169.776 19.6102 169.779 19.7341 169.779 19.7341L169.784 19.9816L169.825 21.9624L169.906 25.924L169.947 27.9047C169.954 28.0097 169.946 28.3856 169.931 28.6708C169.92 28.9709 169.867 29.2715 169.824 29.5705C169.712 30.1657 169.542 30.7533 169.299 31.3078C168.35 33.5426 166.334 35.2447 163.982 35.7739C163.689 35.8316 163.393 35.8867 163.097 35.9172L162.653 35.9475L162.303 35.9611L161.34 35.982L159.414 36.024L155.561 36.1078L154.598 36.1288L154.112 36.1391C153.809 36.1311 153.504 36.1273 153.2 36.0917C151.982 35.9576 150.785 35.5208 149.752 34.8348C147.686 33.4718 146.28 31.0399 146.156 28.4733L146.136 28.0317L146.131 27.7841L146.121 27.2889L146.101 26.2984L146.06 24.3176L145.978 20.3561L145.968 19.8609L145.963 19.6133C145.866 19.6563 145.385 19.6667 145.385 19.6667L141.532 19.7507L137.68 19.8228L136.82 19.8375L136.881 23.5857L136.945 27.5473L136.953 28.0425C136.95 28.3301 136.938 28.7209 136.907 29.0544C136.83 29.7488 136.692 30.4427 136.46 31.1051C136.006 32.4334 135.256 33.6506 134.268 34.6173C133.284 35.5868 132.077 36.3342 130.756 36.7479C130.096 36.9489 129.413 37.0882 128.731 37.1255L128.225 37.1494L127.985 37.1536L127.503 37.1617L123.651 37.2276L119.798 37.2933L119.603 37.2915L119.343 37.283L118.822 37.2531C118.475 37.2079 118.126 37.1649 117.784 37.0857C117.099 36.9277 116.423 36.7037 115.792 36.3832C114.521 35.7611 113.405 34.8315 112.55 33.684C111.694 32.5415 111.082 31.1795 110.827 29.7444C110.767 29.3861 110.707 29.0254 110.692 28.6652L110.666 28.1237L110.66 27.8467L110.644 26.8563L110.58 22.8947L110.549 20.6845L109.621 20.6954L105.769 20.7436L103.417 20.7777L103.422 21.1255L103.468 25.087L103.492 27.0678L103.503 28.0583C103.5 28.7891 103.43 29.5779 103.258 30.3233C102.598 33.3561 100.491 35.9472 97.7186 37.1776C97.025 37.479 96.2985 37.7129 95.5561 37.842C95.1845 37.9084 94.8116 37.9598 94.4388 37.9751L93.9069 37.9971L93.6661 37.9991L91.7399 38.0145L87.8875 38.0452L85.9613 38.0606L84.9982 38.0683L84.8391 38.0676L84.557 38.0588L83.993 38.0267C83.6173 37.9871 83.2398 37.9297 82.8681 37.8532C79.866 37.2123 77.2664 35.0664 76.0128 32.1978C75.6942 31.4849 75.4627 30.7287 75.3146 29.9589C75.2531 29.5735 75.1814 29.1836 75.1646 28.7964L75.1366 28.2134L75.1312 27.883L75.1162 25.9022L75.0862 21.9406L75.0815 21.3055L73.8584 21.3133L70.006 21.3271L68.2347 21.3325L68.2477 25.1987L68.2544 27.1795L68.2561 27.6748L68.2569 27.9223L68.2511 28.3111C68.23 29.1032 68.1343 29.9047 67.9286 30.6813C67.1544 33.8183 64.8744 36.4398 61.9595 37.6166C61.2318 37.9085 60.4711 38.1291 59.6989 38.2335C59.3127 38.2991 58.9276 38.3197 58.5408 38.3351L58.1438 38.3427L57.9031 38.3426L55.9769 38.3412L52.1245 38.3383L50.1982 38.3368L49.1783 38.3337C48.4078 38.3183 47.6296 38.2291 46.8719 38.0292C45.1356 37.5968 43.567 36.6553 42.3081 35.3882C42.3033 37.8496 41.5568 40 41.5568 40C36.7683 38.0964 35.4847 34.6607 35.1964 32.3454C34.4354 36.3267 30.2205 38.8622 30.2205 38.8622C29.683 37.3313 29.4282 35.9292 29.3591 34.6621H6.09647C3.8658 34.6621 2.05737 32.4473 2.05737 29.7152V29.6335L4.66872 26.4353L7.23523 29.5787L9.53877 26.7575L11.5453 29.215C12.55 30.4454 14.2677 29.574 14.2677 27.834V24.1401L11.4854 27.5478ZM136.481 19.8525C136.536 19.8547 136.565 19.847 136.594 19.8413L136.476 19.8434C136.467 19.8483 136.481 19.8525 136.481 19.8525ZM127.748 28.0425L127.751 27.8915C127.747 27.9369 127.732 27.978 127.741 28.0193C127.739 28.0242 127.737 28.0845 127.748 28.0425ZM119.798 27.3176L119.917 27.3197C119.871 27.3161 119.843 27.302 119.812 27.3131C119.743 27.3165 119.798 27.3176 119.798 27.3176ZM103.404 19.6603C103.405 19.6134 103.403 19.5753 103.404 19.6399L103.404 19.6603ZM93.9069 26.6139C93.9367 26.612 93.8697 26.6101 93.8559 26.6131L93.9069 26.6139ZM75.0696 19.7376L75.068 19.6007C75.063 19.6768 75.0666 19.7078 75.0696 19.7376ZM56.5285 28.0462L56.5287 27.9757C56.5281 27.9931 56.5244 28.0112 56.5248 28.0285C56.5248 28.0285 56.5284 28.095 56.5285 28.0462ZM51.0062 27.8902L51.0104 28.0389C51.0116 28.1021 51.0126 28.042 51.0134 28.0496C51.0131 27.9588 51.0092 27.9159 51.0054 27.8737L51.0062 27.8902ZM20.8035 28.1252C23.7468 28.1252 26.1328 25.6716 26.1328 22.6449C26.1328 19.6183 23.7468 17.1646 20.8035 17.1646C17.8603 17.1646 15.4742 19.6181 15.4742 22.6449C15.4742 25.6717 17.8603 28.1252 20.8035 28.1252Z"/>
</mask>
<path d="M11.4854 27.5478L9.2511 24.8114L7.16695 27.3638L4.66359 24.2977L2.17375 27.3471L0.204727 22.05C-0.47316 20.2265 0.61525 18.155 2.25117 18.155H10.2434C10.0676 15.8589 11.5012 13.8526 13.3827 13.7614L17.5663 13.5587C16.7901 9.7572 16.722 0.00353438 36.4704 0.000743484C60.6445 -0.00277098 22.2623 -0.258616 19.6142 13.1988C20.1932 10.9705 24.3263 3.23062 53.8066 2.44018C88.2866 1.51577 27.6738 6.76834 25.4265 12.4617C25.4265 12.4617 44.368 3.69473 60.2917 10.5617C60.2917 10.5617 34.223 11.09 30.2422 13.9952C30.2422 13.9952 45.1385 10.2317 56.5034 15.0516C56.5034 15.0516 35.6357 14.3913 31.9116 17.7588C31.9116 17.7588 39.7681 14.2593 49.3235 19.6737C49.3235 19.6737 48.1583 19.5799 46.4697 19.5136C47.7186 20.346 48.7926 21.4521 49.5551 22.767C50.1909 23.8346 50.6278 25.0377 50.8436 26.2737L52.1245 26.2728L55.9769 26.2699L56.5344 26.2695L56.5381 25.1987L56.5514 21.2371L56.5548 20.2467L56.5565 19.7515L56.5633 19.3733L56.5933 18.7796C56.7086 17.1929 57.2175 15.6195 58.029 14.2636C59.6237 11.5329 62.5499 9.67636 65.6542 9.4226L66.2302 9.39127L66.5147 9.38323L66.6351 9.38364L67.1167 9.38538L68.0798 9.38881L70.006 9.39572L73.8584 9.40938L75.7846 9.42168L76.8576 9.43458C77.6205 9.45743 78.3912 9.55534 79.1384 9.76414C82.155 10.555 84.6713 12.8664 85.8055 15.8188C86.085 16.5565 86.2981 17.3268 86.3993 18.1091C86.4618 18.5006 86.485 18.8909 86.4979 19.2826L86.5059 19.5762L86.5054 19.7122L86.5035 19.9598L86.4885 21.9406L86.4587 25.9022L86.4537 26.5544L87.8875 26.5658L91.7399 26.5965L92.6084 26.6036L92.6263 25.087L92.6731 21.1255L92.6848 20.135L92.6906 19.6399L92.7098 19.1289C92.7206 18.9405 92.7307 18.7525 92.7504 18.5647C92.9154 17.0562 93.4357 15.5792 94.2419 14.3144C95.8365 11.7806 98.6591 10.0882 101.6 9.95382L102.146 9.93457L102.398 9.93707L102.88 9.94306L103.843 9.95505L105.769 9.97911L109.621 10.0273L111.602 10.0538C113.036 10.0773 114.491 10.4565 115.769 11.1486C118.331 12.5214 120.187 15.1719 120.599 18.1236C120.722 18.8066 120.708 19.7732 120.704 19.9235L120.693 20.9139L120.665 22.8947L120.601 26.8563L120.593 27.3313L123.651 27.3835L127.503 27.4492L127.758 27.4536L127.82 23.5857L127.884 19.6241C127.885 18.3183 128.21 16.8906 128.815 15.6799C129.416 14.4508 130.3 13.3888 131.369 12.5827C132.435 11.7735 133.695 11.2173 135.006 11.0016C135.333 10.9485 135.662 10.903 135.99 10.8945L136.476 10.8793L136.717 10.8835L137.68 10.8999L141.532 10.9721L145.385 11.056L145.866 11.0664C146.154 11.0779 146.499 11.0934 146.811 11.1322C147.451 11.2208 148.087 11.368 148.69 11.6075C149.902 12.0729 151 12.8247 151.862 13.7956C152.725 14.7621 153.381 15.934 153.727 17.2041C153.896 17.8384 154.009 18.4915 154.029 19.1411L154.041 19.6133L154.036 19.8609L154.026 20.3561L153.944 24.3176L153.868 28.0847C153.837 28.1693 153.861 28.2645 153.937 28.3621C153.977 28.4003 154.016 28.4311 154.072 28.4556C154.087 28.4634 154.105 28.4569 154.121 28.4715L154.598 28.4823L155.561 28.5031L159.414 28.5871L162.539 28.6575C162.707 28.6475 162.914 28.5356 163.02 28.3512C163.051 28.3081 163.066 28.2596 163.088 28.2098C163.085 28.1816 163.109 28.1588 163.107 28.1283C163.106 28.0838 163.123 28.1302 163.123 27.9047L163.164 25.924L163.245 21.9624L163.286 19.9816L163.291 19.7341L163.303 19.4003C163.319 19.107 163.333 18.8149 163.385 18.5237C163.465 17.9404 163.631 17.3692 163.844 16.8233C164.702 14.6375 166.615 12.9528 168.823 12.465C169.37 12.3309 169.931 12.2844 170.481 12.2886L170.674 12.2906L170.794 12.2989L171.035 12.3192L171.517 12.3662C172.159 12.431 172.801 12.483 173.443 12.5725C174.727 12.7269 176.011 12.9232 177.295 13.1687C179.863 13.6683 182.432 14.2883 185 15.3614C182.432 16.4345 179.863 17.0545 177.295 17.554C176.011 17.7994 174.727 17.9957 173.443 18.1501C172.801 18.2397 172.159 18.2917 171.517 18.3566L171.035 18.4035L170.794 18.4239L170.674 18.4321C170.634 18.4349 170.643 18.441 170.626 18.4447C170.536 18.4732 170.453 18.4965 170.382 18.5469C170.092 18.7036 169.888 18.9817 169.809 19.2542C169.794 19.324 169.773 19.3905 169.778 19.4636C169.768 19.4974 169.781 19.5365 169.778 19.5728C169.776 19.6102 169.779 19.7341 169.779 19.7341L169.784 19.9816L169.825 21.9624L169.906 25.924L169.947 27.9047C169.954 28.0097 169.946 28.3856 169.931 28.6708C169.92 28.9709 169.867 29.2715 169.824 29.5705C169.712 30.1657 169.542 30.7533 169.299 31.3078C168.35 33.5426 166.334 35.2447 163.982 35.7739C163.689 35.8316 163.393 35.8867 163.097 35.9172L162.653 35.9475L162.303 35.9611L161.34 35.982L159.414 36.024L155.561 36.1078L154.598 36.1288L154.112 36.1391C153.809 36.1311 153.504 36.1273 153.2 36.0917C151.982 35.9576 150.785 35.5208 149.752 34.8348C147.686 33.4718 146.28 31.0399 146.156 28.4733L146.136 28.0317L146.131 27.7841L146.121 27.2889L146.101 26.2984L146.06 24.3176L145.978 20.3561L145.968 19.8609L145.963 19.6133C145.866 19.6563 145.385 19.6667 145.385 19.6667L141.532 19.7507L137.68 19.8228L136.82 19.8375L136.881 23.5857L136.945 27.5473L136.953 28.0425C136.95 28.3301 136.938 28.7209 136.907 29.0544C136.83 29.7488 136.692 30.4427 136.46 31.1051C136.006 32.4334 135.256 33.6506 134.268 34.6173C133.284 35.5868 132.077 36.3342 130.756 36.7479C130.096 36.9489 129.413 37.0882 128.731 37.1255L128.225 37.1494L127.985 37.1536L127.503 37.1617L123.651 37.2276L119.798 37.2933L119.603 37.2915L119.343 37.283L118.822 37.2531C118.475 37.2079 118.126 37.1649 117.784 37.0857C117.099 36.9277 116.423 36.7037 115.792 36.3832C114.521 35.7611 113.405 34.8315 112.55 33.684C111.694 32.5415 111.082 31.1795 110.827 29.7444C110.767 29.3861 110.707 29.0254 110.692 28.6652L110.666 28.1237L110.66 27.8467L110.644 26.8563L110.58 22.8947L110.549 20.6845L109.621 20.6954L105.769 20.7436L103.417 20.7777L103.422 21.1255L103.468 25.087L103.492 27.0678L103.503 28.0583C103.5 28.7891 103.43 29.5779 103.258 30.3233C102.598 33.3561 100.491 35.9472 97.7186 37.1776C97.025 37.479 96.2985 37.7129 95.5561 37.842C95.1845 37.9084 94.8116 37.9598 94.4388 37.9751L93.9069 37.9971L93.6661 37.9991L91.7399 38.0145L87.8875 38.0452L85.9613 38.0606L84.9982 38.0683L84.8391 38.0676L84.557 38.0588L83.993 38.0267C83.6173 37.9871 83.2398 37.9297 82.8681 37.8532C79.866 37.2123 77.2664 35.0664 76.0128 32.1978C75.6942 31.4849 75.4627 30.7287 75.3146 29.9589C75.2531 29.5735 75.1814 29.1836 75.1646 28.7964L75.1366 28.2134L75.1312 27.883L75.1162 25.9022L75.0862 21.9406L75.0815 21.3055L73.8584 21.3133L70.006 21.3271L68.2347 21.3325L68.2477 25.1987L68.2544 27.1795L68.2561 27.6748L68.2569 27.9223L68.2511 28.3111C68.23 29.1032 68.1343 29.9047 67.9286 30.6813C67.1544 33.8183 64.8744 36.4398 61.9595 37.6166C61.2318 37.9085 60.4711 38.1291 59.6989 38.2335C59.3127 38.2991 58.9276 38.3197 58.5408 38.3351L58.1438 38.3427L57.9031 38.3426L55.9769 38.3412L52.1245 38.3383L50.1982 38.3368L49.1783 38.3337C48.4078 38.3183 47.6296 38.2291 46.8719 38.0292C45.1356 37.5968 43.567 36.6553 42.3081 35.3882C42.3033 37.8496 41.5568 40 41.5568 40C36.7683 38.0964 35.4847 34.6607 35.1964 32.3454C34.4354 36.3267 30.2205 38.8622 30.2205 38.8622C29.683 37.3313 29.4282 35.9292 29.3591 34.6621H6.09647C3.8658 34.6621 2.05737 32.4473 2.05737 29.7152V29.6335L4.66872 26.4353L7.23523 29.5787L9.53877 26.7575L11.5453 29.215C12.55 30.4454 14.2677 29.574 14.2677 27.834V24.1401L11.4854 27.5478ZM136.481 19.8525C136.536 19.8547 136.565 19.847 136.594 19.8413L136.476 19.8434C136.467 19.8483 136.481 19.8525 136.481 19.8525ZM127.748 28.0425L127.751 27.8915C127.747 27.9369 127.732 27.978 127.741 28.0193C127.739 28.0242 127.737 28.0845 127.748 28.0425ZM119.798 27.3176L119.917 27.3197C119.871 27.3161 119.843 27.302 119.812 27.3131C119.743 27.3165 119.798 27.3176 119.798 27.3176ZM103.404 19.6603C103.405 19.6134 103.403 19.5753 103.404 19.6399L103.404 19.6603ZM93.9069 26.6139C93.9367 26.612 93.8697 26.6101 93.8559 26.6131L93.9069 26.6139ZM75.0696 19.7376L75.068 19.6007C75.063 19.6768 75.0666 19.7078 75.0696 19.7376ZM56.5285 28.0462L56.5287 27.9757C56.5281 27.9931 56.5244 28.0112 56.5248 28.0285C56.5248 28.0285 56.5284 28.095 56.5285 28.0462ZM51.0062 27.8902L51.0104 28.0389C51.0116 28.1021 51.0126 28.042 51.0134 28.0496C51.0131 27.9588 51.0092 27.9159 51.0054 27.8737L51.0062 27.8902ZM20.8035 28.1252C23.7468 28.1252 26.1328 25.6716 26.1328 22.6449C26.1328 19.6183 23.7468 17.1646 20.8035 17.1646C17.8603 17.1646 15.4742 19.6181 15.4742 22.6449C15.4742 25.6717 17.8603 28.1252 20.8035 28.1252Z" stroke="url(#paint0_radial_340_5258)" stroke-width="2" mask="url(#path-1-inside-1_340_5258)"/>
<path d="M23.6935 22.6452C23.6935 20.9828 22.3866 19.6592 20.8036 19.6592C19.2206 19.6592 17.9137 20.9828 17.9137 22.6452C17.9137 24.3077 19.2206 25.6313 20.8036 25.6313C22.3866 25.6313 23.6935 24.3077 23.6935 22.6452Z" stroke="url(#paint1_radial_340_5258)"/>
<defs>
<radialGradient id="paint0_radial_340_5258" cx="0" cy="0" r="1" gradientUnits="userSpaceOnUse" gradientTransform="translate(49.3035 24.7321) rotate(1.44677) scale(53.0443 352.525)">
<stop stop-color="#FB7819"/>
<stop offset="1" stop-color="#C70C0C"/>
</radialGradient>
<radialGradient id="paint1_radial_340_5258" cx="0" cy="0" r="1" gradientUnits="userSpaceOnUse" gradientTransform="translate(19.2205 23.4701) rotate(6.84976) scale(1.95729 61.0269)">
<stop stop-color="#FB7819"/>
<stop offset="1" stop-color="#C70C0C"/>
</radialGradient>
</defs>
</svg>
