<svg width="129" height="40" viewBox="0 0 129 40" fill="none" xmlns="http://www.w3.org/2000/svg">
<mask id="path-1-inside-1_340_5255" fill="white">
<path d="M117.515 27.5473L119.749 24.8109L121.833 27.3633L124.336 24.2972L126.826 27.3466L128.795 22.0495C129.473 20.226 128.385 18.1545 126.749 18.1545H118.757C118.932 15.8584 117.499 13.8521 115.617 13.7609L111.434 13.5582C112.21 9.75671 112.278 0.0030461 92.5296 0.000255202C68.3555 -0.00325926 106.738 -0.259104 109.386 13.1983C108.807 10.97 104.674 3.23014 75.1934 2.43969C40.7134 1.51528 101.326 6.76786 103.573 12.4612C103.573 12.4612 84.632 3.69425 68.7083 10.5612C68.7083 10.5612 94.777 11.0895 98.7578 13.9947C98.7578 13.9947 83.8615 10.2312 72.4966 15.0512C72.4966 15.0512 93.3643 14.3908 97.0884 17.7583C97.0884 17.7583 89.2319 14.2588 79.6765 19.6732C79.6765 19.6732 80.8417 19.5794 82.5303 19.5131C81.2814 20.3455 80.2074 21.4516 79.4449 22.7665C78.8091 23.8341 78.3722 25.0372 78.1564 26.2732L76.8755 26.2723L73.0231 26.2694L72.4656 26.269L72.4619 25.1982L72.4486 21.2366L72.4452 20.2462L72.4435 19.751L72.4367 19.3728L72.4067 18.7791C72.2914 17.1924 71.7825 15.619 70.971 14.2631C69.3763 11.5324 66.4501 9.67587 63.3458 9.42211L62.7698 9.39079L62.4853 9.38274L62.3649 9.38315L61.8833 9.38489L60.9202 9.38832L58.994 9.39523L55.1416 9.40889L53.2154 9.4212L52.1424 9.4341C51.3795 9.45694 50.6088 9.55485 49.8616 9.76365C46.845 10.5545 44.3287 12.8659 43.1945 15.8183C42.915 16.5561 42.7019 17.3263 42.6007 18.1086C42.5382 18.5001 42.515 18.8904 42.5021 19.2822L42.4941 19.5757L42.4946 19.7117L42.4965 19.9593L42.5115 21.9401L42.5413 25.9017L42.5463 26.5539L41.1125 26.5654L37.2601 26.596L36.3916 26.6031L36.3737 25.0865L36.3269 21.125L36.3152 20.1345L36.3094 19.6394L36.2902 19.1284C36.2794 18.94 36.2693 18.752 36.2496 18.5643C36.0846 17.0557 35.5643 15.5787 34.7581 14.3139C33.1635 11.7801 30.3409 10.0877 27.3996 9.95333L26.8541 9.93408L26.6018 9.93658L26.1202 9.94257L25.1572 9.95456L23.231 9.97863L19.3785 10.0268L17.3976 10.0534C15.9642 10.0768 14.5095 10.456 13.2306 11.1481C10.6686 12.5209 8.81257 15.1714 8.40055 18.1231C8.27792 18.8061 8.29228 19.7727 8.2955 19.923L8.30716 20.9134L8.33491 22.8942L8.39894 26.8558L8.40658 27.3308L5.34945 27.383L1.49701 27.4487L1.2424 27.4532L1.17998 23.5852L1.11596 19.6237C1.11465 18.3178 0.790276 16.8901 0.184757 15.6794C-0.41563 14.4503 -1.30038 13.3883 -2.36948 12.5822C-3.43486 11.773 -4.69455 11.2169 -6.0057 11.0011C-6.33329 10.948 -6.66168 10.9025 -6.98977 10.8941L-7.47587 10.8789L-7.71661 10.883L-8.67976 10.8994L-12.5321 10.9716L-16.3845 11.0555L-16.8661 11.066C-17.1538 11.0774 -17.4991 11.0929 -17.8109 11.1317C-18.4505 11.2203 -19.0866 11.3675 -19.6904 11.607C-20.9025 12.0724 -21.9998 12.8242 -22.8616 13.7951C-23.7254 14.7616 -24.3809 15.9335 -24.7273 17.2037C-24.896 17.8379 -25.0092 18.491 -25.0288 19.1406L-25.041 19.6128L-25.0358 19.8604L-25.0257 20.3556L-24.9442 24.3171L-24.8683 28.0842C-24.8371 28.1688 -24.8607 28.264 -24.9365 28.3617C-24.9773 28.3998 -25.0156 28.4306 -25.0723 28.4551C-25.0866 28.4629 -25.1046 28.4564 -25.1208 28.471L-25.5981 28.4818L-26.5613 28.5027L-30.4136 28.5866L-33.5391 28.657C-33.7072 28.6471 -33.914 28.5351 -34.0197 28.3507C-34.0505 28.3076 -34.0657 28.2591 -34.088 28.2093C-34.0852 28.1811 -34.1092 28.1583 -34.1066 28.1278C-34.1061 28.0833 -34.1227 28.1297 -34.1228 27.9042L-34.1635 25.9235L-34.2451 21.9619L-34.2858 19.9811L-34.291 19.7336L-34.3026 19.3998C-34.3185 19.1065 -34.3329 18.8144 -34.3854 18.5232C-34.4648 17.9399 -34.6307 17.3687 -34.8439 16.8228C-35.7017 14.6371 -37.6155 12.9523 -39.8234 12.4645C-40.37 12.3304 -40.9309 12.2839 -41.4813 12.2881L-41.6739 12.2901L-41.7943 12.2984L-42.035 12.3187L-42.5166 12.3657C-43.1586 12.4305 -43.8007 12.4825 -44.4428 12.572C-45.7269 12.7264 -47.011 12.9227 -48.2951 13.1682C-50.8635 13.6678 -53.4318 14.2878 -56 15.3609C-53.4318 16.434 -50.8635 17.054 -48.2951 17.5536C-47.011 17.7989 -45.7269 17.9952 -44.4428 18.1497C-43.8007 18.2392 -43.1586 18.2912 -42.5166 18.3561L-42.035 18.403L-41.7943 18.4234L-41.6739 18.4316C-41.6344 18.4344 -41.6434 18.4405 -41.6259 18.4442C-41.5363 18.4727 -41.4528 18.496 -41.3823 18.5464C-41.0924 18.7031 -40.8876 18.9813 -40.8092 19.2537C-40.7943 19.3235 -40.7726 19.39 -40.7777 19.4631C-40.7678 19.4969 -40.7808 19.536 -40.7782 19.5723C-40.7763 19.6097 -40.779 19.7336 -40.779 19.7336L-40.784 19.9811L-40.8248 21.9619L-40.9063 25.9235L-40.9471 27.9042C-40.9545 28.0092 -40.9457 28.3851 -40.9309 28.6703C-40.9201 28.9704 -40.8665 29.271 -40.8243 29.57C-40.7119 30.1652 -40.5423 30.7528 -40.2986 31.3073C-39.35 33.5421 -37.334 35.2442 -34.9815 35.7734C-34.6892 35.8312 -34.3931 35.8862 -34.0975 35.9167L-33.6526 35.947L-33.303 35.9607L-32.3398 35.9815L-30.4136 36.0235L-26.5613 36.1073L-25.5981 36.1283L-25.1124 36.1386C-24.8087 36.1306 -24.504 36.1268 -24.2003 36.0912C-22.9821 35.9571 -21.7853 35.5203 -20.7523 34.8343C-18.686 33.4713 -17.2801 31.0394 -17.1564 28.4728L-17.1363 28.0312L-17.1313 27.7836L-17.121 27.2884L-17.1006 26.2979L-17.0599 24.3171L-16.9784 20.3556L-16.9682 19.8604L-16.9631 19.6128C-16.8661 19.6558 -16.3845 19.6662 -16.3845 19.6662L-12.5321 19.7502L-8.67976 19.8223L-7.82034 19.837L-7.88095 23.5852L-7.94488 27.5468L-7.95292 28.042C-7.9495 28.3296 -7.93814 28.7204 -7.90698 29.0539C-7.83009 29.7483 -7.69228 30.4422 -7.45969 31.1046C-7.00645 32.4329 -6.25569 33.6501 -5.2676 34.6168C-4.28434 35.5863 -3.07742 36.3337 -1.75612 36.7474C-1.09603 36.9484 -0.413116 37.0877 0.268993 37.125L0.774693 37.1489L1.01543 37.1531L1.49701 37.1613L5.34945 37.2271L9.20187 37.2929L9.39677 37.291L9.65731 37.2825L10.178 37.2526C10.525 37.2074 10.8737 37.1644 11.2161 37.0852C11.9014 36.9273 12.5772 36.7032 13.2078 36.3827C14.479 35.7606 15.595 34.8311 16.4496 33.6835C17.3061 32.541 17.9178 31.179 18.1732 29.7439C18.2327 29.3856 18.2927 29.0249 18.3082 28.6647L18.3344 28.1232L18.3396 27.8462L18.3556 26.8558L18.4196 22.8942L18.451 20.684L19.3785 20.695L23.231 20.7431L25.5826 20.7772L25.5785 21.125L25.5317 25.0865L25.5083 27.0673L25.4966 28.0578C25.4998 28.7886 25.5703 29.5775 25.7421 30.3228C26.4018 33.3556 28.5093 35.9467 31.2814 37.1771C31.975 37.4785 32.7015 37.7124 33.4439 37.8415C33.8155 37.9079 34.1884 37.9593 34.5612 37.9746L35.0931 37.9967L35.3339 37.9986L37.2601 38.014L41.1125 38.0447L43.0387 38.0601L44.0018 38.0678L44.1609 38.0672L44.443 38.0583L45.007 38.0262C45.3827 37.9867 45.7602 37.9292 46.1319 37.8527C49.134 37.2118 51.7336 35.0659 52.9872 32.1973C53.3058 31.4844 53.5373 30.7282 53.6854 29.9584C53.7469 29.573 53.8186 29.1831 53.8354 28.7959L53.8634 28.2129L53.8688 27.8825L53.8838 25.9017L53.9138 21.9401L53.9185 21.305L55.1416 21.3128L58.994 21.3266L60.7653 21.332L60.7523 25.1982L60.7456 27.179L60.7439 27.6743L60.7431 27.9219L60.7489 28.3106C60.77 29.1027 60.8657 29.9042 61.0714 30.6808C61.8456 33.8178 64.1256 36.4393 67.0405 37.6162C67.7682 37.908 68.5289 38.1286 69.3011 38.233C69.6873 38.2986 70.0724 38.3192 70.4592 38.3346L70.8562 38.3422L71.0969 38.3421L73.0231 38.3407L76.8755 38.3378L78.8018 38.3363L79.8217 38.3332C80.5922 38.3178 81.3704 38.2286 82.1281 38.0287C83.8644 37.5963 85.433 36.6548 86.6919 35.3877C86.6967 37.8491 87.4432 39.9995 87.4432 39.9995C92.2317 38.0959 93.5153 34.6602 93.8036 32.3449C94.5646 36.3262 98.7795 38.8617 98.7795 38.8617C99.317 37.3308 99.5718 35.9287 99.6409 34.6617H122.904C125.134 34.6617 126.943 32.4468 126.943 29.7147V29.633L124.331 26.4348L121.765 29.5782L119.461 26.757L117.455 29.2145C116.45 30.4449 114.732 29.5735 114.732 27.8335V24.1396L117.515 27.5473ZM-7.48099 19.852C-7.53577 19.8542 -7.56483 19.8465 -7.59388 19.8408L-7.47587 19.8429C-7.46672 19.8479 -7.48099 19.852 -7.48099 19.852ZM1.25196 28.042L1.24944 27.891C1.25266 27.9364 1.26804 27.9775 1.25869 28.0188C1.2613 28.0238 1.26251 28.084 1.25196 28.042ZM9.20187 27.3171L9.08347 27.3192C9.1294 27.3156 9.15674 27.3015 9.1877 27.3126C9.25735 27.316 9.20187 27.3171 9.20187 27.3171ZM25.5957 19.6598C25.5947 19.6129 25.5974 19.5748 25.596 19.6394L25.5957 19.6598ZM35.0931 26.6134C35.0633 26.6115 35.1303 26.6096 35.1441 26.6126L35.0931 26.6134ZM53.9304 19.7372L53.932 19.6002C53.937 19.6763 53.9334 19.7073 53.9304 19.7372ZM72.4715 28.0457L72.4713 27.9752C72.4719 27.9926 72.4756 28.0107 72.4752 28.028C72.4752 28.028 72.4716 28.0946 72.4715 28.0457ZM77.9938 27.8897L77.9896 28.0384C77.9884 28.1016 77.9874 28.0415 77.9866 28.0491C77.9869 27.9583 77.9908 27.9154 77.9946 27.8732L77.9938 27.8897ZM108.196 28.1248C105.253 28.1248 102.867 25.6711 102.867 22.6444C102.867 19.6178 105.253 17.1641 108.196 17.1641C111.14 17.1641 113.526 19.6177 113.526 22.6444C113.526 25.6712 111.14 28.1248 108.196 28.1248Z"/>
</mask>
<path d="M117.515 27.5473L119.749 24.8109L121.833 27.3633L124.336 24.2972L126.826 27.3466L128.795 22.0495C129.473 20.226 128.385 18.1545 126.749 18.1545H118.757C118.932 15.8584 117.499 13.8521 115.617 13.7609L111.434 13.5582C112.21 9.75671 112.278 0.0030461 92.5296 0.000255202C68.3555 -0.00325926 106.738 -0.259104 109.386 13.1983C108.807 10.97 104.674 3.23014 75.1934 2.43969C40.7134 1.51528 101.326 6.76786 103.573 12.4612C103.573 12.4612 84.632 3.69425 68.7083 10.5612C68.7083 10.5612 94.777 11.0895 98.7578 13.9947C98.7578 13.9947 83.8615 10.2312 72.4966 15.0512C72.4966 15.0512 93.3643 14.3908 97.0884 17.7583C97.0884 17.7583 89.2319 14.2588 79.6765 19.6732C79.6765 19.6732 80.8417 19.5794 82.5303 19.5131C81.2814 20.3455 80.2074 21.4516 79.4449 22.7665C78.8091 23.8341 78.3722 25.0372 78.1564 26.2732L76.8755 26.2723L73.0231 26.2694L72.4656 26.269L72.4619 25.1982L72.4486 21.2366L72.4452 20.2462L72.4435 19.751L72.4367 19.3728L72.4067 18.7791C72.2914 17.1924 71.7825 15.619 70.971 14.2631C69.3763 11.5324 66.4501 9.67587 63.3458 9.42211L62.7698 9.39079L62.4853 9.38274L62.3649 9.38315L61.8833 9.38489L60.9202 9.38832L58.994 9.39523L55.1416 9.40889L53.2154 9.4212L52.1424 9.4341C51.3795 9.45694 50.6088 9.55485 49.8616 9.76365C46.845 10.5545 44.3287 12.8659 43.1945 15.8183C42.915 16.5561 42.7019 17.3263 42.6007 18.1086C42.5382 18.5001 42.515 18.8904 42.5021 19.2822L42.4941 19.5757L42.4946 19.7117L42.4965 19.9593L42.5115 21.9401L42.5413 25.9017L42.5463 26.5539L41.1125 26.5654L37.2601 26.596L36.3916 26.6031L36.3737 25.0865L36.3269 21.125L36.3152 20.1345L36.3094 19.6394L36.2902 19.1284C36.2794 18.94 36.2693 18.752 36.2496 18.5643C36.0846 17.0557 35.5643 15.5787 34.7581 14.3139C33.1635 11.7801 30.3409 10.0877 27.3996 9.95333L26.8541 9.93408L26.6018 9.93658L26.1202 9.94257L25.1572 9.95456L23.231 9.97863L19.3785 10.0268L17.3976 10.0534C15.9642 10.0768 14.5095 10.456 13.2306 11.1481C10.6686 12.5209 8.81257 15.1714 8.40055 18.1231C8.27792 18.8061 8.29228 19.7727 8.2955 19.923L8.30716 20.9134L8.33491 22.8942L8.39894 26.8558L8.40658 27.3308L5.34945 27.383L1.49701 27.4487L1.2424 27.4532L1.17998 23.5852L1.11596 19.6237C1.11465 18.3178 0.790276 16.8901 0.184757 15.6794C-0.41563 14.4503 -1.30038 13.3883 -2.36948 12.5822C-3.43486 11.773 -4.69455 11.2169 -6.0057 11.0011C-6.33329 10.948 -6.66168 10.9025 -6.98977 10.8941L-7.47587 10.8789L-7.71661 10.883L-8.67976 10.8994L-12.5321 10.9716L-16.3845 11.0555L-16.8661 11.066C-17.1538 11.0774 -17.4991 11.0929 -17.8109 11.1317C-18.4505 11.2203 -19.0866 11.3675 -19.6904 11.607C-20.9025 12.0724 -21.9998 12.8242 -22.8616 13.7951C-23.7254 14.7616 -24.3809 15.9335 -24.7273 17.2037C-24.896 17.8379 -25.0092 18.491 -25.0288 19.1406L-25.041 19.6128L-25.0358 19.8604L-25.0257 20.3556L-24.9442 24.3171L-24.8683 28.0842C-24.8371 28.1688 -24.8607 28.264 -24.9365 28.3617C-24.9773 28.3998 -25.0156 28.4306 -25.0723 28.4551C-25.0866 28.4629 -25.1046 28.4564 -25.1208 28.471L-25.5981 28.4818L-26.5613 28.5027L-30.4136 28.5866L-33.5391 28.657C-33.7072 28.6471 -33.914 28.5351 -34.0197 28.3507C-34.0505 28.3076 -34.0657 28.2591 -34.088 28.2093C-34.0852 28.1811 -34.1092 28.1583 -34.1066 28.1278C-34.1061 28.0833 -34.1227 28.1297 -34.1228 27.9042L-34.1635 25.9235L-34.2451 21.9619L-34.2858 19.9811L-34.291 19.7336L-34.3026 19.3998C-34.3185 19.1065 -34.3329 18.8144 -34.3854 18.5232C-34.4648 17.9399 -34.6307 17.3687 -34.8439 16.8228C-35.7017 14.6371 -37.6155 12.9523 -39.8234 12.4645C-40.37 12.3304 -40.9309 12.2839 -41.4813 12.2881L-41.6739 12.2901L-41.7943 12.2984L-42.035 12.3187L-42.5166 12.3657C-43.1586 12.4305 -43.8007 12.4825 -44.4428 12.572C-45.7269 12.7264 -47.011 12.9227 -48.2951 13.1682C-50.8635 13.6678 -53.4318 14.2878 -56 15.3609C-53.4318 16.434 -50.8635 17.054 -48.2951 17.5536C-47.011 17.7989 -45.7269 17.9952 -44.4428 18.1497C-43.8007 18.2392 -43.1586 18.2912 -42.5166 18.3561L-42.035 18.403L-41.7943 18.4234L-41.6739 18.4316C-41.6344 18.4344 -41.6434 18.4405 -41.6259 18.4442C-41.5363 18.4727 -41.4528 18.496 -41.3823 18.5464C-41.0924 18.7031 -40.8876 18.9813 -40.8092 19.2537C-40.7943 19.3235 -40.7726 19.39 -40.7777 19.4631C-40.7678 19.4969 -40.7808 19.536 -40.7782 19.5723C-40.7763 19.6097 -40.779 19.7336 -40.779 19.7336L-40.784 19.9811L-40.8248 21.9619L-40.9063 25.9235L-40.9471 27.9042C-40.9545 28.0092 -40.9457 28.3851 -40.9309 28.6703C-40.9201 28.9704 -40.8665 29.271 -40.8243 29.57C-40.7119 30.1652 -40.5423 30.7528 -40.2986 31.3073C-39.35 33.5421 -37.334 35.2442 -34.9815 35.7734C-34.6892 35.8312 -34.3931 35.8862 -34.0975 35.9167L-33.6526 35.947L-33.303 35.9607L-32.3398 35.9815L-30.4136 36.0235L-26.5613 36.1073L-25.5981 36.1283L-25.1124 36.1386C-24.8087 36.1306 -24.504 36.1268 -24.2003 36.0912C-22.9821 35.9571 -21.7853 35.5203 -20.7523 34.8343C-18.686 33.4713 -17.2801 31.0394 -17.1564 28.4728L-17.1363 28.0312L-17.1313 27.7836L-17.121 27.2884L-17.1006 26.2979L-17.0599 24.3171L-16.9784 20.3556L-16.9682 19.8604L-16.9631 19.6128C-16.8661 19.6558 -16.3845 19.6662 -16.3845 19.6662L-12.5321 19.7502L-8.67976 19.8223L-7.82034 19.837L-7.88095 23.5852L-7.94488 27.5468L-7.95292 28.042C-7.9495 28.3296 -7.93814 28.7204 -7.90698 29.0539C-7.83009 29.7483 -7.69228 30.4422 -7.45969 31.1046C-7.00645 32.4329 -6.25569 33.6501 -5.2676 34.6168C-4.28434 35.5863 -3.07742 36.3337 -1.75612 36.7474C-1.09603 36.9484 -0.413116 37.0877 0.268993 37.125L0.774693 37.1489L1.01543 37.1531L1.49701 37.1613L5.34945 37.2271L9.20187 37.2929L9.39677 37.291L9.65731 37.2825L10.178 37.2526C10.525 37.2074 10.8737 37.1644 11.2161 37.0852C11.9014 36.9273 12.5772 36.7032 13.2078 36.3827C14.479 35.7606 15.595 34.8311 16.4496 33.6835C17.3061 32.541 17.9178 31.179 18.1732 29.7439C18.2327 29.3856 18.2927 29.0249 18.3082 28.6647L18.3344 28.1232L18.3396 27.8462L18.3556 26.8558L18.4196 22.8942L18.451 20.684L19.3785 20.695L23.231 20.7431L25.5826 20.7772L25.5785 21.125L25.5317 25.0865L25.5083 27.0673L25.4966 28.0578C25.4998 28.7886 25.5703 29.5775 25.7421 30.3228C26.4018 33.3556 28.5093 35.9467 31.2814 37.1771C31.975 37.4785 32.7015 37.7124 33.4439 37.8415C33.8155 37.9079 34.1884 37.9593 34.5612 37.9746L35.0931 37.9967L35.3339 37.9986L37.2601 38.014L41.1125 38.0447L43.0387 38.0601L44.0018 38.0678L44.1609 38.0672L44.443 38.0583L45.007 38.0262C45.3827 37.9867 45.7602 37.9292 46.1319 37.8527C49.134 37.2118 51.7336 35.0659 52.9872 32.1973C53.3058 31.4844 53.5373 30.7282 53.6854 29.9584C53.7469 29.573 53.8186 29.1831 53.8354 28.7959L53.8634 28.2129L53.8688 27.8825L53.8838 25.9017L53.9138 21.9401L53.9185 21.305L55.1416 21.3128L58.994 21.3266L60.7653 21.332L60.7523 25.1982L60.7456 27.179L60.7439 27.6743L60.7431 27.9219L60.7489 28.3106C60.77 29.1027 60.8657 29.9042 61.0714 30.6808C61.8456 33.8178 64.1256 36.4393 67.0405 37.6162C67.7682 37.908 68.5289 38.1286 69.3011 38.233C69.6873 38.2986 70.0724 38.3192 70.4592 38.3346L70.8562 38.3422L71.0969 38.3421L73.0231 38.3407L76.8755 38.3378L78.8018 38.3363L79.8217 38.3332C80.5922 38.3178 81.3704 38.2286 82.1281 38.0287C83.8644 37.5963 85.433 36.6548 86.6919 35.3877C86.6967 37.8491 87.4432 39.9995 87.4432 39.9995C92.2317 38.0959 93.5153 34.6602 93.8036 32.3449C94.5646 36.3262 98.7795 38.8617 98.7795 38.8617C99.317 37.3308 99.5718 35.9287 99.6409 34.6617H122.904C125.134 34.6617 126.943 32.4468 126.943 29.7147V29.633L124.331 26.4348L121.765 29.5782L119.461 26.757L117.455 29.2145C116.45 30.4449 114.732 29.5735 114.732 27.8335V24.1396L117.515 27.5473ZM-7.48099 19.852C-7.53577 19.8542 -7.56483 19.8465 -7.59388 19.8408L-7.47587 19.8429C-7.46672 19.8479 -7.48099 19.852 -7.48099 19.852ZM1.25196 28.042L1.24944 27.891C1.25266 27.9364 1.26804 27.9775 1.25869 28.0188C1.2613 28.0238 1.26251 28.084 1.25196 28.042ZM9.20187 27.3171L9.08347 27.3192C9.1294 27.3156 9.15674 27.3015 9.1877 27.3126C9.25735 27.316 9.20187 27.3171 9.20187 27.3171ZM25.5957 19.6598C25.5947 19.6129 25.5974 19.5748 25.596 19.6394L25.5957 19.6598ZM35.0931 26.6134C35.0633 26.6115 35.1303 26.6096 35.1441 26.6126L35.0931 26.6134ZM53.9304 19.7372L53.932 19.6002C53.937 19.6763 53.9334 19.7073 53.9304 19.7372ZM72.4715 28.0457L72.4713 27.9752C72.4719 27.9926 72.4756 28.0107 72.4752 28.028C72.4752 28.028 72.4716 28.0946 72.4715 28.0457ZM77.9938 27.8897L77.9896 28.0384C77.9884 28.1016 77.9874 28.0415 77.9866 28.0491C77.9869 27.9583 77.9908 27.9154 77.9946 27.8732L77.9938 27.8897ZM108.196 28.1248C105.253 28.1248 102.867 25.6711 102.867 22.6444C102.867 19.6178 105.253 17.1641 108.196 17.1641C111.14 17.1641 113.526 19.6177 113.526 22.6444C113.526 25.6712 111.14 28.1248 108.196 28.1248Z" stroke="url(#paint0_radial_340_5255)" stroke-width="2" mask="url(#path-1-inside-1_340_5255)"/>
<path d="M105.307 22.6447C105.307 20.9823 106.614 19.6587 108.196 19.6587C109.78 19.6587 111.086 20.9823 111.086 22.6447C111.086 24.3072 109.779 25.6308 108.196 25.6308C106.614 25.6308 105.307 24.3072 105.307 22.6447Z" stroke="url(#paint1_radial_340_5255)"/>
<defs>
<radialGradient id="paint0_radial_340_5255" cx="0" cy="0" r="1" gradientUnits="userSpaceOnUse" gradientTransform="translate(79.6965 24.7317) rotate(178.553) scale(53.0443 352.525)">
<stop stop-color="#FB7819"/>
<stop offset="1" stop-color="#C70C0C"/>
</radialGradient>
<radialGradient id="paint1_radial_340_5255" cx="0" cy="0" r="1" gradientUnits="userSpaceOnUse" gradientTransform="translate(109.78 23.4696) rotate(173.15) scale(1.95729 61.0269)">
<stop stop-color="#FB7819"/>
<stop offset="1" stop-color="#C70C0C"/>
</radialGradient>
</defs>
</svg>
