<svg width="25" height="334" viewBox="0 0 25 334" fill="none" xmlns="http://www.w3.org/2000/svg">
<path d="M2.17108 9.84874e-08L4.72082e-06 6.5817e-10L0 111.333H2.17107L2.17108 9.84874e-08Z" fill="url(#paint0_radial_280_2620)"/>
<path d="M13.7431 3.24759H14.6549C16.1747 3.24759 17.4067 2.04732 17.4067 0.571976V2.89576e-07L15.2357 1.91747e-07V0.571976C15.2357 0.81542 14.9697 1.02093 14.6549 1.02093L13.7431 1.02093C13.4283 1.02093 13.1568 0.815419 13.1568 0.528379C13.1514 0.357451 13.1514 0.17681 13.1514 9.78292e-08L10.9803 0C10.9803 0.179562 10.9803 0.360796 10.9858 0.571976C10.9858 2.04732 12.2233 3.24759 13.7431 3.24759Z" fill="url(#paint1_radial_280_2620)"/>
<path d="M10.0413 6.71376L18.3566 6.71376C19.8763 6.71376 21.1138 5.51348 21.1138 4.0369V6.23395e-07L18.9427 5.25566e-07V4.0369C18.9427 4.28056 18.6768 4.4871 18.3566 4.4871H10.0413C9.72111 4.4871 9.45516 4.28056 9.45516 4.0369V9.80505e-08L7.28409 2.21265e-10V4.0369C7.28409 5.51348 8.52159 6.71376 10.0413 6.71376Z" fill="url(#paint2_radial_280_2620)"/>
<path d="M6.15503 10.3494L22.2427 10.3494C23.7625 10.3494 25 9.14912 25 7.67378L25 9.73858e-07L22.8289 8.76028e-07V7.67378C22.8289 7.91722 22.5575 8.12273 22.2427 8.12273L6.15503 8.12273C5.83479 8.12273 5.56885 7.91722 5.56885 7.67378L5.56885 9.8283e-08L3.39777 4.53781e-10L3.39777 7.67378C3.39777 9.14912 4.63527 10.3494 6.15503 10.3494Z" fill="url(#paint3_radial_280_2620)"/>
<path d="M25 107.5C25 106.885 24.5115 106.387 23.9144 106.387C23.312 106.387 22.8289 106.885 22.8289 107.5V111.333H25V107.5Z" fill="url(#paint4_radial_280_2620)"/>
<path d="M14.6549 104.909H10.0413C8.52159 104.909 7.28409 106.11 7.28409 107.586V111.333H9.45516V107.586C9.45516 107.343 9.72111 107.136 10.0413 107.136H14.6549C14.9697 107.136 15.2356 107.343 15.2356 107.586V111.333H17.4067V107.586C17.4067 106.11 16.1746 104.909 14.6549 104.909Z" fill="url(#paint5_radial_280_2620)"/>
<path d="M18.3565 101.274H6.15503C4.63527 101.274 3.39777 102.474 3.39777 103.95L3.39777 111.333H5.56885L5.56885 103.95C5.56885 103.706 5.83479 103.501 6.15502 103.501H18.3565C18.6767 103.501 18.9427 103.706 18.9427 103.95L18.9427 111.333H21.1138V103.95C21.1138 102.474 19.8763 101.274 18.3565 101.274Z" fill="url(#paint6_radial_280_2620)"/>
<path d="M13.8191 110.594C14.4107 110.669 14.9535 110.237 15.0295 109.628C15.1054 109.02 14.6876 108.463 14.0959 108.385C13.6617 108.327 12.1799 108.207 11.4309 109.108C11.2735 109.294 10.975 109.664 10.9804 111.333H13.1515C13.1569 111.056 13.1624 110.789 13.1786 110.592C13.3632 110.57 13.6183 110.568 13.8191 110.594Z" fill="url(#paint7_radial_280_2620)"/>
<path d="M3.39777 14.8831L3.39777 29.9403C3.39777 31.4156 4.63527 32.6159 6.15502 32.6159L22.2427 32.6159C23.7625 32.6159 25 31.4156 25 29.9403V18.434C25 17.8186 24.5115 17.3205 23.9144 17.3205C23.3119 17.3205 22.8289 17.8186 22.8289 18.434L22.8289 29.9403C22.8289 30.1837 22.5575 30.3892 22.2427 30.3892L6.15502 30.3892C5.83479 30.3892 5.56885 30.1837 5.56885 29.9403L5.56885 14.8831C5.56885 14.6394 5.83479 14.4339 6.15503 14.4339H18.3565C18.6767 14.4339 18.9427 14.6394 18.9427 14.8831L18.9427 26.3034C18.9427 26.5468 18.6767 26.7535 18.3565 26.7535H10.0413C9.72104 26.7535 9.4551 26.5468 9.4551 26.3034V18.5198C9.4551 18.2763 9.72104 18.0698 10.0413 18.0698L14.6548 18.0698C14.9696 18.0698 15.2356 18.2763 15.2356 18.5198V22.8385C15.2356 23.0819 14.9696 23.2874 14.6548 23.2874H13.743C13.4282 23.2874 13.1567 23.0819 13.1567 22.7948C13.1405 22.3546 13.1513 21.8489 13.1785 21.5261C13.363 21.5033 13.6181 21.501 13.8189 21.5271C14.4105 21.6022 14.9533 21.1705 15.0293 20.5616C15.1053 19.9517 14.6874 19.3972 14.0958 19.3189C13.6616 19.2602 12.1798 19.1407 11.4307 20.0421C11.2571 20.2473 10.9042 20.6672 10.9857 22.8385C10.9857 24.3138 12.2232 25.5141 13.743 25.5141H14.6548C16.1746 25.5141 17.4067 24.3138 17.4067 22.8385V18.5198C17.4067 17.0434 16.1746 15.8431 14.6548 15.8431L10.0413 15.8431C8.52153 15.8431 7.28403 17.0434 7.28403 18.5198V26.3034C7.28403 27.78 8.52153 28.9803 10.0413 28.9803H18.3565C19.8763 28.9803 21.1138 27.78 21.1138 26.3034V14.8831C21.1138 13.4078 19.8763 12.2073 18.3565 12.2073L6.15503 12.2073C4.63527 12.2073 3.39777 13.4078 3.39777 14.8831Z" fill="url(#paint8_radial_280_2620)"/>
<path d="M3.39777 37.1499L3.39777 52.2071C3.39777 53.6822 4.63527 54.8827 6.15503 54.8827L22.2427 54.8827C23.7625 54.8827 25 53.6822 25 52.2071L25 40.7007C25 40.085 24.5115 39.587 23.9144 39.587C23.3119 39.587 22.8289 40.085 22.8289 40.7007V52.2071C22.8289 52.4504 22.5575 52.656 22.2427 52.656H6.15503C5.83479 52.656 5.56885 52.4504 5.56885 52.2071L5.56885 37.1499C5.56885 36.906 5.83479 36.7005 6.15503 36.7005H18.3565C18.6767 36.7005 18.9427 36.906 18.9427 37.1499V48.57C18.9427 48.8139 18.6767 49.02 18.3565 49.02H10.0413C9.72105 49.02 9.4551 48.8139 9.4551 48.57V40.7865C9.4551 40.5431 9.72105 40.3365 10.0413 40.3365H14.6548C14.9696 40.3365 15.2356 40.5431 15.2356 40.7865V45.105C15.2356 45.3483 14.9696 45.5539 14.6548 45.5539H13.743C13.4282 45.5539 13.1567 45.3483 13.1567 45.0613C13.1405 44.6232 13.1513 44.1144 13.1785 43.7928C13.363 43.7702 13.6181 43.768 13.8189 43.7939C14.4105 43.8689 14.9533 43.4373 15.0293 42.8281C15.1053 42.2292 14.6874 41.6638 14.0958 41.5855C13.6616 41.5267 12.1798 41.4075 11.4307 42.3085C11.2571 42.513 10.9042 42.936 10.9857 45.105C10.9857 46.5807 12.2232 47.7806 13.743 47.7806H14.6548C16.1746 47.7806 17.4067 46.5807 17.4067 45.105V40.7865C17.4067 39.3103 16.1746 38.1098 14.6548 38.1098H10.0413C8.52153 38.1098 7.28403 39.3103 7.28403 40.7865V48.57C7.28403 50.0467 8.52153 51.2467 10.0413 51.2467H18.3565C19.8763 51.2467 21.1138 50.0467 21.1138 48.57V37.1499C21.1138 35.6743 19.8763 34.474 18.3565 34.474H6.15503C4.63527 34.474 3.39777 35.6743 3.39777 37.1499Z" fill="url(#paint9_radial_280_2620)"/>
<path d="M3.39777 59.4164L3.39777 74.4735C3.39777 75.9487 4.63527 77.1492 6.15502 77.1492H22.2427C23.7625 77.1492 25 75.9487 25 74.4735V62.9671C25 62.3515 24.5115 61.8541 23.9144 61.8541C23.3119 61.8541 22.8289 62.3515 22.8289 62.9671L22.8289 74.4735C22.8289 74.7169 22.5575 74.9225 22.2427 74.9225H6.15502C5.83479 74.9225 5.56885 74.7169 5.56885 74.4735L5.56885 59.4164C5.56885 59.1725 5.83479 58.9669 6.15503 58.9669H18.3565C18.6767 58.9669 18.9427 59.1725 18.9427 59.4164L18.9427 70.8365C18.9427 71.0803 18.6767 71.2864 18.3565 71.2864H10.0413C9.72104 71.2864 9.4551 71.0803 9.4551 70.8365V63.0529C9.4551 62.8096 9.72104 62.603 10.0413 62.603H14.6548C14.9696 62.603 15.2356 62.8096 15.2356 63.0529V67.3715C15.2356 67.6148 14.9696 67.8204 14.6548 67.8204H13.743C13.4282 67.8204 13.1567 67.6148 13.1567 67.3283C13.1405 66.8875 13.1513 66.3798 13.1785 66.0593C13.363 66.0366 13.6181 66.0345 13.8189 66.0604C14.4105 66.1354 14.9533 65.7037 15.0293 65.0951C15.1053 64.4935 14.6874 63.9302 14.0958 63.852C13.6616 63.7932 12.1798 63.674 11.4307 64.575C11.2571 64.7795 10.9042 65.2047 10.9857 67.3715C10.9857 68.8471 12.2232 70.0471 13.743 70.0471H14.6548C16.1746 70.0471 17.4067 68.8471 17.4067 67.3715V63.0529C17.4067 61.5767 16.1746 60.3762 14.6548 60.3762H10.0413C8.52153 60.3762 7.28403 61.5767 7.28403 63.0529V70.8365C7.28403 72.3132 8.52153 73.5132 10.0413 73.5132H18.3565C19.8763 73.5132 21.1138 72.3132 21.1138 70.8365V59.4164C21.1138 57.9407 19.8763 56.7408 18.3565 56.7408H6.15503C4.63527 56.7408 3.39777 57.9407 3.39777 59.4164Z" fill="url(#paint10_radial_280_2620)"/>
<path d="M3.39777 81.6826L3.39777 96.7398C3.39777 98.2149 4.63527 99.4154 6.15503 99.4154L22.2427 99.4154C23.7625 99.4154 25 98.2149 25 96.7398V85.2334C25 84.6178 24.5115 84.1203 23.9144 84.1203C23.3119 84.1203 22.8289 84.6178 22.8289 85.2334V96.7398C22.8289 96.9831 22.5575 97.1887 22.2427 97.1887H6.15503C5.83479 97.1887 5.56885 96.9831 5.56885 96.7398L5.56885 81.6826C5.56885 81.4387 5.83479 81.2337 6.15503 81.2337H18.3565C18.6767 81.2337 18.9427 81.4387 18.9427 81.6826V93.1027C18.9427 93.3466 18.6767 93.5527 18.3565 93.5527H10.0413C9.72105 93.5527 9.4551 93.3466 9.4551 93.1027V85.3192C9.4551 85.0758 9.72105 84.8692 10.0413 84.8692H14.6548C14.9696 84.8692 15.2356 85.0758 15.2356 85.3192V89.6377C15.2356 89.8816 14.9696 90.0866 14.6548 90.0866H13.743C13.4282 90.0866 13.1567 89.8816 13.1567 89.5946C13.1405 89.1527 13.1513 88.6471 13.1785 88.3255C13.363 88.3029 13.6181 88.3007 13.8189 88.3266C14.4105 88.4016 14.9533 87.97 15.0293 87.3614C15.1053 86.7576 14.6874 86.1965 14.0958 86.1182C13.6616 86.0594 12.1798 85.9402 11.4307 86.8412C11.2571 87.0468 10.9042 87.4731 10.9857 89.6377C10.9857 91.1134 12.2232 92.3133 13.743 92.3133H14.6548C16.1746 92.3133 17.4067 91.1134 17.4067 89.6377V85.3192C17.4067 83.843 16.1746 82.6425 14.6548 82.6425H10.0413C8.52153 82.6425 7.28403 83.843 7.28403 85.3192V93.1027C7.28403 94.5794 8.52153 95.7794 10.0413 95.7794H18.3565C19.8763 95.7794 21.1138 94.5794 21.1138 93.1027V81.6826C21.1138 80.207 19.8763 79.007 18.3565 79.007H6.15503C4.63527 79.007 3.39777 80.207 3.39777 81.6826Z" fill="url(#paint11_radial_280_2620)"/>
<path d="M2.17107 111.333H0L6.0129e-05 222.666H2.17113L2.17107 111.333Z" fill="url(#paint12_radial_280_2620)"/>
<path d="M13.7431 114.581H14.6549C16.1747 114.581 17.4067 113.381 17.4067 111.905L17.4067 111.333H15.2356L15.2357 111.905C15.2357 112.149 14.9697 112.354 14.6549 112.354H13.7431C13.4283 112.354 13.1568 112.149 13.1568 111.862C13.1514 111.69 13.1515 111.51 13.1515 111.333H10.9804C10.9804 111.512 10.9803 111.694 10.9858 111.905C10.9858 113.381 12.2233 114.581 13.7431 114.581Z" fill="url(#paint13_radial_280_2620)"/>
<path d="M10.0413 118.047H18.3565C19.8763 118.047 21.1138 116.847 21.1138 115.37L21.1138 111.333H18.9427L18.9427 115.37C18.9427 115.614 18.6767 115.821 18.3565 115.821H10.0413C9.72105 115.821 9.4551 115.614 9.4551 115.37L9.45516 111.333H7.28409L7.28403 115.37C7.28403 116.847 8.52153 118.047 10.0413 118.047Z" fill="url(#paint14_radial_280_2620)"/>
<path d="M6.15502 121.683H22.2427C23.7625 121.683 25 120.482 25 119.007L25 111.333H22.8289L22.8289 119.007C22.8289 119.251 22.5575 119.456 22.2427 119.456H6.15502C5.83479 119.456 5.56885 119.251 5.56885 119.007V111.333H3.39777L3.39777 119.007C3.39777 120.482 4.63527 121.683 6.15502 121.683Z" fill="url(#paint15_radial_280_2620)"/>
<path d="M24.9999 218.834C24.9999 218.219 24.5114 217.721 23.9144 217.721C23.3119 217.721 22.8289 218.219 22.8289 218.834V222.666H24.9999V218.834Z" fill="url(#paint16_radial_280_2620)"/>
<path d="M14.6549 216.243H10.0414C8.52162 216.243 7.28412 217.443 7.28412 218.919V222.666H9.45519V218.919C9.45519 218.676 9.72114 218.469 10.0414 218.469H14.6549C14.9697 218.469 15.2357 218.676 15.2357 218.919V222.666H17.4067V218.919C17.4067 217.443 16.1747 216.243 14.6549 216.243Z" fill="url(#paint17_radial_280_2620)"/>
<path d="M18.3565 212.607H6.15503C4.63527 212.607 3.39777 213.808 3.39777 215.283L3.39777 222.666H5.56885L5.56885 215.283C5.56885 215.04 5.83479 214.834 6.15503 214.834H18.3565C18.6767 214.834 18.9427 215.04 18.9427 215.283V222.666H21.1138L21.1138 215.283C21.1138 213.808 19.8763 212.607 18.3565 212.607Z" fill="url(#paint18_radial_280_2620)"/>
<path d="M13.8191 221.927C14.4107 222.002 14.9535 221.57 15.0295 220.961C15.1054 220.353 14.6876 219.797 14.0959 219.719C13.6617 219.66 12.1799 219.54 11.4309 220.442C11.2735 220.627 10.975 220.998 10.9804 222.666H13.1515C13.1569 222.389 13.1624 222.122 13.1786 221.925C13.3632 221.903 13.6183 221.901 13.8191 221.927Z" fill="url(#paint19_radial_280_2620)"/>
<path d="M3.39777 126.217L3.39777 141.274C3.39777 142.749 4.63527 143.949 6.15503 143.949H22.2427C23.7625 143.949 25 142.749 25 141.274V129.767C25 129.152 24.5115 128.654 23.9144 128.654C23.3119 128.654 22.8289 129.152 22.8289 129.767V141.274C22.8289 141.517 22.5575 141.723 22.2427 141.723H6.15503C5.83479 141.723 5.56885 141.517 5.56885 141.274L5.56885 126.217C5.56885 125.973 5.83479 125.768 6.15503 125.768H18.3565C18.6767 125.768 18.9427 125.973 18.9427 126.217V137.637C18.9427 137.881 18.6767 138.087 18.3565 138.087H10.0413C9.72105 138.087 9.4551 137.881 9.4551 137.637V129.853C9.4551 129.61 9.72105 129.403 10.0413 129.403H14.6548C14.9696 129.403 15.2356 129.61 15.2356 129.853V134.172C15.2356 134.416 14.9696 134.621 14.6548 134.621H13.743C13.4282 134.621 13.1567 134.416 13.1567 134.129C13.1405 133.688 13.1513 133.183 13.1785 132.86C13.363 132.837 13.6181 132.835 13.8189 132.861C14.4105 132.936 14.9533 132.504 15.0293 131.895C15.1053 131.285 14.6874 130.73 14.0958 130.652C13.6616 130.594 12.1798 130.474 11.4307 131.375C11.2571 131.581 10.9042 132.001 10.9857 134.172C10.9857 135.647 12.2232 136.847 13.743 136.847H14.6548C16.1746 136.847 17.4067 135.647 17.4067 134.172V129.853C17.4067 128.377 16.1746 127.176 14.6548 127.176H10.0413C8.52153 127.176 7.28403 128.377 7.28403 129.853V137.637C7.28403 139.113 8.52153 140.313 10.0413 140.313H18.3565C19.8763 140.313 21.1138 139.113 21.1138 137.637V126.217C21.1138 124.741 19.8763 123.541 18.3565 123.541H6.15503C4.63527 123.541 3.39777 124.741 3.39777 126.217Z" fill="url(#paint20_radial_280_2620)"/>
<path d="M3.39777 148.483L3.39777 163.54C3.39777 165.015 4.63527 166.216 6.15502 166.216H22.2427C23.7625 166.216 25 165.015 25 163.54V152.034C25 151.419 24.5115 150.921 23.9144 150.921C23.3119 150.921 22.8289 151.419 22.8289 152.034L22.8289 163.54C22.8289 163.783 22.5575 163.989 22.2427 163.989H6.15502C5.83479 163.989 5.56885 163.783 5.56885 163.54L5.56885 148.483C5.56885 148.24 5.83479 148.034 6.15503 148.034H18.3565C18.6767 148.034 18.9427 148.24 18.9427 148.483L18.9427 159.903C18.9427 160.147 18.6767 160.353 18.3565 160.353H10.0413C9.72104 160.353 9.4551 160.147 9.4551 159.903V152.119C9.4551 151.876 9.72104 151.669 10.0413 151.669H14.6548C14.9696 151.669 15.2356 151.876 15.2356 152.119V156.438C15.2356 156.682 14.9696 156.887 14.6548 156.887H13.743C13.4282 156.887 13.1567 156.682 13.1567 156.395C13.1405 155.957 13.1513 155.448 13.1785 155.126C13.363 155.103 13.6181 155.101 13.8189 155.127C14.4105 155.202 14.9533 154.77 15.0293 154.162C15.1053 153.562 14.6874 152.997 14.0958 152.918C13.6616 152.86 12.1798 152.74 11.4307 153.641C11.2571 153.846 10.9042 154.269 10.9857 156.438C10.9857 157.914 12.2232 159.114 13.743 159.114H14.6548C16.1746 159.114 17.4067 157.914 17.4067 156.438V152.119C17.4067 150.643 16.1746 149.443 14.6548 149.443H10.0413C8.52153 149.443 7.28403 150.643 7.28403 152.119V159.903C7.28403 161.38 8.52153 162.58 10.0413 162.58H18.3565C19.8763 162.58 21.1138 161.38 21.1138 159.903V148.483C21.1138 147.007 19.8763 145.807 18.3565 145.807H6.15503C4.63527 145.807 3.39777 147.007 3.39777 148.483Z" fill="url(#paint21_radial_280_2620)"/>
<path d="M3.39777 170.75L3.39777 185.807C3.39777 187.282 4.63527 188.482 6.15503 188.482H22.2427C23.7625 188.482 25 187.282 25 185.807V174.3C25 173.685 24.5115 173.187 23.9144 173.187C23.3119 173.187 22.8289 173.685 22.8289 174.3V185.807C22.8289 186.05 22.5575 186.256 22.2427 186.256H6.15503C5.83479 186.256 5.56885 186.05 5.56885 185.807L5.56885 170.75C5.56885 170.506 5.83479 170.301 6.15503 170.301H18.3565C18.6767 170.301 18.9427 170.506 18.9427 170.75V182.17C18.9427 182.414 18.6767 182.62 18.3565 182.62H10.0413C9.72105 182.62 9.4551 182.414 9.4551 182.17V174.386C9.4551 174.143 9.72105 173.936 10.0413 173.936H14.6548C14.9696 173.936 15.2356 174.143 15.2356 174.386V178.705C15.2356 178.949 14.9696 179.154 14.6548 179.154H13.743C13.4282 179.154 13.1567 178.949 13.1567 178.662C13.1405 178.221 13.1513 177.714 13.1785 177.393C13.363 177.37 13.6181 177.368 13.8189 177.394C14.4105 177.469 14.9533 177.037 15.0293 176.428C15.1053 175.827 14.6874 175.264 14.0958 175.185C13.6616 175.127 12.1798 175.007 11.4307 175.909C11.2571 176.113 10.9042 176.538 10.9857 178.705C10.9857 180.18 12.2232 181.38 13.743 181.38H14.6548C16.1746 181.38 17.4067 180.18 17.4067 178.705V174.386C17.4067 172.91 16.1746 171.709 14.6548 171.709H10.0413C8.52153 171.709 7.28403 172.91 7.28403 174.386L7.28403 182.17C7.28403 183.646 8.52153 184.847 10.0413 184.847H18.3565C19.8763 184.847 21.1138 183.646 21.1138 182.17V170.75C21.1138 169.274 19.8763 168.074 18.3565 168.074H6.15503C4.63527 168.074 3.39777 169.274 3.39777 170.75Z" fill="url(#paint22_radial_280_2620)"/>
<path d="M3.39777 193.016L3.39777 208.073C3.39777 209.549 4.63527 210.749 6.15502 210.749H22.2427C23.7625 210.749 25 209.549 25 208.073V196.567C25 195.952 24.5115 195.454 23.9144 195.454C23.3119 195.454 22.8289 195.952 22.8289 196.567L22.8289 208.073C22.8289 208.317 22.5575 208.522 22.2427 208.522H6.15502C5.83479 208.522 5.56885 208.317 5.56885 208.073L5.56885 193.016C5.56885 192.773 5.83479 192.567 6.15503 192.567H18.3565C18.6767 192.567 18.9427 192.773 18.9427 193.016L18.9427 204.437C18.9427 204.68 18.6767 204.887 18.3565 204.887H10.0413C9.72104 204.887 9.4551 204.68 9.4551 204.437V196.653C9.4551 196.41 9.72105 196.203 10.0413 196.203H14.6548C14.9696 196.203 15.2356 196.41 15.2356 196.653V200.971C15.2356 201.215 14.9696 201.421 14.6548 201.421H13.743C13.4282 201.421 13.1567 201.215 13.1567 200.928C13.1405 200.487 13.1513 199.981 13.1785 199.659C13.363 199.637 13.6181 199.634 13.8189 199.66C14.4105 199.735 14.9533 199.304 15.0293 198.695C15.1053 198.091 14.6874 197.531 14.0958 197.452C13.6616 197.394 12.1798 197.274 11.4307 198.176C11.2571 198.381 10.9042 198.807 10.9857 200.971C10.9857 202.447 12.2232 203.647 13.743 203.647H14.6548C16.1746 203.647 17.4067 202.447 17.4067 200.971V196.653C17.4067 195.177 16.1746 193.976 14.6548 193.976H10.0413C8.52153 193.976 7.28403 195.177 7.28403 196.653L7.28403 204.437C7.28403 205.913 8.52153 207.114 10.0413 207.114H18.3565C19.8763 207.114 21.1138 205.913 21.1138 204.437V193.016C21.1138 191.541 19.8763 190.341 18.3565 190.341H6.15503C4.63527 190.341 3.39777 191.541 3.39777 193.016Z" fill="url(#paint23_radial_280_2620)"/>
<path d="M2.17113 222.666H6.0129e-05L3.06127e-05 334H2.1711L2.17113 222.666Z" fill="url(#paint24_radial_280_2620)"/>
<path d="M13.7431 225.914H14.6549C16.1747 225.914 17.4067 224.714 17.4067 223.238V222.666H15.2357V223.238C15.2357 223.482 14.9697 223.687 14.6549 223.687H13.7431C13.4283 223.687 13.1568 223.482 13.1568 223.195C13.1514 223.024 13.1515 222.843 13.1515 222.666H10.9804C10.9804 222.845 10.9803 223.027 10.9858 223.238C10.9858 224.714 12.2233 225.914 13.7431 225.914Z" fill="url(#paint25_radial_280_2620)"/>
<path d="M10.0414 229.38H18.3566C19.8763 229.38 21.1138 228.18 21.1138 226.703L21.1138 222.666H18.9427L18.9428 226.703C18.9428 226.947 18.6768 227.153 18.3566 227.153H10.0414C9.72114 227.153 9.45519 226.947 9.45519 226.703V222.666H7.28412V226.703C7.28412 228.18 8.52162 229.38 10.0414 229.38Z" fill="url(#paint26_radial_280_2620)"/>
<path d="M6.15503 233.016L22.2427 233.016C23.7625 233.016 25 231.815 25 230.34L24.9999 222.666H22.8289L22.8289 230.34C22.8289 230.583 22.5575 230.789 22.2427 230.789L6.15503 230.789C5.83479 230.789 5.56885 230.583 5.56885 230.34V222.666H3.39777L3.39777 230.34C3.39777 231.815 4.63527 233.016 6.15503 233.016Z" fill="url(#paint27_radial_280_2620)"/>
<path d="M25 330.167C25 329.552 24.5115 329.054 23.9145 329.054C23.312 329.054 22.8289 329.552 22.8289 330.167V334H25V330.167Z" fill="url(#paint28_radial_280_2620)"/>
<path d="M14.6549 327.576H10.0413C8.52159 327.576 7.28409 328.776 7.28409 330.253L7.28409 334H9.45516V330.253C9.45516 330.009 9.72111 329.803 10.0413 329.803H14.6549C14.9697 329.803 15.2356 330.009 15.2356 330.253V334H17.4067V330.253C17.4067 328.776 16.1746 327.576 14.6549 327.576Z" fill="url(#paint29_radial_280_2620)"/>
<path d="M18.3565 323.94H6.15499C4.63524 323.94 3.39774 325.14 3.39774 326.615L3.39774 333.999H5.56881L5.56882 326.615C5.56882 326.372 5.83476 326.166 6.15499 326.166L18.3565 326.166C18.6767 326.166 18.9426 326.372 18.9426 326.615L18.9426 333.999H21.1137V326.615C21.1137 325.14 19.8762 323.94 18.3565 323.94Z" fill="url(#paint30_radial_280_2620)"/>
<path d="M13.8191 333.26C14.4107 333.336 14.9534 332.904 15.0294 332.295C15.1054 331.688 14.6875 331.131 14.0959 331.052C13.6617 330.994 12.1799 330.874 11.4309 331.775C11.2735 331.961 10.975 332.332 10.9804 334H13.1515C13.1569 333.723 13.1623 333.456 13.1786 333.259C13.3631 333.237 13.6182 333.234 13.8191 333.26Z" fill="url(#paint31_radial_280_2620)"/>
<path d="M3.39777 237.549L3.39777 252.607C3.39777 254.082 4.63527 255.282 6.15502 255.282H22.2427C23.7625 255.282 25 254.082 25 252.607V241.1C25 240.485 24.5115 239.987 23.9144 239.987C23.3119 239.987 22.8289 240.485 22.8289 241.1L22.8289 252.607C22.8289 252.85 22.5575 253.055 22.2427 253.055H6.15502C5.83479 253.055 5.56885 252.85 5.56885 252.607L5.56885 237.549C5.56885 237.306 5.83479 237.1 6.15503 237.1H18.3565C18.6767 237.1 18.9427 237.306 18.9427 237.549L18.9427 248.97C18.9427 249.213 18.6767 249.42 18.3565 249.42H10.0413C9.72104 249.42 9.4551 249.213 9.4551 248.97V241.186C9.4551 240.943 9.72105 240.736 10.0413 240.736H14.6548C14.9696 240.736 15.2356 240.943 15.2356 241.186V245.504C15.2356 245.748 14.9696 245.954 14.6548 245.954H13.743C13.4282 245.954 13.1567 245.748 13.1567 245.461C13.1405 245.021 13.1513 244.515 13.1785 244.192C13.363 244.17 13.6181 244.167 13.8189 244.193C14.4105 244.268 14.9533 243.837 15.0293 243.228C15.1053 242.618 14.6874 242.064 14.0958 241.986C13.6616 241.927 12.1798 241.807 11.4307 242.708C11.2571 242.914 10.9042 243.333 10.9857 245.504C10.9857 246.98 12.2232 248.181 13.743 248.181H14.6548C16.1746 248.181 17.4067 246.98 17.4067 245.504V241.186C17.4067 239.71 16.1746 238.509 14.6548 238.509H10.0413C8.52153 238.509 7.28403 239.71 7.28403 241.186L7.28403 248.97C7.28403 250.446 8.52153 251.647 10.0413 251.647H18.3565C19.8763 251.647 21.1138 250.446 21.1138 248.97V237.549C21.1138 236.074 19.8763 234.874 18.3565 234.874H6.15503C4.63527 234.874 3.39777 236.074 3.39777 237.549Z" fill="url(#paint32_radial_280_2620)"/>
<path d="M3.39777 259.816L3.39777 274.873C3.39777 276.349 4.63527 277.549 6.15503 277.549H22.2427C23.7625 277.549 25 276.349 25 274.873V263.367C25 262.752 24.5115 262.254 23.9144 262.254C23.3119 262.254 22.8289 262.752 22.8289 263.367V274.873C22.8289 275.117 22.5575 275.322 22.2427 275.322H6.15503C5.83479 275.322 5.56885 275.117 5.56885 274.873L5.56885 259.816C5.56885 259.573 5.83479 259.367 6.15503 259.367H18.3565C18.6767 259.367 18.9427 259.573 18.9427 259.816V271.237C18.9427 271.48 18.6767 271.687 18.3565 271.687H10.0413C9.72105 271.687 9.4551 271.48 9.4551 271.237V263.453C9.4551 263.209 9.72105 263.003 10.0413 263.003H14.6548C14.9696 263.003 15.2356 263.209 15.2356 263.453V267.772C15.2356 268.015 14.9696 268.221 14.6548 268.221H13.743C13.4282 268.221 13.1567 268.015 13.1567 267.728C13.1405 267.29 13.1513 266.781 13.1785 266.459C13.363 266.436 13.6181 266.434 13.8189 266.46C14.4105 266.535 14.9533 266.103 15.0293 265.495C15.1053 264.896 14.6874 264.33 14.0958 264.252C13.6616 264.193 12.1798 264.074 11.4307 264.975C11.2571 265.18 10.9042 265.602 10.9857 267.772C10.9857 269.247 12.2232 270.447 13.743 270.447H14.6548C16.1746 270.447 17.4067 269.247 17.4067 267.772V263.453C17.4067 261.976 16.1746 260.776 14.6548 260.776H10.0413C8.52153 260.776 7.28403 261.976 7.28403 263.453L7.28403 271.237C7.28403 272.713 8.52153 273.913 10.0413 273.913H18.3565C19.8763 273.913 21.1138 272.713 21.1138 271.237V259.816C21.1138 258.341 19.8763 257.14 18.3565 257.14H6.15503C4.63527 257.14 3.39777 258.341 3.39777 259.816Z" fill="url(#paint33_radial_280_2620)"/>
<path d="M3.39774 282.083L3.39774 297.14C3.39774 298.616 4.63524 299.816 6.15499 299.816H22.2427C23.7624 299.816 24.9999 298.616 24.9999 297.14V285.634C24.9999 285.019 24.5114 284.52 23.9144 284.52C23.3119 284.52 22.8289 285.019 22.8289 285.634L22.8288 297.14C22.8288 297.384 22.5575 297.589 22.2427 297.589H6.15499C5.83476 297.589 5.56881 297.384 5.56881 297.14L5.56882 282.083C5.56882 281.839 5.83476 281.634 6.15499 281.634L18.3565 281.634C18.6767 281.634 18.9427 281.839 18.9427 282.083L18.9426 293.503C18.9426 293.747 18.6767 293.953 18.3565 293.953H10.0412C9.72101 293.953 9.45507 293.747 9.45507 293.503V285.72C9.45507 285.476 9.72102 285.269 10.0412 285.269H14.6548C14.9696 285.269 15.2356 285.476 15.2356 285.72V290.038C15.2356 290.282 14.9696 290.487 14.6548 290.487H13.7429C13.4281 290.487 13.1567 290.282 13.1567 289.995C13.1404 289.554 13.1513 289.047 13.1784 288.726C13.363 288.703 13.6181 288.701 13.8189 288.727C14.4105 288.802 14.9533 288.37 15.0293 287.762C15.1052 287.161 14.6874 286.597 14.0957 286.519C13.6615 286.46 12.1797 286.34 11.4307 287.242C11.257 287.446 10.9042 287.872 10.9856 290.038C10.9856 291.514 12.2232 292.714 13.7429 292.714H14.6548C16.1745 292.714 17.4066 291.514 17.4066 290.038V285.72C17.4066 284.243 16.1745 283.043 14.6548 283.043H10.0412C8.5215 283.043 7.284 284.243 7.284 285.72L7.284 293.503C7.284 294.98 8.5215 296.18 10.0412 296.18H18.3565C19.8762 296.18 21.1137 294.98 21.1137 293.503V282.083C21.1137 280.608 19.8762 279.407 18.3565 279.407H6.155C4.63524 279.407 3.39774 280.608 3.39774 282.083Z" fill="url(#paint34_radial_280_2620)"/>
<path d="M3.39774 304.35L3.39774 319.407C3.39774 320.882 4.63524 322.082 6.155 322.082H22.2427C23.7624 322.082 24.9999 320.882 24.9999 319.407V307.901C24.9999 307.285 24.5114 306.787 23.9144 306.787C23.3119 306.787 22.8289 307.285 22.8289 307.901V319.407C22.8289 319.651 22.5575 319.856 22.2427 319.856H6.155C5.83476 319.856 5.56882 319.651 5.56882 319.407L5.56882 304.35C5.56882 304.106 5.83476 303.901 6.155 303.901L18.3565 303.901C18.6767 303.901 18.9427 304.106 18.9427 304.35V315.77C18.9427 316.014 18.6767 316.22 18.3565 316.22H10.0412C9.72102 316.22 9.45507 316.014 9.45507 315.77V307.987C9.45507 307.743 9.72102 307.536 10.0412 307.536H14.6548C14.9696 307.536 15.2356 307.743 15.2356 307.987V312.305C15.2356 312.549 14.9696 312.754 14.6548 312.754H13.7429C13.4281 312.754 13.1567 312.549 13.1567 312.262C13.1404 311.82 13.1513 311.315 13.1784 310.992C13.363 310.97 13.6181 310.968 13.8189 310.994C14.4105 311.069 14.9533 310.637 15.0293 310.028C15.1052 309.425 14.6874 308.864 14.0957 308.786C13.6615 308.727 12.1797 308.607 11.4307 309.509C11.257 309.714 10.9042 310.141 10.9856 312.305C10.9856 313.78 12.2232 314.981 13.7429 314.981H14.6548C16.1745 314.981 17.4066 313.78 17.4066 312.305V307.987C17.4066 306.51 16.1745 305.31 14.6548 305.31H10.0412C8.5215 305.31 7.284 306.51 7.284 307.987L7.284 315.77C7.284 317.246 8.5215 318.447 10.0412 318.447H18.3565C19.8762 318.447 21.1137 317.246 21.1137 315.77V304.35C21.1137 302.874 19.8762 301.674 18.3565 301.674H6.155C4.63524 301.674 3.39774 302.874 3.39774 304.35Z" fill="url(#paint35_radial_280_2620)"/>
<defs>
<radialGradient id="paint0_radial_280_2620" cx="0" cy="0" r="1" gradientUnits="userSpaceOnUse" gradientTransform="translate(12.5 167) rotate(90) scale(167 12.5)">
<stop stop-color="#0CC7BC"/>
<stop offset="1" stop-color="#0CC7BC" stop-opacity="0"/>
</radialGradient>
<radialGradient id="paint1_radial_280_2620" cx="0" cy="0" r="1" gradientUnits="userSpaceOnUse" gradientTransform="translate(12.5 167) rotate(90) scale(167 12.5)">
<stop stop-color="#0CC7BC"/>
<stop offset="1" stop-color="#0CC7BC" stop-opacity="0"/>
</radialGradient>
<radialGradient id="paint2_radial_280_2620" cx="0" cy="0" r="1" gradientUnits="userSpaceOnUse" gradientTransform="translate(12.5 167) rotate(90) scale(167 12.5)">
<stop stop-color="#0CC7BC"/>
<stop offset="1" stop-color="#0CC7BC" stop-opacity="0"/>
</radialGradient>
<radialGradient id="paint3_radial_280_2620" cx="0" cy="0" r="1" gradientUnits="userSpaceOnUse" gradientTransform="translate(12.5 167) rotate(90) scale(167 12.5)">
<stop stop-color="#0CC7BC"/>
<stop offset="1" stop-color="#0CC7BC" stop-opacity="0"/>
</radialGradient>
<radialGradient id="paint4_radial_280_2620" cx="0" cy="0" r="1" gradientUnits="userSpaceOnUse" gradientTransform="translate(12.5 167) rotate(90) scale(167 12.5)">
<stop stop-color="#0CC7BC"/>
<stop offset="1" stop-color="#0CC7BC" stop-opacity="0"/>
</radialGradient>
<radialGradient id="paint5_radial_280_2620" cx="0" cy="0" r="1" gradientUnits="userSpaceOnUse" gradientTransform="translate(12.5 167) rotate(90) scale(167 12.5)">
<stop stop-color="#0CC7BC"/>
<stop offset="1" stop-color="#0CC7BC" stop-opacity="0"/>
</radialGradient>
<radialGradient id="paint6_radial_280_2620" cx="0" cy="0" r="1" gradientUnits="userSpaceOnUse" gradientTransform="translate(12.5 167) rotate(90) scale(167 12.5)">
<stop stop-color="#0CC7BC"/>
<stop offset="1" stop-color="#0CC7BC" stop-opacity="0"/>
</radialGradient>
<radialGradient id="paint7_radial_280_2620" cx="0" cy="0" r="1" gradientUnits="userSpaceOnUse" gradientTransform="translate(12.5 167) rotate(90) scale(167 12.5)">
<stop stop-color="#0CC7BC"/>
<stop offset="1" stop-color="#0CC7BC" stop-opacity="0"/>
</radialGradient>
<radialGradient id="paint8_radial_280_2620" cx="0" cy="0" r="1" gradientUnits="userSpaceOnUse" gradientTransform="translate(12.5 167) rotate(90) scale(167 12.5)">
<stop stop-color="#0CC7BC"/>
<stop offset="1" stop-color="#0CC7BC" stop-opacity="0"/>
</radialGradient>
<radialGradient id="paint9_radial_280_2620" cx="0" cy="0" r="1" gradientUnits="userSpaceOnUse" gradientTransform="translate(12.5 167) rotate(90) scale(167 12.5)">
<stop stop-color="#0CC7BC"/>
<stop offset="1" stop-color="#0CC7BC" stop-opacity="0"/>
</radialGradient>
<radialGradient id="paint10_radial_280_2620" cx="0" cy="0" r="1" gradientUnits="userSpaceOnUse" gradientTransform="translate(12.5 167) rotate(90) scale(167 12.5)">
<stop stop-color="#0CC7BC"/>
<stop offset="1" stop-color="#0CC7BC" stop-opacity="0"/>
</radialGradient>
<radialGradient id="paint11_radial_280_2620" cx="0" cy="0" r="1" gradientUnits="userSpaceOnUse" gradientTransform="translate(12.5 167) rotate(90) scale(167 12.5)">
<stop stop-color="#0CC7BC"/>
<stop offset="1" stop-color="#0CC7BC" stop-opacity="0"/>
</radialGradient>
<radialGradient id="paint12_radial_280_2620" cx="0" cy="0" r="1" gradientUnits="userSpaceOnUse" gradientTransform="translate(12.5 167) rotate(90) scale(167 12.5)">
<stop stop-color="#0CC7BC"/>
<stop offset="1" stop-color="#0CC7BC" stop-opacity="0"/>
</radialGradient>
<radialGradient id="paint13_radial_280_2620" cx="0" cy="0" r="1" gradientUnits="userSpaceOnUse" gradientTransform="translate(12.5 167) rotate(90) scale(167 12.5)">
<stop stop-color="#0CC7BC"/>
<stop offset="1" stop-color="#0CC7BC" stop-opacity="0"/>
</radialGradient>
<radialGradient id="paint14_radial_280_2620" cx="0" cy="0" r="1" gradientUnits="userSpaceOnUse" gradientTransform="translate(12.5 167) rotate(90) scale(167 12.5)">
<stop stop-color="#0CC7BC"/>
<stop offset="1" stop-color="#0CC7BC" stop-opacity="0"/>
</radialGradient>
<radialGradient id="paint15_radial_280_2620" cx="0" cy="0" r="1" gradientUnits="userSpaceOnUse" gradientTransform="translate(12.5 167) rotate(90) scale(167 12.5)">
<stop stop-color="#0CC7BC"/>
<stop offset="1" stop-color="#0CC7BC" stop-opacity="0"/>
</radialGradient>
<radialGradient id="paint16_radial_280_2620" cx="0" cy="0" r="1" gradientUnits="userSpaceOnUse" gradientTransform="translate(12.5 167) rotate(90) scale(167 12.5)">
<stop stop-color="#0CC7BC"/>
<stop offset="1" stop-color="#0CC7BC" stop-opacity="0"/>
</radialGradient>
<radialGradient id="paint17_radial_280_2620" cx="0" cy="0" r="1" gradientUnits="userSpaceOnUse" gradientTransform="translate(12.5 167) rotate(90) scale(167 12.5)">
<stop stop-color="#0CC7BC"/>
<stop offset="1" stop-color="#0CC7BC" stop-opacity="0"/>
</radialGradient>
<radialGradient id="paint18_radial_280_2620" cx="0" cy="0" r="1" gradientUnits="userSpaceOnUse" gradientTransform="translate(12.5 167) rotate(90) scale(167 12.5)">
<stop stop-color="#0CC7BC"/>
<stop offset="1" stop-color="#0CC7BC" stop-opacity="0"/>
</radialGradient>
<radialGradient id="paint19_radial_280_2620" cx="0" cy="0" r="1" gradientUnits="userSpaceOnUse" gradientTransform="translate(12.5 167) rotate(90) scale(167 12.5)">
<stop stop-color="#0CC7BC"/>
<stop offset="1" stop-color="#0CC7BC" stop-opacity="0"/>
</radialGradient>
<radialGradient id="paint20_radial_280_2620" cx="0" cy="0" r="1" gradientUnits="userSpaceOnUse" gradientTransform="translate(12.5 167) rotate(90) scale(167 12.5)">
<stop stop-color="#0CC7BC"/>
<stop offset="1" stop-color="#0CC7BC" stop-opacity="0"/>
</radialGradient>
<radialGradient id="paint21_radial_280_2620" cx="0" cy="0" r="1" gradientUnits="userSpaceOnUse" gradientTransform="translate(12.5 167) rotate(90) scale(167 12.5)">
<stop stop-color="#0CC7BC"/>
<stop offset="1" stop-color="#0CC7BC" stop-opacity="0"/>
</radialGradient>
<radialGradient id="paint22_radial_280_2620" cx="0" cy="0" r="1" gradientUnits="userSpaceOnUse" gradientTransform="translate(12.5 167) rotate(90) scale(167 12.5)">
<stop stop-color="#0CC7BC"/>
<stop offset="1" stop-color="#0CC7BC" stop-opacity="0"/>
</radialGradient>
<radialGradient id="paint23_radial_280_2620" cx="0" cy="0" r="1" gradientUnits="userSpaceOnUse" gradientTransform="translate(12.5 167) rotate(90) scale(167 12.5)">
<stop stop-color="#0CC7BC"/>
<stop offset="1" stop-color="#0CC7BC" stop-opacity="0"/>
</radialGradient>
<radialGradient id="paint24_radial_280_2620" cx="0" cy="0" r="1" gradientUnits="userSpaceOnUse" gradientTransform="translate(12.5 167) rotate(90) scale(167 12.5)">
<stop stop-color="#0CC7BC"/>
<stop offset="1" stop-color="#0CC7BC" stop-opacity="0"/>
</radialGradient>
<radialGradient id="paint25_radial_280_2620" cx="0" cy="0" r="1" gradientUnits="userSpaceOnUse" gradientTransform="translate(12.5 167) rotate(90) scale(167 12.5)">
<stop stop-color="#0CC7BC"/>
<stop offset="1" stop-color="#0CC7BC" stop-opacity="0"/>
</radialGradient>
<radialGradient id="paint26_radial_280_2620" cx="0" cy="0" r="1" gradientUnits="userSpaceOnUse" gradientTransform="translate(12.5 167) rotate(90) scale(167 12.5)">
<stop stop-color="#0CC7BC"/>
<stop offset="1" stop-color="#0CC7BC" stop-opacity="0"/>
</radialGradient>
<radialGradient id="paint27_radial_280_2620" cx="0" cy="0" r="1" gradientUnits="userSpaceOnUse" gradientTransform="translate(12.5 167) rotate(90) scale(167 12.5)">
<stop stop-color="#0CC7BC"/>
<stop offset="1" stop-color="#0CC7BC" stop-opacity="0"/>
</radialGradient>
<radialGradient id="paint28_radial_280_2620" cx="0" cy="0" r="1" gradientUnits="userSpaceOnUse" gradientTransform="translate(12.5 167) rotate(90) scale(167 12.5)">
<stop stop-color="#0CC7BC"/>
<stop offset="1" stop-color="#0CC7BC" stop-opacity="0"/>
</radialGradient>
<radialGradient id="paint29_radial_280_2620" cx="0" cy="0" r="1" gradientUnits="userSpaceOnUse" gradientTransform="translate(12.5 167) rotate(90) scale(167 12.5)">
<stop stop-color="#0CC7BC"/>
<stop offset="1" stop-color="#0CC7BC" stop-opacity="0"/>
</radialGradient>
<radialGradient id="paint30_radial_280_2620" cx="0" cy="0" r="1" gradientUnits="userSpaceOnUse" gradientTransform="translate(12.5 167) rotate(90) scale(167 12.5)">
<stop stop-color="#0CC7BC"/>
<stop offset="1" stop-color="#0CC7BC" stop-opacity="0"/>
</radialGradient>
<radialGradient id="paint31_radial_280_2620" cx="0" cy="0" r="1" gradientUnits="userSpaceOnUse" gradientTransform="translate(12.5 167) rotate(90) scale(167 12.5)">
<stop stop-color="#0CC7BC"/>
<stop offset="1" stop-color="#0CC7BC" stop-opacity="0"/>
</radialGradient>
<radialGradient id="paint32_radial_280_2620" cx="0" cy="0" r="1" gradientUnits="userSpaceOnUse" gradientTransform="translate(12.5 167) rotate(90) scale(167 12.5)">
<stop stop-color="#0CC7BC"/>
<stop offset="1" stop-color="#0CC7BC" stop-opacity="0"/>
</radialGradient>
<radialGradient id="paint33_radial_280_2620" cx="0" cy="0" r="1" gradientUnits="userSpaceOnUse" gradientTransform="translate(12.5 167) rotate(90) scale(167 12.5)">
<stop stop-color="#0CC7BC"/>
<stop offset="1" stop-color="#0CC7BC" stop-opacity="0"/>
</radialGradient>
<radialGradient id="paint34_radial_280_2620" cx="0" cy="0" r="1" gradientUnits="userSpaceOnUse" gradientTransform="translate(12.5 167) rotate(90) scale(167 12.5)">
<stop stop-color="#0CC7BC"/>
<stop offset="1" stop-color="#0CC7BC" stop-opacity="0"/>
</radialGradient>
<radialGradient id="paint35_radial_280_2620" cx="0" cy="0" r="1" gradientUnits="userSpaceOnUse" gradientTransform="translate(12.5 167) rotate(90) scale(167 12.5)">
<stop stop-color="#0CC7BC"/>
<stop offset="1" stop-color="#0CC7BC" stop-opacity="0"/>
</radialGradient>
</defs>
</svg>
