<svg width="16" height="345" viewBox="0 0 16 345" fill="none" xmlns="http://www.w3.org/2000/svg">
<path d="M2.34476 1.01731e-07L5.09849e-06 6.79847e-10L0 115H2.34476L2.34476 1.01731e-07Z" fill="url(#paint0_radial_366_3277)"/>
<path d="M14.8425 3.35455H15.8273C17.4686 3.35455 18.7993 2.11474 18.7993 0.590813V2.99113e-07L16.4545 1.98062e-07V0.590813C16.4545 0.842275 16.1673 1.05456 15.8273 1.05456L14.8425 1.05456C14.5025 1.05456 14.2094 0.842274 14.2094 0.545781C14.2035 0.369223 14.2035 0.182633 14.2035 1.01051e-07L11.8588 0C11.8588 0.185475 11.8588 0.372679 11.8646 0.590813C11.8646 2.11474 13.2012 3.35455 14.8425 3.35455Z" fill="url(#paint1_radial_366_3277)"/>
<path d="M10.8446 6.93487L19.8251 6.93487C21.4664 6.93487 22.8029 5.69506 22.8029 4.16985V6.43926e-07L20.4582 5.42875e-07V4.16985C20.4582 4.42154 20.1709 4.63488 19.8251 4.63488H10.8446C10.4988 4.63488 10.2116 4.42154 10.2116 4.16985V1.0128e-07L7.86682 2.28552e-10V4.16985C7.86682 5.69506 9.20332 6.93487 10.8446 6.93487Z" fill="url(#paint2_radial_366_3277)"/>
<path d="M6.64743 10.6902L24.0221 10.6902C25.6635 10.6902 27 9.45043 27 7.92651L27 1.00593e-06L24.6552 9.0488e-07V7.92651C24.6552 8.17797 24.3621 8.39025 24.0221 8.39025L6.64743 8.39025C6.30158 8.39025 6.01435 8.17797 6.01435 7.9265L6.01435 1.0152e-07L3.6696 4.68726e-10L3.66959 7.9265C3.66959 9.45043 5.0061 10.6902 6.64743 10.6902Z" fill="url(#paint3_radial_366_3277)"/>
<path d="M27 111.041C27 110.405 26.4724 109.891 25.8276 109.891C25.1769 109.891 24.6552 110.405 24.6552 111.041V114.999H27V111.041Z" fill="url(#paint4_radial_366_3277)"/>
<path d="M15.8273 108.365H10.8446C9.20332 108.365 7.86682 109.605 7.86682 111.129V114.999H10.2116V111.129C10.2116 110.878 10.4988 110.665 10.8446 110.665H15.8273C16.1673 110.665 16.4545 110.878 16.4545 111.129V114.999H18.7993V111.129C18.7993 109.605 17.4686 108.365 15.8273 108.365Z" fill="url(#paint5_radial_366_3277)"/>
<path d="M19.825 104.61H6.64743C5.0061 104.61 3.66959 105.849 3.66959 107.373L3.66959 115H6.01435L6.01435 107.373C6.01435 107.121 6.30158 106.91 6.64743 106.91H19.825C20.1709 106.91 20.4581 107.121 20.4581 107.373L20.4581 115H22.8029V107.373C22.8029 105.849 21.4664 104.61 19.825 104.61Z" fill="url(#paint6_radial_366_3277)"/>
<path d="M14.9246 114.236C15.5636 114.313 16.1497 113.867 16.2318 113.239C16.3139 112.611 15.8626 112.036 15.2236 111.955C14.7547 111.895 13.1543 111.771 12.3454 112.702C12.1754 112.893 11.853 113.276 11.8589 114.999H14.2036C14.2095 114.713 14.2153 114.438 14.2329 114.235C14.4322 114.211 14.7077 114.209 14.9246 114.236Z" fill="url(#paint7_radial_366_3277)"/>
<path d="M3.66959 15.3733L3.66959 30.9263C3.66959 32.4503 5.00609 33.6901 6.64743 33.6901H24.0221C25.6635 33.6901 27 32.4503 27 30.9263V19.0411C27 18.4054 26.4724 17.891 25.8276 17.891C25.1769 17.891 24.6552 18.4054 24.6552 19.0411L24.6552 30.9263C24.6552 31.1778 24.3621 31.39 24.0221 31.39L6.64743 31.39C6.30157 31.39 6.01435 31.1778 6.01435 30.9263L6.01435 15.3733C6.01435 15.1216 6.30158 14.9093 6.64743 14.9093H19.825C20.1709 14.9093 20.4581 15.1216 20.4581 15.3733L20.4581 27.1697C20.4581 27.4211 20.1709 27.6346 19.825 27.6346H10.8446C10.4987 27.6346 10.2115 27.4211 10.2115 27.1697V19.1297C10.2115 18.8782 10.4987 18.6649 10.8446 18.6649L15.8272 18.6649C16.1672 18.6649 16.4544 18.8782 16.4544 19.1297V23.5906C16.4544 23.8421 16.1672 24.0543 15.8272 24.0543H14.8424C14.5024 24.0543 14.2093 23.8421 14.2093 23.5456C14.1917 23.0908 14.2034 22.5685 14.2327 22.235C14.4321 22.2115 14.7075 22.2091 14.9244 22.2361C15.5634 22.3136 16.1496 21.8678 16.2316 21.2388C16.3137 20.6088 15.8624 20.036 15.2234 19.9552C14.7545 19.8945 13.1541 19.7711 12.3452 20.7022C12.1576 20.9142 11.7766 21.3479 11.8645 23.5906C11.8645 25.1146 13.2011 26.3544 14.8424 26.3544H15.8272C17.4685 26.3544 18.7992 25.1146 18.7992 23.5906V19.1297C18.7992 17.6047 17.4685 16.3648 15.8272 16.3648L10.8446 16.3648C9.20325 16.3648 7.86675 17.6047 7.86675 19.1297V27.1697C7.86675 28.6949 9.20325 29.9347 10.8446 29.9347H19.825C21.4664 29.9347 22.8029 28.6949 22.8029 27.1697V15.3733C22.8029 13.8493 21.4664 12.6093 19.825 12.6093L6.64743 12.6093C5.0061 12.6093 3.66959 13.8493 3.66959 15.3733Z" fill="url(#paint8_radial_366_3277)"/>
<path d="M3.6696 38.3734L3.6696 53.9265C3.66959 55.4502 5.0061 56.6902 6.64743 56.6902L24.0221 56.6902C25.6635 56.6902 27 55.4502 27 53.9265L27 42.0411C27 41.4052 26.4724 40.8908 25.8276 40.8908C25.1769 40.8908 24.6552 41.4052 24.6552 42.0411V53.9265C24.6552 54.1778 24.3621 54.3902 24.0221 54.3902H6.64743C6.30158 54.3902 6.01435 54.1778 6.01435 53.9265L6.01435 38.3734C6.01435 38.1215 6.30158 37.9092 6.64743 37.9092H19.825C20.1709 37.9092 20.4581 38.1215 20.4581 38.3734V50.1696C20.4581 50.4215 20.1709 50.6344 19.825 50.6344H10.8446C10.4987 50.6344 10.2115 50.4215 10.2115 50.1696V42.1297C10.2115 41.8784 10.4987 41.6649 10.8446 41.6649H15.8272C16.1672 41.6649 16.4544 41.8784 16.4544 42.1297V46.5905C16.4544 46.8418 16.1672 47.0542 15.8272 47.0542H14.8424C14.5024 47.0542 14.2093 46.8418 14.2093 46.5454C14.1917 46.0928 14.2034 45.5673 14.2327 45.2351C14.4321 45.2117 14.7076 45.2095 14.9244 45.2362C15.5634 45.3137 16.1496 44.8678 16.2316 44.2386C16.3137 43.62 15.8624 43.0359 15.2234 42.9551C14.7545 42.8944 13.1541 42.7712 12.3452 43.7019C12.1576 43.9131 11.7766 44.3501 11.8645 46.5905C11.8645 48.1148 13.2011 49.3542 14.8424 49.3542H15.8272C17.4685 49.3542 18.7992 48.1148 18.7992 46.5905V42.1297C18.7992 40.6049 17.4685 39.3649 15.8272 39.3649H10.8446C9.20325 39.3649 7.86675 40.6049 7.86675 42.1297V50.1696C7.86675 51.695 9.20325 52.9344 10.8446 52.9344H19.825C21.4664 52.9344 22.8029 51.695 22.8029 50.1696V38.3734C22.8029 36.8492 21.4664 35.6094 19.825 35.6094H6.64743C5.0061 35.6094 3.6696 36.8492 3.6696 38.3734Z" fill="url(#paint9_radial_366_3277)"/>
<path d="M3.66959 61.3732L3.66959 76.9263C3.66959 78.45 5.0061 79.69 6.64743 79.69H24.0221C25.6635 79.69 27 78.45 27 76.9263V65.0409C27 64.405 26.4724 63.8912 25.8276 63.8912C25.1769 63.8912 24.6552 64.405 24.6552 65.0409L24.6552 76.9263C24.6552 77.1776 24.3621 77.39 24.0221 77.39H6.64743C6.30157 77.39 6.01435 77.1776 6.01435 76.9263L6.01435 61.3732C6.01435 61.1213 6.30158 60.909 6.64743 60.909H19.825C20.1709 60.909 20.4581 61.1213 20.4581 61.3732L20.4581 73.1694C20.4581 73.4213 20.1709 73.6342 19.825 73.6342H10.8446C10.4987 73.6342 10.2115 73.4213 10.2115 73.1694V65.1295C10.2115 64.8782 10.4987 64.6647 10.8446 64.6647H15.8272C16.1672 64.6647 16.4544 64.8782 16.4544 65.1295V69.5903C16.4544 69.8416 16.1672 70.054 15.8272 70.054H14.8424C14.5024 70.054 14.2093 69.8416 14.2093 69.5457C14.1917 69.0904 14.2034 68.5659 14.2327 68.2349C14.4321 68.2115 14.7076 68.2093 14.9244 68.236C15.5634 68.3135 16.1496 67.8676 16.2316 67.239C16.3137 66.6176 15.8624 66.0357 15.2234 65.9549C14.7545 65.8942 13.1541 65.771 12.3452 66.7017C12.1576 66.9129 11.7766 67.3521 11.8645 69.5903C11.8645 71.1146 13.2011 72.354 14.8424 72.354H15.8272C17.4685 72.354 18.7992 71.1146 18.7992 69.5903V65.1295C18.7992 63.6047 17.4685 62.3647 15.8272 62.3647H10.8446C9.20325 62.3647 7.86675 63.6047 7.86675 65.1295V73.1694C7.86675 74.6948 9.20325 75.9342 10.8446 75.9342H19.825C21.4664 75.9342 22.8029 74.6948 22.8029 73.1694V61.3732C22.8029 59.8489 21.4664 58.6095 19.825 58.6095H6.64743C5.0061 58.6095 3.66959 59.8489 3.66959 61.3732Z" fill="url(#paint10_radial_366_3277)"/>
<path d="M3.6696 84.3728L3.6696 99.9258C3.66959 101.45 5.0061 102.69 6.64743 102.69L24.0221 102.69C25.6635 102.69 27 101.45 27 99.9258V88.0405C27 87.4046 26.4724 86.8907 25.8276 86.8907C25.1769 86.8907 24.6552 87.4046 24.6552 88.0405V99.9258C24.6552 100.177 24.3621 100.39 24.0221 100.39H6.64743C6.30158 100.39 6.01435 100.177 6.01435 99.9258L6.01435 84.3728C6.01435 84.1209 6.30158 83.9091 6.64743 83.9091H19.825C20.1709 83.9091 20.4581 84.1209 20.4581 84.3728V96.1689C20.4581 96.4209 20.1709 96.6338 19.825 96.6338H10.8446C10.4987 96.6338 10.2115 96.4209 10.2115 96.1689V88.1291C10.2115 87.8777 10.4987 87.6643 10.8446 87.6643H15.8272C16.1672 87.6643 16.4544 87.8777 16.4544 88.1291V92.5899C16.4544 92.8418 16.1672 93.0535 15.8272 93.0535H14.8424C14.5024 93.0535 14.2093 92.8418 14.2093 92.5453C14.1917 92.0888 14.2034 91.5666 14.2327 91.2345C14.4321 91.2111 14.7076 91.2088 14.9244 91.2356C15.5634 91.313 16.1496 90.8672 16.2316 90.2385C16.3137 89.6149 15.8624 89.0353 15.2234 88.9545C14.7545 88.8937 13.1541 88.7706 12.3452 89.7013C12.1576 89.9136 11.7766 90.3539 11.8645 92.5899C11.8645 94.1141 13.2011 95.3536 14.8424 95.3536H15.8272C17.4685 95.3536 18.7992 94.1141 18.7992 92.5899V88.1291C18.7992 86.6043 17.4685 85.3642 15.8272 85.3642H10.8446C9.20325 85.3642 7.86675 86.6043 7.86675 88.1291V96.1689C7.86675 97.6943 9.20325 98.9338 10.8446 98.9338H19.825C21.4664 98.9338 22.8029 97.6943 22.8029 96.1689V84.3728C22.8029 82.8485 21.4664 81.609 19.825 81.609H6.64743C5.0061 81.609 3.6696 82.8485 3.6696 84.3728Z" fill="url(#paint11_radial_366_3277)"/>
<path d="M2.34476 115H0L6.49394e-05 230H2.34482L2.34476 115Z" fill="url(#paint12_radial_366_3277)"/>
<path d="M14.8425 118.354H15.8273C17.4686 118.354 18.7993 117.115 18.7993 115.591L18.7993 114.999H16.4545L16.4545 115.591C16.4545 115.843 16.1673 116.054 15.8273 116.054H14.8425C14.5025 116.054 14.2094 115.843 14.2094 115.546C14.2035 115.369 14.2036 115.182 14.2036 114.999H11.8589C11.8589 115.185 11.8588 115.373 11.8646 115.591C11.8646 117.115 13.2012 118.354 14.8425 118.354Z" fill="url(#paint13_radial_366_3277)"/>
<path d="M10.8446 121.935H19.825C21.4664 121.935 22.8029 120.695 22.8029 119.17L22.8029 115H20.4581L20.4581 119.17C20.4581 119.422 20.1709 119.635 19.825 119.635H10.8446C10.4987 119.635 10.2115 119.422 10.2115 119.17L10.2116 114.999H7.86682L7.86675 119.17C7.86675 120.695 9.20325 121.935 10.8446 121.935Z" fill="url(#paint14_radial_366_3277)"/>
<path d="M6.64743 125.69H24.0221C25.6635 125.69 27 124.45 27 122.927L27 114.999H24.6552L24.6552 122.927C24.6552 123.178 24.3621 123.39 24.0221 123.39H6.64743C6.30157 123.39 6.01435 123.178 6.01435 122.927V115H3.66959L3.66959 122.927C3.66959 124.45 5.0061 125.69 6.64743 125.69Z" fill="url(#paint15_radial_366_3277)"/>
<path d="M26.9999 226.041C26.9999 225.405 26.4724 224.891 25.8276 224.891C25.1769 224.891 24.6552 225.405 24.6552 226.041V229.999H26.9999V226.041Z" fill="url(#paint16_radial_366_3277)"/>
<path d="M15.8273 223.364H10.8447C9.20335 223.364 7.86685 224.604 7.86685 226.129V229.999H10.2116V226.129C10.2116 225.878 10.4988 225.664 10.8447 225.664H15.8273C16.1673 225.664 16.4545 225.878 16.4545 226.129V229.999H18.7993V226.129C18.7993 224.604 17.4686 223.364 15.8273 223.364Z" fill="url(#paint17_radial_366_3277)"/>
<path d="M19.825 219.61H6.64743C5.0061 219.61 3.6696 220.85 3.6696 222.373L3.6696 230H6.01435L6.01435 222.373C6.01435 222.122 6.30158 221.91 6.64743 221.91H19.825C20.1709 221.91 20.4581 222.122 20.4581 222.373V230H22.8029L22.8029 222.373C22.8029 220.85 21.4664 219.61 19.825 219.61Z" fill="url(#paint18_radial_366_3277)"/>
<path d="M14.9246 229.236C15.5636 229.313 16.1497 228.867 16.2318 228.238C16.3139 227.61 15.8626 227.036 15.2236 226.955C14.7547 226.894 13.1543 226.771 12.3454 227.702C12.1754 227.893 11.853 228.276 11.8589 229.999H14.2036C14.2095 229.713 14.2153 229.437 14.2329 229.234C14.4322 229.211 14.7077 229.209 14.9246 229.236Z" fill="url(#paint19_radial_366_3277)"/>
<path d="M3.6696 130.373L3.6696 145.926C3.66959 147.45 5.0061 148.69 6.64743 148.69H24.0221C25.6635 148.69 27 147.45 27 145.926V134.041C27 133.406 26.4724 132.891 25.8276 132.891C25.1769 132.891 24.6552 133.406 24.6552 134.041V145.926C24.6552 146.178 24.3621 146.39 24.0221 146.39H6.64743C6.30158 146.39 6.01435 146.178 6.01435 145.926L6.01435 130.373C6.01435 130.122 6.30158 129.91 6.64743 129.91H19.825C20.1709 129.91 20.4581 130.122 20.4581 130.373V142.17C20.4581 142.422 20.1709 142.635 19.825 142.635H10.8446C10.4987 142.635 10.2115 142.422 10.2115 142.17V134.13C10.2115 133.878 10.4987 133.665 10.8446 133.665H15.8272C16.1672 133.665 16.4544 133.878 16.4544 134.13V138.591C16.4544 138.842 16.1672 139.054 15.8272 139.054H14.8424C14.5024 139.054 14.2093 138.842 14.2093 138.546C14.1917 138.091 14.2034 137.569 14.2327 137.235C14.4321 137.212 14.7076 137.21 14.9244 137.236C15.5634 137.314 16.1496 136.868 16.2316 136.239C16.3137 135.609 15.8624 135.036 15.2234 134.955C14.7545 134.895 13.1541 134.771 12.3452 135.702C12.1576 135.914 11.7766 136.348 11.8645 138.591C11.8645 140.115 13.2011 141.354 14.8424 141.354H15.8272C17.4685 141.354 18.7992 140.115 18.7992 138.591V134.13C18.7992 132.605 17.4685 131.365 15.8272 131.365H10.8446C9.20325 131.365 7.86675 132.605 7.86675 134.13V142.17C7.86675 143.695 9.20325 144.934 10.8446 144.934H19.825C21.4664 144.934 22.8029 143.695 22.8029 142.17V130.373C22.8029 128.849 21.4664 127.61 19.825 127.61H6.64743C5.0061 127.61 3.6696 128.849 3.6696 130.373Z" fill="url(#paint20_radial_366_3277)"/>
<path d="M3.66959 153.373L3.66959 168.926C3.66959 170.45 5.0061 171.69 6.64743 171.69H24.0221C25.6635 171.69 27 170.45 27 168.926V157.041C27 156.405 26.4724 155.891 25.8276 155.891C25.1769 155.891 24.6552 156.405 24.6552 157.041L24.6552 168.926C24.6552 169.177 24.3621 169.39 24.0221 169.39H6.64743C6.30157 169.39 6.01435 169.177 6.01435 168.926L6.01435 153.373C6.01435 153.122 6.30158 152.909 6.64743 152.909H19.825C20.1709 152.909 20.4581 153.122 20.4581 153.373L20.4581 165.169C20.4581 165.421 20.1709 165.635 19.825 165.635H10.8446C10.4987 165.635 10.2115 165.421 10.2115 165.169V157.129C10.2115 156.878 10.4987 156.665 10.8446 156.665H15.8272C16.1672 156.665 16.4544 156.878 16.4544 157.129V161.59C16.4544 161.842 16.1672 162.054 15.8272 162.054H14.8424C14.5024 162.054 14.2093 161.842 14.2093 161.546C14.1917 161.093 14.2034 160.567 14.2327 160.235C14.4321 160.211 14.7076 160.209 14.9244 160.236C15.5634 160.313 16.1496 159.867 16.2316 159.239C16.3137 158.62 15.8624 158.036 15.2234 157.955C14.7545 157.895 13.1541 157.771 12.3452 158.702C12.1576 158.913 11.7766 159.35 11.8645 161.59C11.8645 163.114 13.2011 164.354 14.8424 164.354H15.8272C17.4685 164.354 18.7992 163.114 18.7992 161.59V157.129C18.7992 155.605 17.4685 154.364 15.8272 154.364H10.8446C9.20325 154.364 7.86675 155.605 7.86675 157.129V165.169C7.86675 166.695 9.20325 167.935 10.8446 167.935H19.825C21.4664 167.935 22.8029 166.695 22.8029 165.169V153.373C22.8029 151.849 21.4664 150.609 19.825 150.609H6.64743C5.0061 150.609 3.66959 151.849 3.66959 153.373Z" fill="url(#paint21_radial_366_3277)"/>
<path d="M3.6696 176.373L3.6696 191.926C3.66959 193.45 5.0061 194.69 6.64743 194.69H24.0221C25.6635 194.69 27 193.45 27 191.926V180.041C27 179.405 26.4724 178.891 25.8276 178.891C25.1769 178.891 24.6552 179.405 24.6552 180.041V191.926C24.6552 192.178 24.3621 192.39 24.0221 192.39H6.64743C6.30158 192.39 6.01435 192.178 6.01435 191.926L6.01435 176.373C6.01435 176.122 6.30158 175.909 6.64743 175.909H19.825C20.1709 175.909 20.4581 176.122 20.4581 176.373V188.169C20.4581 188.421 20.1709 188.635 19.825 188.635H10.8446C10.4987 188.635 10.2115 188.421 10.2115 188.169V180.129C10.2115 179.878 10.4987 179.665 10.8446 179.665H15.8272C16.1672 179.665 16.4544 179.878 16.4544 180.129V184.59C16.4544 184.842 16.1672 185.054 15.8272 185.054H14.8424C14.5024 185.054 14.2093 184.842 14.2093 184.546C14.1917 184.091 14.2034 183.566 14.2327 183.235C14.4321 183.211 14.7076 183.209 14.9244 183.236C15.5634 183.313 16.1496 182.868 16.2316 182.239C16.3137 181.617 15.8624 181.036 15.2234 180.955C14.7545 180.895 13.1541 180.771 12.3452 181.702C12.1576 181.913 11.7766 182.352 11.8645 184.59C11.8645 186.114 13.2011 187.354 14.8424 187.354H15.8272C17.4685 187.354 18.7992 186.114 18.7992 184.59V180.129C18.7992 178.605 17.4685 177.365 15.8272 177.365H10.8446C9.20325 177.365 7.86675 178.605 7.86675 180.129L7.86675 188.169C7.86675 189.695 9.20325 190.935 10.8446 190.935H19.825C21.4664 190.935 22.8029 189.695 22.8029 188.169V176.373C22.8029 174.849 21.4664 173.609 19.825 173.609H6.64743C5.0061 173.609 3.6696 174.849 3.6696 176.373Z" fill="url(#paint22_radial_366_3277)"/>
<path d="M3.66959 199.373L3.66959 214.926C3.66959 216.45 5.0061 217.69 6.64743 217.69H24.0221C25.6635 217.69 27 216.45 27 214.926V203.041C27 202.406 26.4724 201.891 25.8276 201.891C25.1769 201.891 24.6552 202.406 24.6552 203.041L24.6552 214.926C24.6552 215.178 24.3621 215.39 24.0221 215.39H6.64743C6.30157 215.39 6.01435 215.178 6.01435 214.926L6.01435 199.373C6.01435 199.122 6.30158 198.909 6.64743 198.909H19.825C20.1709 198.909 20.4581 199.122 20.4581 199.373L20.4581 211.17C20.4581 211.421 20.1709 211.635 19.825 211.635H10.8446C10.4987 211.635 10.2115 211.421 10.2115 211.17V203.129C10.2115 202.878 10.4987 202.665 10.8446 202.665H15.8272C16.1672 202.665 16.4544 202.878 16.4544 203.129V207.59C16.4544 207.842 16.1672 208.055 15.8272 208.055H14.8424C14.5024 208.055 14.2093 207.842 14.2093 207.546C14.1917 207.09 14.2034 206.568 14.2327 206.235C14.4321 206.211 14.7076 206.209 14.9244 206.236C15.5634 206.313 16.1496 205.868 16.2316 205.239C16.3137 204.615 15.8624 204.036 15.2234 203.955C14.7545 203.895 13.1541 203.771 12.3452 204.702C12.1576 204.915 11.7766 205.354 11.8645 207.59C11.8645 209.115 13.2011 210.354 14.8424 210.354H15.8272C17.4685 210.354 18.7992 209.115 18.7992 207.59V203.129C18.7992 201.605 17.4685 200.365 15.8272 200.365H10.8446C9.20325 200.365 7.86675 201.605 7.86675 203.129L7.86675 211.17C7.86675 212.695 9.20325 213.935 10.8446 213.935H19.825C21.4664 213.935 22.8029 212.695 22.8029 211.17V199.373C22.8029 197.849 21.4664 196.609 19.825 196.609H6.64743C5.0061 196.609 3.66959 197.849 3.66959 199.373Z" fill="url(#paint23_radial_366_3277)"/>
<path d="M2.34482 230H6.49394e-05L3.30617e-05 344.999H2.34479L2.34482 230Z" fill="url(#paint24_radial_366_3277)"/>
<path d="M14.8425 233.354H15.8273C17.4686 233.354 18.7993 232.114 18.7993 230.59V229.999H16.4545V230.59C16.4545 230.842 16.1673 231.054 15.8273 231.054H14.8425C14.5025 231.054 14.2094 230.842 14.2094 230.545C14.2035 230.369 14.2036 230.182 14.2036 229.999H11.8589C11.8589 230.185 11.8588 230.372 11.8646 230.59C11.8646 232.114 13.2012 233.354 14.8425 233.354Z" fill="url(#paint25_radial_366_3277)"/>
<path d="M10.8447 236.935H19.8251C21.4665 236.935 22.803 235.694 22.803 234.17L22.8029 230H20.4581L20.4582 234.17C20.4582 234.421 20.171 234.634 19.8251 234.634H10.8447C10.4988 234.634 10.2116 234.421 10.2116 234.17V229.999H7.86685V234.17C7.86685 235.694 9.20335 236.935 10.8447 236.935Z" fill="url(#paint26_radial_366_3277)"/>
<path d="M6.64743 240.69L24.0221 240.69C25.6635 240.69 27 239.45 27 237.926L26.9999 229.999H24.6552L24.6552 237.926C24.6552 238.177 24.3621 238.39 24.0221 238.39L6.64743 238.39C6.30158 238.39 6.01435 238.177 6.01435 237.926V230H3.6696L3.6696 237.926C3.66959 239.45 5.0061 240.69 6.64743 240.69Z" fill="url(#paint27_radial_366_3277)"/>
<path d="M27 341.041C27 340.405 26.4724 339.891 25.8276 339.891C25.1769 339.891 24.6552 340.405 24.6552 341.041V345H27V341.041Z" fill="url(#paint28_radial_366_3277)"/>
<path d="M15.8273 338.365H10.8446C9.20332 338.365 7.86682 339.604 7.86682 341.13L7.86682 345H10.2116V341.13C10.2116 340.878 10.4988 340.665 10.8446 340.665H15.8273C16.1673 340.665 16.4545 340.878 16.4545 341.13V345H18.7993V341.13C18.7993 339.604 17.4686 338.365 15.8273 338.365Z" fill="url(#paint29_radial_366_3277)"/>
<path d="M19.825 334.608H6.64739C5.00606 334.608 3.66956 335.848 3.66956 337.372L3.66956 344.999H6.01432L6.01432 337.372C6.01432 337.121 6.30154 336.908 6.64739 336.908L19.825 336.908C20.1708 336.908 20.4581 337.121 20.4581 337.372L20.4581 344.999H22.8028V337.372C22.8028 335.848 21.4663 334.608 19.825 334.608Z" fill="url(#paint30_radial_366_3277)"/>
<path d="M14.9246 344.236C15.5635 344.314 16.1497 343.868 16.2318 343.239C16.3138 342.611 15.8625 342.036 15.2236 341.955C14.7546 341.895 13.1543 341.771 12.3454 342.702C12.1754 342.894 11.853 343.277 11.8588 345H14.2036C14.2094 344.714 14.2153 344.438 14.2329 344.235C14.4322 344.211 14.7077 344.209 14.9246 344.236Z" fill="url(#paint31_radial_366_3277)"/>
<path d="M3.66959 245.373L3.66959 260.926C3.66959 262.45 5.0061 263.69 6.64743 263.69H24.0221C25.6635 263.69 27 262.45 27 260.926V249.041C27 248.405 26.4724 247.891 25.8276 247.891C25.1769 247.891 24.6552 248.405 24.6552 249.041L24.6552 260.926C24.6552 261.177 24.3621 261.39 24.0221 261.39H6.64743C6.30157 261.39 6.01435 261.177 6.01435 260.926L6.01435 245.373C6.01435 245.121 6.30158 244.909 6.64743 244.909H19.825C20.1709 244.909 20.4581 245.121 20.4581 245.373L20.4581 257.17C20.4581 257.421 20.1709 257.634 19.825 257.634H10.8446C10.4987 257.634 10.2115 257.421 10.2115 257.17V249.13C10.2115 248.878 10.4987 248.664 10.8446 248.664H15.8272C16.1672 248.664 16.4544 248.878 16.4544 249.13V253.59C16.4544 253.842 16.1672 254.054 15.8272 254.054H14.8424C14.5024 254.054 14.2093 253.842 14.2093 253.545C14.1917 253.091 14.2034 252.568 14.2327 252.234C14.4321 252.211 14.7076 252.209 14.9244 252.236C15.5634 252.313 16.1496 251.867 16.2316 251.239C16.3137 250.608 15.8624 250.036 15.2234 249.955C14.7545 249.894 13.1541 249.771 12.3452 250.702C12.1576 250.914 11.7766 251.347 11.8645 253.59C11.8645 255.114 13.2011 256.354 14.8424 256.354H15.8272C17.4685 256.354 18.7992 255.114 18.7992 253.59V249.13C18.7992 247.604 17.4685 246.364 15.8272 246.364H10.8446C9.20325 246.364 7.86675 247.604 7.86675 249.13L7.86675 257.17C7.86675 258.694 9.20325 259.934 10.8446 259.934H19.825C21.4664 259.934 22.8029 258.694 22.8029 257.17V245.373C22.8029 243.849 21.4664 242.609 19.825 242.609H6.64743C5.0061 242.609 3.66959 243.849 3.66959 245.373Z" fill="url(#paint32_radial_366_3277)"/>
<path d="M3.6696 268.373L3.6696 283.926C3.66959 285.45 5.0061 286.69 6.64743 286.69H24.0221C25.6635 286.69 27 285.45 27 283.926V272.041C27 271.405 26.4724 270.891 25.8276 270.891C25.1769 270.891 24.6552 271.405 24.6552 272.041V283.926C24.6552 284.177 24.3621 284.39 24.0221 284.39H6.64743C6.30158 284.39 6.01435 284.177 6.01435 283.926L6.01435 268.373C6.01435 268.122 6.30158 267.909 6.64743 267.909H19.825C20.1709 267.909 20.4581 268.122 20.4581 268.373V280.17C20.4581 280.421 20.1709 280.634 19.825 280.634H10.8446C10.4987 280.634 10.2115 280.421 10.2115 280.17V272.13C10.2115 271.878 10.4987 271.664 10.8446 271.664H15.8272C16.1672 271.664 16.4544 271.878 16.4544 272.13V276.591C16.4544 276.842 16.1672 277.054 15.8272 277.054H14.8424C14.5024 277.054 14.2093 276.842 14.2093 276.545C14.1917 276.093 14.2034 275.567 14.2327 275.235C14.4321 275.211 14.7076 275.209 14.9244 275.236C15.5634 275.313 16.1496 274.867 16.2316 274.239C16.3137 273.62 15.8624 273.036 15.2234 272.955C14.7545 272.894 13.1541 272.771 12.3452 273.702C12.1576 273.913 11.7766 274.35 11.8645 276.591C11.8645 278.114 13.2011 279.354 14.8424 279.354H15.8272C17.4685 279.354 18.7992 278.114 18.7992 276.591V272.13C18.7992 270.604 17.4685 269.364 15.8272 269.364H10.8446C9.20325 269.364 7.86675 270.604 7.86675 272.13L7.86675 280.17C7.86675 281.694 9.20325 282.935 10.8446 282.935H19.825C21.4664 282.935 22.8029 281.694 22.8029 280.17V268.373C22.8029 266.849 21.4664 265.609 19.825 265.609H6.64743C5.0061 265.609 3.6696 266.849 3.6696 268.373Z" fill="url(#paint33_radial_366_3277)"/>
<path d="M3.66956 291.373L3.66956 306.926C3.66956 308.45 5.00606 309.69 6.64739 309.69H24.0221C25.6634 309.69 26.9999 308.45 26.9999 306.926V295.041C26.9999 294.405 26.4723 293.891 25.8275 293.891C25.1769 293.891 24.6552 294.405 24.6552 295.041L24.6552 306.926C24.6552 307.178 24.3621 307.39 24.0221 307.39H6.64739C6.30154 307.39 6.01432 307.178 6.01432 306.926L6.01432 291.373C6.01432 291.122 6.30154 290.909 6.64739 290.909L19.825 290.909C20.1708 290.909 20.4581 291.122 20.4581 291.373L20.4581 303.17C20.4581 303.421 20.1708 303.635 19.825 303.635H10.8445C10.4987 303.635 10.2115 303.421 10.2115 303.17V295.13C10.2115 294.878 10.4987 294.664 10.8445 294.664H15.8272C16.1672 294.664 16.4544 294.878 16.4544 295.13V299.591C16.4544 299.842 16.1672 300.054 15.8272 300.054H14.8424C14.5024 300.054 14.2092 299.842 14.2092 299.545C14.1917 299.091 14.2034 298.566 14.2327 298.235C14.432 298.211 14.7075 298.209 14.9244 298.236C15.5634 298.313 16.1495 297.867 16.2316 297.239C16.3137 296.618 15.8623 296.036 15.2234 295.955C14.7544 295.895 13.1541 295.771 12.3452 296.702C12.1576 296.913 11.7766 297.352 11.8645 299.591C11.8645 301.114 13.201 302.354 14.8424 302.354H15.8272C17.4685 302.354 18.7992 301.114 18.7992 299.591V295.13C18.7992 293.604 17.4685 292.364 15.8272 292.364H10.8445C9.20322 292.364 7.86672 293.604 7.86672 295.13L7.86671 303.17C7.86671 304.695 9.20322 305.935 10.8445 305.935H19.825C21.4663 305.935 22.8028 304.695 22.8028 303.17V291.373C22.8028 289.849 21.4663 288.609 19.825 288.609H6.6474C5.00606 288.609 3.66956 289.849 3.66956 291.373Z" fill="url(#paint34_radial_366_3277)"/>
<path d="M3.66956 314.373L3.66956 329.926C3.66956 331.45 5.00606 332.69 6.6474 332.69H24.0221C25.6634 332.69 26.9999 331.45 26.9999 329.926V318.041C26.9999 317.405 26.4723 316.891 25.8275 316.891C25.1769 316.891 24.6552 317.405 24.6552 318.041V329.926C24.6552 330.178 24.3621 330.39 24.0221 330.39H6.6474C6.30154 330.39 6.01432 330.178 6.01432 329.926L6.01432 314.373C6.01432 314.122 6.30154 313.909 6.6474 313.909L19.825 313.909C20.1708 313.909 20.4581 314.122 20.4581 314.373V326.17C20.4581 326.421 20.1708 326.635 19.825 326.635H10.8445C10.4987 326.635 10.2115 326.421 10.2115 326.17V318.13C10.2115 317.878 10.4987 317.665 10.8446 317.665H15.8272C16.1672 317.665 16.4544 317.878 16.4544 318.13V322.591C16.4544 322.842 16.1672 323.054 15.8272 323.054H14.8424C14.5024 323.054 14.2092 322.842 14.2092 322.546C14.1917 322.09 14.2034 321.567 14.2327 321.235C14.432 321.211 14.7075 321.209 14.9244 321.236C15.5634 321.313 16.1495 320.867 16.2316 320.239C16.3137 319.616 15.8623 319.036 15.2234 318.955C14.7544 318.895 13.1541 318.771 12.3452 319.702C12.1576 319.914 11.7766 320.355 11.8645 322.591C11.8645 324.114 13.201 325.354 14.8424 325.354H15.8272C17.4685 325.354 18.7992 324.114 18.7992 322.591V318.13C18.7992 316.605 17.4685 315.365 15.8272 315.365H10.8446C9.20322 315.365 7.86672 316.605 7.86672 318.13L7.86672 326.17C7.86672 327.695 9.20322 328.935 10.8445 328.935H19.825C21.4663 328.935 22.8028 327.695 22.8028 326.17V314.373C22.8028 312.849 21.4663 311.609 19.825 311.609H6.6474C5.00606 311.609 3.66956 312.849 3.66956 314.373Z" fill="url(#paint35_radial_366_3277)"/>
<defs>
<radialGradient id="paint0_radial_366_3277" cx="0" cy="0" r="1" gradientUnits="userSpaceOnUse" gradientTransform="translate(13.5 172.5) rotate(90) scale(172.5 13.5)">
<stop stop-color="#0CC7BC"/>
<stop offset="1" stop-color="#0CC7BC" stop-opacity="0"/>
</radialGradient>
<radialGradient id="paint1_radial_366_3277" cx="0" cy="0" r="1" gradientUnits="userSpaceOnUse" gradientTransform="translate(13.5 172.5) rotate(90) scale(172.5 13.5)">
<stop stop-color="#0CC7BC"/>
<stop offset="1" stop-color="#0CC7BC" stop-opacity="0"/>
</radialGradient>
<radialGradient id="paint2_radial_366_3277" cx="0" cy="0" r="1" gradientUnits="userSpaceOnUse" gradientTransform="translate(13.5 172.5) rotate(90) scale(172.5 13.5)">
<stop stop-color="#0CC7BC"/>
<stop offset="1" stop-color="#0CC7BC" stop-opacity="0"/>
</radialGradient>
<radialGradient id="paint3_radial_366_3277" cx="0" cy="0" r="1" gradientUnits="userSpaceOnUse" gradientTransform="translate(13.5 172.5) rotate(90) scale(172.5 13.5)">
<stop stop-color="#0CC7BC"/>
<stop offset="1" stop-color="#0CC7BC" stop-opacity="0"/>
</radialGradient>
<radialGradient id="paint4_radial_366_3277" cx="0" cy="0" r="1" gradientUnits="userSpaceOnUse" gradientTransform="translate(13.5 172.5) rotate(90) scale(172.5 13.5)">
<stop stop-color="#0CC7BC"/>
<stop offset="1" stop-color="#0CC7BC" stop-opacity="0"/>
</radialGradient>
<radialGradient id="paint5_radial_366_3277" cx="0" cy="0" r="1" gradientUnits="userSpaceOnUse" gradientTransform="translate(13.5 172.5) rotate(90) scale(172.5 13.5)">
<stop stop-color="#0CC7BC"/>
<stop offset="1" stop-color="#0CC7BC" stop-opacity="0"/>
</radialGradient>
<radialGradient id="paint6_radial_366_3277" cx="0" cy="0" r="1" gradientUnits="userSpaceOnUse" gradientTransform="translate(13.5 172.5) rotate(90) scale(172.5 13.5)">
<stop stop-color="#0CC7BC"/>
<stop offset="1" stop-color="#0CC7BC" stop-opacity="0"/>
</radialGradient>
<radialGradient id="paint7_radial_366_3277" cx="0" cy="0" r="1" gradientUnits="userSpaceOnUse" gradientTransform="translate(13.5 172.5) rotate(90) scale(172.5 13.5)">
<stop stop-color="#0CC7BC"/>
<stop offset="1" stop-color="#0CC7BC" stop-opacity="0"/>
</radialGradient>
<radialGradient id="paint8_radial_366_3277" cx="0" cy="0" r="1" gradientUnits="userSpaceOnUse" gradientTransform="translate(13.5 172.5) rotate(90) scale(172.5 13.5)">
<stop stop-color="#0CC7BC"/>
<stop offset="1" stop-color="#0CC7BC" stop-opacity="0"/>
</radialGradient>
<radialGradient id="paint9_radial_366_3277" cx="0" cy="0" r="1" gradientUnits="userSpaceOnUse" gradientTransform="translate(13.5 172.5) rotate(90) scale(172.5 13.5)">
<stop stop-color="#0CC7BC"/>
<stop offset="1" stop-color="#0CC7BC" stop-opacity="0"/>
</radialGradient>
<radialGradient id="paint10_radial_366_3277" cx="0" cy="0" r="1" gradientUnits="userSpaceOnUse" gradientTransform="translate(13.5 172.5) rotate(90) scale(172.5 13.5)">
<stop stop-color="#0CC7BC"/>
<stop offset="1" stop-color="#0CC7BC" stop-opacity="0"/>
</radialGradient>
<radialGradient id="paint11_radial_366_3277" cx="0" cy="0" r="1" gradientUnits="userSpaceOnUse" gradientTransform="translate(13.5 172.5) rotate(90) scale(172.5 13.5)">
<stop stop-color="#0CC7BC"/>
<stop offset="1" stop-color="#0CC7BC" stop-opacity="0"/>
</radialGradient>
<radialGradient id="paint12_radial_366_3277" cx="0" cy="0" r="1" gradientUnits="userSpaceOnUse" gradientTransform="translate(13.5 172.5) rotate(90) scale(172.5 13.5)">
<stop stop-color="#0CC7BC"/>
<stop offset="1" stop-color="#0CC7BC" stop-opacity="0"/>
</radialGradient>
<radialGradient id="paint13_radial_366_3277" cx="0" cy="0" r="1" gradientUnits="userSpaceOnUse" gradientTransform="translate(13.5 172.5) rotate(90) scale(172.5 13.5)">
<stop stop-color="#0CC7BC"/>
<stop offset="1" stop-color="#0CC7BC" stop-opacity="0"/>
</radialGradient>
<radialGradient id="paint14_radial_366_3277" cx="0" cy="0" r="1" gradientUnits="userSpaceOnUse" gradientTransform="translate(13.5 172.5) rotate(90) scale(172.5 13.5)">
<stop stop-color="#0CC7BC"/>
<stop offset="1" stop-color="#0CC7BC" stop-opacity="0"/>
</radialGradient>
<radialGradient id="paint15_radial_366_3277" cx="0" cy="0" r="1" gradientUnits="userSpaceOnUse" gradientTransform="translate(13.5 172.5) rotate(90) scale(172.5 13.5)">
<stop stop-color="#0CC7BC"/>
<stop offset="1" stop-color="#0CC7BC" stop-opacity="0"/>
</radialGradient>
<radialGradient id="paint16_radial_366_3277" cx="0" cy="0" r="1" gradientUnits="userSpaceOnUse" gradientTransform="translate(13.5 172.5) rotate(90) scale(172.5 13.5)">
<stop stop-color="#0CC7BC"/>
<stop offset="1" stop-color="#0CC7BC" stop-opacity="0"/>
</radialGradient>
<radialGradient id="paint17_radial_366_3277" cx="0" cy="0" r="1" gradientUnits="userSpaceOnUse" gradientTransform="translate(13.5 172.5) rotate(90) scale(172.5 13.5)">
<stop stop-color="#0CC7BC"/>
<stop offset="1" stop-color="#0CC7BC" stop-opacity="0"/>
</radialGradient>
<radialGradient id="paint18_radial_366_3277" cx="0" cy="0" r="1" gradientUnits="userSpaceOnUse" gradientTransform="translate(13.5 172.5) rotate(90) scale(172.5 13.5)">
<stop stop-color="#0CC7BC"/>
<stop offset="1" stop-color="#0CC7BC" stop-opacity="0"/>
</radialGradient>
<radialGradient id="paint19_radial_366_3277" cx="0" cy="0" r="1" gradientUnits="userSpaceOnUse" gradientTransform="translate(13.5 172.5) rotate(90) scale(172.5 13.5)">
<stop stop-color="#0CC7BC"/>
<stop offset="1" stop-color="#0CC7BC" stop-opacity="0"/>
</radialGradient>
<radialGradient id="paint20_radial_366_3277" cx="0" cy="0" r="1" gradientUnits="userSpaceOnUse" gradientTransform="translate(13.5 172.5) rotate(90) scale(172.5 13.5)">
<stop stop-color="#0CC7BC"/>
<stop offset="1" stop-color="#0CC7BC" stop-opacity="0"/>
</radialGradient>
<radialGradient id="paint21_radial_366_3277" cx="0" cy="0" r="1" gradientUnits="userSpaceOnUse" gradientTransform="translate(13.5 172.5) rotate(90) scale(172.5 13.5)">
<stop stop-color="#0CC7BC"/>
<stop offset="1" stop-color="#0CC7BC" stop-opacity="0"/>
</radialGradient>
<radialGradient id="paint22_radial_366_3277" cx="0" cy="0" r="1" gradientUnits="userSpaceOnUse" gradientTransform="translate(13.5 172.5) rotate(90) scale(172.5 13.5)">
<stop stop-color="#0CC7BC"/>
<stop offset="1" stop-color="#0CC7BC" stop-opacity="0"/>
</radialGradient>
<radialGradient id="paint23_radial_366_3277" cx="0" cy="0" r="1" gradientUnits="userSpaceOnUse" gradientTransform="translate(13.5 172.5) rotate(90) scale(172.5 13.5)">
<stop stop-color="#0CC7BC"/>
<stop offset="1" stop-color="#0CC7BC" stop-opacity="0"/>
</radialGradient>
<radialGradient id="paint24_radial_366_3277" cx="0" cy="0" r="1" gradientUnits="userSpaceOnUse" gradientTransform="translate(13.5 172.5) rotate(90) scale(172.5 13.5)">
<stop stop-color="#0CC7BC"/>
<stop offset="1" stop-color="#0CC7BC" stop-opacity="0"/>
</radialGradient>
<radialGradient id="paint25_radial_366_3277" cx="0" cy="0" r="1" gradientUnits="userSpaceOnUse" gradientTransform="translate(13.5 172.5) rotate(90) scale(172.5 13.5)">
<stop stop-color="#0CC7BC"/>
<stop offset="1" stop-color="#0CC7BC" stop-opacity="0"/>
</radialGradient>
<radialGradient id="paint26_radial_366_3277" cx="0" cy="0" r="1" gradientUnits="userSpaceOnUse" gradientTransform="translate(13.5 172.5) rotate(90) scale(172.5 13.5)">
<stop stop-color="#0CC7BC"/>
<stop offset="1" stop-color="#0CC7BC" stop-opacity="0"/>
</radialGradient>
<radialGradient id="paint27_radial_366_3277" cx="0" cy="0" r="1" gradientUnits="userSpaceOnUse" gradientTransform="translate(13.5 172.5) rotate(90) scale(172.5 13.5)">
<stop stop-color="#0CC7BC"/>
<stop offset="1" stop-color="#0CC7BC" stop-opacity="0"/>
</radialGradient>
<radialGradient id="paint28_radial_366_3277" cx="0" cy="0" r="1" gradientUnits="userSpaceOnUse" gradientTransform="translate(13.5 172.5) rotate(90) scale(172.5 13.5)">
<stop stop-color="#0CC7BC"/>
<stop offset="1" stop-color="#0CC7BC" stop-opacity="0"/>
</radialGradient>
<radialGradient id="paint29_radial_366_3277" cx="0" cy="0" r="1" gradientUnits="userSpaceOnUse" gradientTransform="translate(13.5 172.5) rotate(90) scale(172.5 13.5)">
<stop stop-color="#0CC7BC"/>
<stop offset="1" stop-color="#0CC7BC" stop-opacity="0"/>
</radialGradient>
<radialGradient id="paint30_radial_366_3277" cx="0" cy="0" r="1" gradientUnits="userSpaceOnUse" gradientTransform="translate(13.5 172.5) rotate(90) scale(172.5 13.5)">
<stop stop-color="#0CC7BC"/>
<stop offset="1" stop-color="#0CC7BC" stop-opacity="0"/>
</radialGradient>
<radialGradient id="paint31_radial_366_3277" cx="0" cy="0" r="1" gradientUnits="userSpaceOnUse" gradientTransform="translate(13.5 172.5) rotate(90) scale(172.5 13.5)">
<stop stop-color="#0CC7BC"/>
<stop offset="1" stop-color="#0CC7BC" stop-opacity="0"/>
</radialGradient>
<radialGradient id="paint32_radial_366_3277" cx="0" cy="0" r="1" gradientUnits="userSpaceOnUse" gradientTransform="translate(13.5 172.5) rotate(90) scale(172.5 13.5)">
<stop stop-color="#0CC7BC"/>
<stop offset="1" stop-color="#0CC7BC" stop-opacity="0"/>
</radialGradient>
<radialGradient id="paint33_radial_366_3277" cx="0" cy="0" r="1" gradientUnits="userSpaceOnUse" gradientTransform="translate(13.5 172.5) rotate(90) scale(172.5 13.5)">
<stop stop-color="#0CC7BC"/>
<stop offset="1" stop-color="#0CC7BC" stop-opacity="0"/>
</radialGradient>
<radialGradient id="paint34_radial_366_3277" cx="0" cy="0" r="1" gradientUnits="userSpaceOnUse" gradientTransform="translate(13.5 172.5) rotate(90) scale(172.5 13.5)">
<stop stop-color="#0CC7BC"/>
<stop offset="1" stop-color="#0CC7BC" stop-opacity="0"/>
</radialGradient>
<radialGradient id="paint35_radial_366_3277" cx="0" cy="0" r="1" gradientUnits="userSpaceOnUse" gradientTransform="translate(13.5 172.5) rotate(90) scale(172.5 13.5)">
<stop stop-color="#0CC7BC"/>
<stop offset="1" stop-color="#0CC7BC" stop-opacity="0"/>
</radialGradient>
</defs>
</svg>
