<svg width="18" height="345" viewBox="0 0 18 345" fill="none" xmlns="http://www.w3.org/2000/svg">
<path d="M-6.65524 1.01731e-07L-8.99999 6.79847e-10L-9 115H-6.65524L-6.65524 1.01731e-07Z" fill="url(#paint0_radial_366_3276)"/>
<path d="M5.84251 3.35455H6.8273C8.46863 3.35455 9.79929 2.11474 9.79929 0.590813V2.99113e-07L7.45453 1.98062e-07V0.590813C7.45453 0.842275 7.16729 1.05456 6.8273 1.05456L5.84251 1.05456C5.50252 1.05456 5.20938 0.842274 5.20938 0.545781C5.20351 0.369223 5.20354 0.182633 5.20354 1.01051e-07L2.85878 0C2.85878 0.185475 2.85876 0.372679 2.86462 0.590813C2.86462 2.11474 4.20118 3.35455 5.84251 3.35455Z" fill="url(#paint1_radial_366_3276)"/>
<path d="M1.84465 6.93487L10.8251 6.93487C12.4664 6.93487 13.8029 5.69506 13.8029 4.16985V6.43926e-07L11.4582 5.42875e-07V4.16985C11.4582 4.42154 11.1709 4.63488 10.8251 4.63488H1.84465C1.4988 4.63488 1.21157 4.42154 1.21157 4.16985V1.0128e-07L-1.13318 2.28552e-10V4.16985C-1.13318 5.69506 0.203316 6.93487 1.84465 6.93487Z" fill="url(#paint2_radial_366_3276)"/>
<path d="M-2.35257 10.6902L15.0221 10.6902C16.6635 10.6902 18 9.45043 18 7.92651L18 1.00593e-06L15.6552 9.0488e-07V7.92651C15.6552 8.17797 15.3621 8.39025 15.0221 8.39025L-2.35257 8.39025C-2.69842 8.39025 -2.98565 8.17797 -2.98565 7.9265L-2.98565 1.0152e-07L-5.3304 4.68726e-10L-5.33041 7.9265C-5.33041 9.45043 -3.9939 10.6902 -2.35257 10.6902Z" fill="url(#paint3_radial_366_3276)"/>
<path d="M18 111.041C18 110.405 17.4724 109.891 16.8276 109.891C16.1769 109.891 15.6552 110.405 15.6552 111.041V114.999H18V111.041Z" fill="url(#paint4_radial_366_3276)"/>
<path d="M6.82726 108.365H1.84465C0.203319 108.365 -1.13318 109.605 -1.13318 111.129V114.999H1.21158V111.129C1.21158 110.878 1.4988 110.665 1.84465 110.665H6.82726C7.16725 110.665 7.4545 110.878 7.4545 111.129V114.999H9.79926V111.129C9.79926 109.605 8.4686 108.365 6.82726 108.365Z" fill="url(#paint5_radial_366_3276)"/>
<path d="M10.825 104.61H-2.35257C-3.9939 104.61 -5.33041 105.849 -5.33041 107.373L-5.33041 115H-2.98565L-2.98565 107.373C-2.98565 107.121 -2.69842 106.91 -2.35257 106.91H10.825C11.1709 106.91 11.4581 107.121 11.4581 107.373L11.4581 115H13.8029V107.373C13.8029 105.849 12.4664 104.61 10.825 104.61Z" fill="url(#paint6_radial_366_3276)"/>
<path d="M5.92462 114.236C6.56357 114.313 7.14974 113.867 7.23181 113.239C7.31388 112.611 6.86256 112.036 6.22361 111.955C5.75466 111.895 4.15433 111.771 3.34538 112.702C3.17539 112.893 2.853 113.276 2.85886 114.999H5.20362C5.20948 114.713 5.21534 114.438 5.23293 114.235C5.43223 114.211 5.70773 114.209 5.92462 114.236Z" fill="url(#paint7_radial_366_3276)"/>
<path d="M-5.33041 15.3733L-5.33041 30.9263C-5.33041 32.4503 -3.99391 33.6901 -2.35257 33.6901H15.0221C16.6635 33.6901 18 32.4503 18 30.9263V19.0411C18 18.4054 17.4724 17.891 16.8276 17.891C16.1769 17.891 15.6552 18.4054 15.6552 19.0411L15.6552 30.9263C15.6552 31.1778 15.3621 31.39 15.0221 31.39L-2.35257 31.39C-2.69843 31.39 -2.98565 31.1778 -2.98565 30.9263L-2.98565 15.3733C-2.98565 15.1216 -2.69842 14.9093 -2.35257 14.9093H10.825C11.1709 14.9093 11.4581 15.1216 11.4581 15.3733L11.4581 27.1697C11.4581 27.4211 11.1709 27.6346 10.825 27.6346H1.84458C1.49873 27.6346 1.21151 27.4211 1.21151 27.1697V19.1297C1.21151 18.8782 1.49873 18.6649 1.84458 18.6649L6.8272 18.6649C7.16718 18.6649 7.45443 18.8782 7.45443 19.1297V23.5906C7.45443 23.8421 7.16718 24.0543 6.8272 24.0543H5.84241C5.50242 24.0543 5.20928 23.8421 5.20928 23.5456C5.19169 23.0908 5.20344 22.5685 5.23275 22.235C5.43205 22.2115 5.70755 22.2091 5.92444 22.2361C6.56339 22.3136 7.14956 21.8678 7.23163 21.2388C7.3137 20.6088 6.86238 20.036 6.22343 19.9552C5.75448 19.8945 4.15415 19.7711 3.3452 20.7022C3.15762 20.9142 2.77659 21.3479 2.86452 23.5906C2.86452 25.1146 4.20108 26.3544 5.84241 26.3544H6.8272C8.46853 26.3544 9.79919 25.1146 9.79919 23.5906V19.1297C9.79919 17.6047 8.46853 16.3648 6.8272 16.3648L1.84458 16.3648C0.20325 16.3648 -1.13325 17.6047 -1.13325 19.1297V27.1697C-1.13325 28.6949 0.203249 29.9347 1.84458 29.9347H10.825C12.4664 29.9347 13.8029 28.6949 13.8029 27.1697V15.3733C13.8029 13.8493 12.4664 12.6093 10.825 12.6093L-2.35257 12.6093C-3.9939 12.6093 -5.33041 13.8493 -5.33041 15.3733Z" fill="url(#paint8_radial_366_3276)"/>
<path d="M-5.3304 38.3734L-5.3304 53.9265C-5.33041 55.4502 -3.9939 56.6902 -2.35257 56.6902L15.0221 56.6902C16.6635 56.6902 18 55.4502 18 53.9265L18 42.0411C18 41.4052 17.4724 40.8908 16.8276 40.8908C16.1769 40.8908 15.6552 41.4052 15.6552 42.0411V53.9265C15.6552 54.1778 15.3621 54.3902 15.0221 54.3902H-2.35257C-2.69842 54.3902 -2.98565 54.1778 -2.98565 53.9265L-2.98565 38.3734C-2.98565 38.1215 -2.69842 37.9092 -2.35257 37.9092H10.825C11.1709 37.9092 11.4581 38.1215 11.4581 38.3734V50.1696C11.4581 50.4215 11.1709 50.6344 10.825 50.6344H1.84458C1.49873 50.6344 1.21151 50.4215 1.21151 50.1696V42.1297C1.21151 41.8784 1.49873 41.6649 1.84458 41.6649H6.8272C7.16719 41.6649 7.45443 41.8784 7.45443 42.1297V46.5905C7.45443 46.8418 7.16719 47.0542 6.8272 47.0542H5.84241C5.50242 47.0542 5.20928 46.8418 5.20928 46.5454C5.19169 46.0928 5.20344 45.5673 5.23275 45.2351C5.43205 45.2117 5.70755 45.2095 5.92444 45.2362C6.56339 45.3137 7.14957 44.8678 7.23163 44.2386C7.3137 43.62 6.86238 43.0359 6.22343 42.9551C5.75448 42.8944 4.15415 42.7712 3.34521 43.7019C3.15763 43.9131 2.77659 44.3501 2.86452 46.5905C2.86452 48.1148 4.20108 49.3542 5.84241 49.3542H6.8272C8.46853 49.3542 9.79919 48.1148 9.79919 46.5905V42.1297C9.79919 40.6049 8.46853 39.3649 6.8272 39.3649H1.84458C0.203251 39.3649 -1.13325 40.6049 -1.13325 42.1297V50.1696C-1.13325 51.695 0.20325 52.9344 1.84458 52.9344H10.825C12.4664 52.9344 13.8029 51.695 13.8029 50.1696V38.3734C13.8029 36.8492 12.4664 35.6094 10.825 35.6094H-2.35257C-3.9939 35.6094 -5.3304 36.8492 -5.3304 38.3734Z" fill="url(#paint9_radial_366_3276)"/>
<path d="M-5.33041 61.3732L-5.33041 76.9263C-5.33041 78.45 -3.9939 79.69 -2.35257 79.69H15.0221C16.6635 79.69 18 78.45 18 76.9263V65.0409C18 64.405 17.4724 63.8912 16.8276 63.8912C16.1769 63.8912 15.6552 64.405 15.6552 65.0409L15.6552 76.9263C15.6552 77.1776 15.3621 77.39 15.0221 77.39H-2.35257C-2.69843 77.39 -2.98565 77.1776 -2.98565 76.9263L-2.98565 61.3732C-2.98565 61.1213 -2.69842 60.909 -2.35257 60.909H10.825C11.1709 60.909 11.4581 61.1213 11.4581 61.3732L11.4581 73.1694C11.4581 73.4213 11.1709 73.6342 10.825 73.6342H1.84458C1.49873 73.6342 1.21151 73.4213 1.21151 73.1694V65.1295C1.21151 64.8782 1.49873 64.6647 1.84458 64.6647H6.8272C7.16718 64.6647 7.45443 64.8782 7.45443 65.1295V69.5903C7.45443 69.8416 7.16718 70.054 6.8272 70.054H5.84241C5.50242 70.054 5.20928 69.8416 5.20928 69.5457C5.19169 69.0904 5.20344 68.5659 5.23275 68.2349C5.43205 68.2115 5.70755 68.2093 5.92444 68.236C6.56339 68.3135 7.14956 67.8676 7.23163 67.239C7.3137 66.6176 6.86238 66.0357 6.22343 65.9549C5.75448 65.8942 4.15415 65.771 3.3452 66.7017C3.15762 66.9129 2.77659 67.3521 2.86452 69.5903C2.86452 71.1146 4.20108 72.354 5.84241 72.354H6.8272C8.46853 72.354 9.79919 71.1146 9.79919 69.5903V65.1295C9.79919 63.6047 8.46853 62.3647 6.8272 62.3647H1.84458C0.20325 62.3647 -1.13325 63.6047 -1.13325 65.1295V73.1694C-1.13325 74.6948 0.203249 75.9342 1.84458 75.9342H10.825C12.4664 75.9342 13.8029 74.6948 13.8029 73.1694V61.3732C13.8029 59.8489 12.4664 58.6095 10.825 58.6095H-2.35257C-3.9939 58.6095 -5.33041 59.8489 -5.33041 61.3732Z" fill="url(#paint10_radial_366_3276)"/>
<path d="M-5.3304 84.3728L-5.3304 99.9258C-5.33041 101.45 -3.9939 102.69 -2.35257 102.69L15.0221 102.69C16.6635 102.69 18 101.45 18 99.9258V88.0405C18 87.4046 17.4724 86.8907 16.8276 86.8907C16.1769 86.8907 15.6552 87.4046 15.6552 88.0405V99.9258C15.6552 100.177 15.3621 100.39 15.0221 100.39H-2.35257C-2.69842 100.39 -2.98565 100.177 -2.98565 99.9258L-2.98565 84.3728C-2.98565 84.1209 -2.69842 83.9091 -2.35257 83.9091H10.825C11.1709 83.9091 11.4581 84.1209 11.4581 84.3728V96.1689C11.4581 96.4209 11.1709 96.6338 10.825 96.6338H1.84458C1.49873 96.6338 1.21151 96.4209 1.21151 96.1689V88.1291C1.21151 87.8777 1.49873 87.6643 1.84458 87.6643H6.8272C7.16719 87.6643 7.45443 87.8777 7.45443 88.1291V92.5899C7.45443 92.8418 7.16719 93.0535 6.8272 93.0535H5.84241C5.50242 93.0535 5.20928 92.8418 5.20928 92.5453C5.19169 92.0888 5.20344 91.5666 5.23275 91.2345C5.43205 91.2111 5.70755 91.2088 5.92444 91.2356C6.56339 91.313 7.14957 90.8672 7.23163 90.2385C7.3137 89.6149 6.86238 89.0353 6.22343 88.9545C5.75448 88.8937 4.15415 88.7706 3.34521 89.7013C3.15763 89.9136 2.77659 90.3539 2.86452 92.5899C2.86452 94.1141 4.20108 95.3536 5.84241 95.3536H6.8272C8.46853 95.3536 9.79919 94.1141 9.79919 92.5899V88.1291C9.79919 86.6043 8.46853 85.3642 6.8272 85.3642H1.84458C0.203251 85.3642 -1.13325 86.6043 -1.13325 88.1291V96.1689C-1.13325 97.6943 0.20325 98.9338 1.84458 98.9338H10.825C12.4664 98.9338 13.8029 97.6943 13.8029 96.1689V84.3728C13.8029 82.8485 12.4664 81.609 10.825 81.609H-2.35257C-3.9939 81.609 -5.3304 82.8485 -5.3304 84.3728Z" fill="url(#paint11_radial_366_3276)"/>
<path d="M-6.65524 115H-9L-8.99994 230H-6.65518L-6.65524 115Z" fill="url(#paint12_radial_366_3276)"/>
<path d="M5.84251 118.354H6.8273C8.46863 118.354 9.79929 117.115 9.79929 115.591L9.79926 114.999H7.4545L7.45453 115.591C7.45453 115.843 7.16729 116.054 6.8273 116.054H5.84251C5.50252 116.054 5.20938 115.843 5.20938 115.546C5.20351 115.369 5.20362 115.182 5.20362 114.999H2.85886C2.85886 115.185 2.85876 115.373 2.86462 115.591C2.86462 117.115 4.20118 118.354 5.84251 118.354Z" fill="url(#paint13_radial_366_3276)"/>
<path d="M1.84458 121.935H10.825C12.4664 121.935 13.8029 120.695 13.8029 119.17L13.8029 115H11.4581L11.4581 119.17C11.4581 119.422 11.1709 119.635 10.825 119.635H1.84458C1.49873 119.635 1.21151 119.422 1.21151 119.17L1.21158 114.999H-1.13318L-1.13325 119.17C-1.13325 120.695 0.203251 121.935 1.84458 121.935Z" fill="url(#paint14_radial_366_3276)"/>
<path d="M-2.35257 125.69H15.0221C16.6635 125.69 18 124.45 18 122.927L18 114.999H15.6552L15.6552 122.927C15.6552 123.178 15.3621 123.39 15.0221 123.39H-2.35257C-2.69843 123.39 -2.98565 123.178 -2.98565 122.927V115H-5.33041L-5.33041 122.927C-5.33041 124.45 -3.9939 125.69 -2.35257 125.69Z" fill="url(#paint15_radial_366_3276)"/>
<path d="M17.9999 226.041C17.9999 225.405 17.4724 224.891 16.8276 224.891C16.1769 224.891 15.6552 225.405 15.6552 226.041V229.999H17.9999V226.041Z" fill="url(#paint16_radial_366_3276)"/>
<path d="M6.8273 223.364H1.84468C0.20335 223.364 -1.13315 224.604 -1.13315 226.129V229.999H1.21161V226.129C1.21161 225.878 1.49883 225.664 1.84468 225.664H6.8273C7.16729 225.664 7.45453 225.878 7.45453 226.129V229.999H9.79929V226.129C9.79929 224.604 8.46863 223.364 6.8273 223.364Z" fill="url(#paint17_radial_366_3276)"/>
<path d="M10.825 219.61H-2.35257C-3.9939 219.61 -5.3304 220.85 -5.3304 222.373L-5.3304 230H-2.98565L-2.98565 222.373C-2.98565 222.122 -2.69842 221.91 -2.35257 221.91H10.825C11.1709 221.91 11.4581 222.122 11.4581 222.373V230H13.8029L13.8029 222.373C13.8029 220.85 12.4664 219.61 10.825 219.61Z" fill="url(#paint18_radial_366_3276)"/>
<path d="M5.92462 229.236C6.56357 229.313 7.14974 228.867 7.23181 228.238C7.31388 227.61 6.86256 227.036 6.22361 226.955C5.75466 226.894 4.15433 226.771 3.34538 227.702C3.17539 227.893 2.853 228.276 2.85886 229.999H5.20362C5.20948 229.713 5.21534 229.437 5.23293 229.234C5.43223 229.211 5.70773 229.209 5.92462 229.236Z" fill="url(#paint19_radial_366_3276)"/>
<path d="M-5.3304 130.373L-5.3304 145.926C-5.33041 147.45 -3.9939 148.69 -2.35257 148.69H15.0221C16.6635 148.69 18 147.45 18 145.926V134.041C18 133.406 17.4724 132.891 16.8276 132.891C16.1769 132.891 15.6552 133.406 15.6552 134.041V145.926C15.6552 146.178 15.3621 146.39 15.0221 146.39H-2.35257C-2.69842 146.39 -2.98565 146.178 -2.98565 145.926L-2.98565 130.373C-2.98565 130.122 -2.69842 129.91 -2.35257 129.91H10.825C11.1709 129.91 11.4581 130.122 11.4581 130.373V142.17C11.4581 142.422 11.1709 142.635 10.825 142.635H1.84458C1.49873 142.635 1.21151 142.422 1.21151 142.17V134.13C1.21151 133.878 1.49873 133.665 1.84458 133.665H6.8272C7.16719 133.665 7.45443 133.878 7.45443 134.13V138.591C7.45443 138.842 7.16719 139.054 6.8272 139.054H5.84241C5.50242 139.054 5.20928 138.842 5.20928 138.546C5.19169 138.091 5.20344 137.569 5.23275 137.235C5.43205 137.212 5.70755 137.21 5.92444 137.236C6.56339 137.314 7.14957 136.868 7.23163 136.239C7.3137 135.609 6.86238 135.036 6.22343 134.955C5.75448 134.895 4.15415 134.771 3.34521 135.702C3.15763 135.914 2.77659 136.348 2.86452 138.591C2.86452 140.115 4.20108 141.354 5.84241 141.354H6.8272C8.46853 141.354 9.79919 140.115 9.79919 138.591V134.13C9.79919 132.605 8.46853 131.365 6.8272 131.365H1.84458C0.203251 131.365 -1.13325 132.605 -1.13325 134.13V142.17C-1.13325 143.695 0.20325 144.934 1.84458 144.934H10.825C12.4664 144.934 13.8029 143.695 13.8029 142.17V130.373C13.8029 128.849 12.4664 127.61 10.825 127.61H-2.35257C-3.9939 127.61 -5.3304 128.849 -5.3304 130.373Z" fill="url(#paint20_radial_366_3276)"/>
<path d="M-5.33041 153.373L-5.33041 168.926C-5.33041 170.45 -3.9939 171.69 -2.35257 171.69H15.0221C16.6635 171.69 18 170.45 18 168.926V157.041C18 156.405 17.4724 155.891 16.8276 155.891C16.1769 155.891 15.6552 156.405 15.6552 157.041L15.6552 168.926C15.6552 169.177 15.3621 169.39 15.0221 169.39H-2.35257C-2.69843 169.39 -2.98565 169.177 -2.98565 168.926L-2.98565 153.373C-2.98565 153.122 -2.69842 152.909 -2.35257 152.909H10.825C11.1709 152.909 11.4581 153.122 11.4581 153.373L11.4581 165.169C11.4581 165.421 11.1709 165.635 10.825 165.635H1.84458C1.49873 165.635 1.21151 165.421 1.21151 165.169V157.129C1.21151 156.878 1.49873 156.665 1.84458 156.665H6.8272C7.16718 156.665 7.45443 156.878 7.45443 157.129V161.59C7.45443 161.842 7.16718 162.054 6.8272 162.054H5.84241C5.50242 162.054 5.20928 161.842 5.20928 161.546C5.19169 161.093 5.20344 160.567 5.23275 160.235C5.43205 160.211 5.70755 160.209 5.92444 160.236C6.56339 160.313 7.14956 159.867 7.23163 159.239C7.3137 158.62 6.86238 158.036 6.22343 157.955C5.75448 157.895 4.15415 157.771 3.3452 158.702C3.15762 158.913 2.77659 159.35 2.86452 161.59C2.86452 163.114 4.20108 164.354 5.84241 164.354H6.8272C8.46853 164.354 9.79919 163.114 9.79919 161.59V157.129C9.79919 155.605 8.46853 154.364 6.8272 154.364H1.84458C0.20325 154.364 -1.13325 155.605 -1.13325 157.129V165.169C-1.13325 166.695 0.203249 167.935 1.84458 167.935H10.825C12.4664 167.935 13.8029 166.695 13.8029 165.169V153.373C13.8029 151.849 12.4664 150.609 10.825 150.609H-2.35257C-3.9939 150.609 -5.33041 151.849 -5.33041 153.373Z" fill="url(#paint21_radial_366_3276)"/>
<path d="M-5.3304 176.373L-5.3304 191.926C-5.33041 193.45 -3.9939 194.69 -2.35257 194.69H15.0221C16.6635 194.69 18 193.45 18 191.926V180.041C18 179.405 17.4724 178.891 16.8276 178.891C16.1769 178.891 15.6552 179.405 15.6552 180.041V191.926C15.6552 192.178 15.3621 192.39 15.0221 192.39H-2.35257C-2.69842 192.39 -2.98565 192.178 -2.98565 191.926L-2.98565 176.373C-2.98565 176.122 -2.69842 175.909 -2.35257 175.909H10.825C11.1709 175.909 11.4581 176.122 11.4581 176.373V188.169C11.4581 188.421 11.1709 188.635 10.825 188.635H1.84458C1.49873 188.635 1.21151 188.421 1.21151 188.169V180.129C1.21151 179.878 1.49873 179.665 1.84458 179.665H6.8272C7.16719 179.665 7.45443 179.878 7.45443 180.129V184.59C7.45443 184.842 7.16719 185.054 6.8272 185.054H5.84241C5.50242 185.054 5.20928 184.842 5.20928 184.546C5.19169 184.091 5.20344 183.566 5.23275 183.235C5.43205 183.211 5.70755 183.209 5.92444 183.236C6.56339 183.313 7.14957 182.868 7.23163 182.239C7.3137 181.617 6.86238 181.036 6.22343 180.955C5.75448 180.895 4.15415 180.771 3.34521 181.702C3.15763 181.913 2.77659 182.352 2.86452 184.59C2.86452 186.114 4.20108 187.354 5.84241 187.354H6.8272C8.46853 187.354 9.79919 186.114 9.79919 184.59V180.129C9.79919 178.605 8.46853 177.365 6.8272 177.365H1.84458C0.203251 177.365 -1.13325 178.605 -1.13325 180.129L-1.13325 188.169C-1.13325 189.695 0.20325 190.935 1.84458 190.935H10.825C12.4664 190.935 13.8029 189.695 13.8029 188.169V176.373C13.8029 174.849 12.4664 173.609 10.825 173.609H-2.35257C-3.9939 173.609 -5.3304 174.849 -5.3304 176.373Z" fill="url(#paint22_radial_366_3276)"/>
<path d="M-5.33041 199.373L-5.33041 214.926C-5.33041 216.45 -3.9939 217.69 -2.35257 217.69H15.0221C16.6635 217.69 18 216.45 18 214.926V203.041C18 202.406 17.4724 201.891 16.8276 201.891C16.1769 201.891 15.6552 202.406 15.6552 203.041L15.6552 214.926C15.6552 215.178 15.3621 215.39 15.0221 215.39H-2.35257C-2.69843 215.39 -2.98565 215.178 -2.98565 214.926L-2.98565 199.373C-2.98565 199.122 -2.69842 198.909 -2.35257 198.909H10.825C11.1709 198.909 11.4581 199.122 11.4581 199.373L11.4581 211.17C11.4581 211.421 11.1709 211.635 10.825 211.635H1.84458C1.49873 211.635 1.21151 211.421 1.21151 211.17V203.129C1.21151 202.878 1.49873 202.665 1.84458 202.665H6.8272C7.16718 202.665 7.45443 202.878 7.45443 203.129V207.59C7.45443 207.842 7.16718 208.055 6.8272 208.055H5.84241C5.50242 208.055 5.20928 207.842 5.20928 207.546C5.19169 207.09 5.20344 206.568 5.23275 206.235C5.43205 206.211 5.70755 206.209 5.92444 206.236C6.56339 206.313 7.14956 205.868 7.23163 205.239C7.3137 204.615 6.86238 204.036 6.22343 203.955C5.75448 203.895 4.15415 203.771 3.3452 204.702C3.15762 204.915 2.77659 205.354 2.86452 207.59C2.86452 209.115 4.20108 210.354 5.84241 210.354H6.8272C8.46853 210.354 9.79919 209.115 9.79919 207.59V203.129C9.79919 201.605 8.46853 200.365 6.8272 200.365H1.84458C0.20325 200.365 -1.13325 201.605 -1.13325 203.129L-1.13325 211.17C-1.13325 212.695 0.203249 213.935 1.84458 213.935H10.825C12.4664 213.935 13.8029 212.695 13.8029 211.17V199.373C13.8029 197.849 12.4664 196.609 10.825 196.609H-2.35257C-3.9939 196.609 -5.33041 197.849 -5.33041 199.373Z" fill="url(#paint23_radial_366_3276)"/>
<path d="M-6.65518 230H-8.99994L-8.99997 344.999H-6.65521L-6.65518 230Z" fill="url(#paint24_radial_366_3276)"/>
<path d="M5.84251 233.354H6.8273C8.46863 233.354 9.79929 232.114 9.79929 230.59V229.999H7.45453V230.59C7.45453 230.842 7.16729 231.054 6.8273 231.054H5.84251C5.50252 231.054 5.20938 230.842 5.20938 230.545C5.20351 230.369 5.20362 230.182 5.20362 229.999H2.85886C2.85886 230.185 2.85876 230.372 2.86462 230.59C2.86462 232.114 4.20118 233.354 5.84251 233.354Z" fill="url(#paint25_radial_366_3276)"/>
<path d="M1.84468 236.935H10.8251C12.4665 236.935 13.803 235.694 13.803 234.17L13.8029 230H11.4581L11.4582 234.17C11.4582 234.421 11.171 234.634 10.8251 234.634H1.84468C1.49883 234.634 1.21161 234.421 1.21161 234.17V229.999H-1.13315V234.17C-1.13315 235.694 0.203349 236.935 1.84468 236.935Z" fill="url(#paint26_radial_366_3276)"/>
<path d="M-2.35257 240.69L15.0221 240.69C16.6635 240.69 18 239.45 18 237.926L17.9999 229.999H15.6552L15.6552 237.926C15.6552 238.177 15.3621 238.39 15.0221 238.39L-2.35257 238.39C-2.69842 238.39 -2.98565 238.177 -2.98565 237.926V230H-5.3304L-5.3304 237.926C-5.33041 239.45 -3.9939 240.69 -2.35257 240.69Z" fill="url(#paint27_radial_366_3276)"/>
<path d="M18 341.041C18 340.405 17.4724 339.891 16.8276 339.891C16.1769 339.891 15.6552 340.405 15.6552 341.041V345H18V341.041Z" fill="url(#paint28_radial_366_3276)"/>
<path d="M6.82726 338.365H1.84465C0.203319 338.365 -1.13318 339.604 -1.13318 341.13L-1.13318 345H1.21158V341.13C1.21158 340.878 1.4988 340.665 1.84465 340.665H6.82726C7.16725 340.665 7.4545 340.878 7.4545 341.13V345H9.79926V341.13C9.79926 339.604 8.4686 338.365 6.82726 338.365Z" fill="url(#paint29_radial_366_3276)"/>
<path d="M10.825 334.608H-2.35261C-3.99394 334.608 -5.33044 335.848 -5.33044 337.372L-5.33044 344.999H-2.98568L-2.98568 337.372C-2.98568 337.121 -2.69846 336.908 -2.35261 336.908L10.825 336.908C11.1708 336.908 11.4581 337.121 11.4581 337.372L11.4581 344.999H13.8028V337.372C13.8028 335.848 12.4663 334.608 10.825 334.608Z" fill="url(#paint30_radial_366_3276)"/>
<path d="M5.92459 344.236C6.56353 344.314 7.14971 343.868 7.23178 343.239C7.31384 342.611 6.86252 342.036 6.22358 341.955C5.75463 341.895 4.15429 341.771 3.34535 342.702C3.17536 342.894 2.85296 343.277 2.85882 345H5.20358C5.20945 344.714 5.21531 344.438 5.23289 344.235C5.4322 344.211 5.7077 344.209 5.92459 344.236Z" fill="url(#paint31_radial_366_3276)"/>
<path d="M-5.33041 245.373L-5.33041 260.926C-5.33041 262.45 -3.9939 263.69 -2.35257 263.69H15.0221C16.6635 263.69 18 262.45 18 260.926V249.041C18 248.405 17.4724 247.891 16.8276 247.891C16.1769 247.891 15.6552 248.405 15.6552 249.041L15.6552 260.926C15.6552 261.177 15.3621 261.39 15.0221 261.39H-2.35257C-2.69843 261.39 -2.98565 261.177 -2.98565 260.926L-2.98565 245.373C-2.98565 245.121 -2.69842 244.909 -2.35257 244.909H10.825C11.1709 244.909 11.4581 245.121 11.4581 245.373L11.4581 257.17C11.4581 257.421 11.1709 257.634 10.825 257.634H1.84458C1.49873 257.634 1.21151 257.421 1.21151 257.17V249.13C1.21151 248.878 1.49873 248.664 1.84458 248.664H6.8272C7.16718 248.664 7.45443 248.878 7.45443 249.13V253.59C7.45443 253.842 7.16718 254.054 6.8272 254.054H5.84241C5.50242 254.054 5.20928 253.842 5.20928 253.545C5.19169 253.091 5.20344 252.568 5.23275 252.234C5.43205 252.211 5.70755 252.209 5.92444 252.236C6.56339 252.313 7.14956 251.867 7.23163 251.239C7.3137 250.608 6.86238 250.036 6.22343 249.955C5.75448 249.894 4.15415 249.771 3.3452 250.702C3.15762 250.914 2.77659 251.347 2.86452 253.59C2.86452 255.114 4.20108 256.354 5.84241 256.354H6.8272C8.46853 256.354 9.79919 255.114 9.79919 253.59V249.13C9.79919 247.604 8.46853 246.364 6.8272 246.364H1.84458C0.20325 246.364 -1.13325 247.604 -1.13325 249.13L-1.13325 257.17C-1.13325 258.694 0.203249 259.934 1.84458 259.934H10.825C12.4664 259.934 13.8029 258.694 13.8029 257.17V245.373C13.8029 243.849 12.4664 242.609 10.825 242.609H-2.35257C-3.9939 242.609 -5.33041 243.849 -5.33041 245.373Z" fill="url(#paint32_radial_366_3276)"/>
<path d="M-5.3304 268.373L-5.3304 283.926C-5.33041 285.45 -3.9939 286.69 -2.35257 286.69H15.0221C16.6635 286.69 18 285.45 18 283.926V272.041C18 271.405 17.4724 270.891 16.8276 270.891C16.1769 270.891 15.6552 271.405 15.6552 272.041V283.926C15.6552 284.177 15.3621 284.39 15.0221 284.39H-2.35257C-2.69842 284.39 -2.98565 284.177 -2.98565 283.926L-2.98565 268.373C-2.98565 268.122 -2.69842 267.909 -2.35257 267.909H10.825C11.1709 267.909 11.4581 268.122 11.4581 268.373V280.17C11.4581 280.421 11.1709 280.634 10.825 280.634H1.84458C1.49873 280.634 1.21151 280.421 1.21151 280.17V272.13C1.21151 271.878 1.49873 271.664 1.84458 271.664H6.8272C7.16719 271.664 7.45443 271.878 7.45443 272.13V276.591C7.45443 276.842 7.16719 277.054 6.8272 277.054H5.84241C5.50242 277.054 5.20928 276.842 5.20928 276.545C5.19169 276.093 5.20344 275.567 5.23275 275.235C5.43205 275.211 5.70755 275.209 5.92444 275.236C6.56339 275.313 7.14957 274.867 7.23163 274.239C7.3137 273.62 6.86238 273.036 6.22343 272.955C5.75448 272.894 4.15415 272.771 3.34521 273.702C3.15763 273.913 2.77659 274.35 2.86452 276.591C2.86452 278.114 4.20108 279.354 5.84241 279.354H6.8272C8.46853 279.354 9.79919 278.114 9.79919 276.591V272.13C9.79919 270.604 8.46853 269.364 6.8272 269.364H1.84458C0.203251 269.364 -1.13325 270.604 -1.13325 272.13L-1.13325 280.17C-1.13325 281.694 0.20325 282.935 1.84458 282.935H10.825C12.4664 282.935 13.8029 281.694 13.8029 280.17V268.373C13.8029 266.849 12.4664 265.609 10.825 265.609H-2.35257C-3.9939 265.609 -5.3304 266.849 -5.3304 268.373Z" fill="url(#paint33_radial_366_3276)"/>
<path d="M-5.33044 291.373L-5.33044 306.926C-5.33044 308.45 -3.99394 309.69 -2.35261 309.69H15.0221C16.6634 309.69 17.9999 308.45 17.9999 306.926V295.041C17.9999 294.405 17.4723 293.891 16.8275 293.891C16.1769 293.891 15.6552 294.405 15.6552 295.041L15.6552 306.926C15.6552 307.178 15.3621 307.39 15.0221 307.39H-2.35261C-2.69846 307.39 -2.98568 307.178 -2.98568 306.926L-2.98568 291.373C-2.98568 291.122 -2.69846 290.909 -2.35261 290.909L10.825 290.909C11.1708 290.909 11.4581 291.122 11.4581 291.373L11.4581 303.17C11.4581 303.421 11.1708 303.635 10.825 303.635H1.84455C1.4987 303.635 1.21147 303.421 1.21147 303.17V295.13C1.21147 294.878 1.4987 294.664 1.84455 294.664H6.82716C7.16715 294.664 7.4544 294.878 7.4544 295.13V299.591C7.4544 299.842 7.16715 300.054 6.82716 300.054H5.84237C5.50238 300.054 5.20924 299.842 5.20924 299.545C5.19166 299.091 5.2034 298.566 5.23271 298.235C5.43202 298.211 5.70752 298.209 5.92441 298.236C6.56335 298.313 7.14953 297.867 7.2316 297.239C7.31367 296.618 6.86234 296.036 6.2234 295.955C5.75445 295.895 4.15411 295.771 3.34517 296.702C3.15759 296.913 2.77656 297.352 2.86448 299.591C2.86448 301.114 4.20104 302.354 5.84237 302.354H6.82716C8.46849 302.354 9.79916 301.114 9.79916 299.591V295.13C9.79916 293.604 8.46849 292.364 6.82716 292.364H1.84455C0.203218 292.364 -1.13328 293.604 -1.13328 295.13L-1.13329 303.17C-1.13329 304.695 0.203217 305.935 1.84455 305.935H10.825C12.4663 305.935 13.8028 304.695 13.8028 303.17V291.373C13.8028 289.849 12.4663 288.609 10.825 288.609H-2.3526C-3.99394 288.609 -5.33044 289.849 -5.33044 291.373Z" fill="url(#paint34_radial_366_3276)"/>
<path d="M-5.33044 314.373L-5.33044 329.926C-5.33044 331.45 -3.99394 332.69 -2.3526 332.69H15.0221C16.6634 332.69 17.9999 331.45 17.9999 329.926V318.041C17.9999 317.405 17.4723 316.891 16.8275 316.891C16.1769 316.891 15.6552 317.405 15.6552 318.041V329.926C15.6552 330.178 15.3621 330.39 15.0221 330.39H-2.3526C-2.69846 330.39 -2.98568 330.178 -2.98568 329.926L-2.98568 314.373C-2.98568 314.122 -2.69846 313.909 -2.3526 313.909L10.825 313.909C11.1708 313.909 11.4581 314.122 11.4581 314.373V326.17C11.4581 326.421 11.1708 326.635 10.825 326.635H1.84455C1.4987 326.635 1.21148 326.421 1.21148 326.17V318.13C1.21148 317.878 1.4987 317.665 1.84455 317.665H6.82716C7.16715 317.665 7.4544 317.878 7.4544 318.13V322.591C7.4544 322.842 7.16715 323.054 6.82716 323.054H5.84238C5.50239 323.054 5.20924 322.842 5.20924 322.546C5.19166 322.09 5.20341 321.567 5.23272 321.235C5.43202 321.211 5.70752 321.209 5.92441 321.236C6.56336 321.313 7.14953 320.867 7.2316 320.239C7.31367 319.616 6.86235 319.036 6.2234 318.955C5.75445 318.895 4.15411 318.771 3.34517 319.702C3.15759 319.914 2.77656 320.355 2.86449 322.591C2.86448 324.114 4.20104 325.354 5.84238 325.354H6.82716C8.46849 325.354 9.79916 324.114 9.79916 322.591V318.13C9.79916 316.605 8.46849 315.365 6.82716 315.365H1.84455C0.203218 315.365 -1.13328 316.605 -1.13328 318.13L-1.13328 326.17C-1.13328 327.695 0.203218 328.935 1.84455 328.935H10.825C12.4663 328.935 13.8028 327.695 13.8028 326.17V314.373C13.8028 312.849 12.4663 311.609 10.825 311.609H-2.3526C-3.99394 311.609 -5.33044 312.849 -5.33044 314.373Z" fill="url(#paint35_radial_366_3276)"/>
<defs>
<radialGradient id="paint0_radial_366_3276" cx="0" cy="0" r="1" gradientUnits="userSpaceOnUse" gradientTransform="translate(4.5 172.5) rotate(90) scale(172.5 13.5)">
<stop stop-color="#0CC7BC"/>
<stop offset="1" stop-color="#0CC7BC" stop-opacity="0"/>
</radialGradient>
<radialGradient id="paint1_radial_366_3276" cx="0" cy="0" r="1" gradientUnits="userSpaceOnUse" gradientTransform="translate(4.5 172.5) rotate(90) scale(172.5 13.5)">
<stop stop-color="#0CC7BC"/>
<stop offset="1" stop-color="#0CC7BC" stop-opacity="0"/>
</radialGradient>
<radialGradient id="paint2_radial_366_3276" cx="0" cy="0" r="1" gradientUnits="userSpaceOnUse" gradientTransform="translate(4.5 172.5) rotate(90) scale(172.5 13.5)">
<stop stop-color="#0CC7BC"/>
<stop offset="1" stop-color="#0CC7BC" stop-opacity="0"/>
</radialGradient>
<radialGradient id="paint3_radial_366_3276" cx="0" cy="0" r="1" gradientUnits="userSpaceOnUse" gradientTransform="translate(4.5 172.5) rotate(90) scale(172.5 13.5)">
<stop stop-color="#0CC7BC"/>
<stop offset="1" stop-color="#0CC7BC" stop-opacity="0"/>
</radialGradient>
<radialGradient id="paint4_radial_366_3276" cx="0" cy="0" r="1" gradientUnits="userSpaceOnUse" gradientTransform="translate(4.5 172.5) rotate(90) scale(172.5 13.5)">
<stop stop-color="#0CC7BC"/>
<stop offset="1" stop-color="#0CC7BC" stop-opacity="0"/>
</radialGradient>
<radialGradient id="paint5_radial_366_3276" cx="0" cy="0" r="1" gradientUnits="userSpaceOnUse" gradientTransform="translate(4.5 172.5) rotate(90) scale(172.5 13.5)">
<stop stop-color="#0CC7BC"/>
<stop offset="1" stop-color="#0CC7BC" stop-opacity="0"/>
</radialGradient>
<radialGradient id="paint6_radial_366_3276" cx="0" cy="0" r="1" gradientUnits="userSpaceOnUse" gradientTransform="translate(4.5 172.5) rotate(90) scale(172.5 13.5)">
<stop stop-color="#0CC7BC"/>
<stop offset="1" stop-color="#0CC7BC" stop-opacity="0"/>
</radialGradient>
<radialGradient id="paint7_radial_366_3276" cx="0" cy="0" r="1" gradientUnits="userSpaceOnUse" gradientTransform="translate(4.5 172.5) rotate(90) scale(172.5 13.5)">
<stop stop-color="#0CC7BC"/>
<stop offset="1" stop-color="#0CC7BC" stop-opacity="0"/>
</radialGradient>
<radialGradient id="paint8_radial_366_3276" cx="0" cy="0" r="1" gradientUnits="userSpaceOnUse" gradientTransform="translate(4.5 172.5) rotate(90) scale(172.5 13.5)">
<stop stop-color="#0CC7BC"/>
<stop offset="1" stop-color="#0CC7BC" stop-opacity="0"/>
</radialGradient>
<radialGradient id="paint9_radial_366_3276" cx="0" cy="0" r="1" gradientUnits="userSpaceOnUse" gradientTransform="translate(4.5 172.5) rotate(90) scale(172.5 13.5)">
<stop stop-color="#0CC7BC"/>
<stop offset="1" stop-color="#0CC7BC" stop-opacity="0"/>
</radialGradient>
<radialGradient id="paint10_radial_366_3276" cx="0" cy="0" r="1" gradientUnits="userSpaceOnUse" gradientTransform="translate(4.5 172.5) rotate(90) scale(172.5 13.5)">
<stop stop-color="#0CC7BC"/>
<stop offset="1" stop-color="#0CC7BC" stop-opacity="0"/>
</radialGradient>
<radialGradient id="paint11_radial_366_3276" cx="0" cy="0" r="1" gradientUnits="userSpaceOnUse" gradientTransform="translate(4.5 172.5) rotate(90) scale(172.5 13.5)">
<stop stop-color="#0CC7BC"/>
<stop offset="1" stop-color="#0CC7BC" stop-opacity="0"/>
</radialGradient>
<radialGradient id="paint12_radial_366_3276" cx="0" cy="0" r="1" gradientUnits="userSpaceOnUse" gradientTransform="translate(4.5 172.5) rotate(90) scale(172.5 13.5)">
<stop stop-color="#0CC7BC"/>
<stop offset="1" stop-color="#0CC7BC" stop-opacity="0"/>
</radialGradient>
<radialGradient id="paint13_radial_366_3276" cx="0" cy="0" r="1" gradientUnits="userSpaceOnUse" gradientTransform="translate(4.5 172.5) rotate(90) scale(172.5 13.5)">
<stop stop-color="#0CC7BC"/>
<stop offset="1" stop-color="#0CC7BC" stop-opacity="0"/>
</radialGradient>
<radialGradient id="paint14_radial_366_3276" cx="0" cy="0" r="1" gradientUnits="userSpaceOnUse" gradientTransform="translate(4.5 172.5) rotate(90) scale(172.5 13.5)">
<stop stop-color="#0CC7BC"/>
<stop offset="1" stop-color="#0CC7BC" stop-opacity="0"/>
</radialGradient>
<radialGradient id="paint15_radial_366_3276" cx="0" cy="0" r="1" gradientUnits="userSpaceOnUse" gradientTransform="translate(4.5 172.5) rotate(90) scale(172.5 13.5)">
<stop stop-color="#0CC7BC"/>
<stop offset="1" stop-color="#0CC7BC" stop-opacity="0"/>
</radialGradient>
<radialGradient id="paint16_radial_366_3276" cx="0" cy="0" r="1" gradientUnits="userSpaceOnUse" gradientTransform="translate(4.5 172.5) rotate(90) scale(172.5 13.5)">
<stop stop-color="#0CC7BC"/>
<stop offset="1" stop-color="#0CC7BC" stop-opacity="0"/>
</radialGradient>
<radialGradient id="paint17_radial_366_3276" cx="0" cy="0" r="1" gradientUnits="userSpaceOnUse" gradientTransform="translate(4.5 172.5) rotate(90) scale(172.5 13.5)">
<stop stop-color="#0CC7BC"/>
<stop offset="1" stop-color="#0CC7BC" stop-opacity="0"/>
</radialGradient>
<radialGradient id="paint18_radial_366_3276" cx="0" cy="0" r="1" gradientUnits="userSpaceOnUse" gradientTransform="translate(4.5 172.5) rotate(90) scale(172.5 13.5)">
<stop stop-color="#0CC7BC"/>
<stop offset="1" stop-color="#0CC7BC" stop-opacity="0"/>
</radialGradient>
<radialGradient id="paint19_radial_366_3276" cx="0" cy="0" r="1" gradientUnits="userSpaceOnUse" gradientTransform="translate(4.5 172.5) rotate(90) scale(172.5 13.5)">
<stop stop-color="#0CC7BC"/>
<stop offset="1" stop-color="#0CC7BC" stop-opacity="0"/>
</radialGradient>
<radialGradient id="paint20_radial_366_3276" cx="0" cy="0" r="1" gradientUnits="userSpaceOnUse" gradientTransform="translate(4.5 172.5) rotate(90) scale(172.5 13.5)">
<stop stop-color="#0CC7BC"/>
<stop offset="1" stop-color="#0CC7BC" stop-opacity="0"/>
</radialGradient>
<radialGradient id="paint21_radial_366_3276" cx="0" cy="0" r="1" gradientUnits="userSpaceOnUse" gradientTransform="translate(4.5 172.5) rotate(90) scale(172.5 13.5)">
<stop stop-color="#0CC7BC"/>
<stop offset="1" stop-color="#0CC7BC" stop-opacity="0"/>
</radialGradient>
<radialGradient id="paint22_radial_366_3276" cx="0" cy="0" r="1" gradientUnits="userSpaceOnUse" gradientTransform="translate(4.5 172.5) rotate(90) scale(172.5 13.5)">
<stop stop-color="#0CC7BC"/>
<stop offset="1" stop-color="#0CC7BC" stop-opacity="0"/>
</radialGradient>
<radialGradient id="paint23_radial_366_3276" cx="0" cy="0" r="1" gradientUnits="userSpaceOnUse" gradientTransform="translate(4.5 172.5) rotate(90) scale(172.5 13.5)">
<stop stop-color="#0CC7BC"/>
<stop offset="1" stop-color="#0CC7BC" stop-opacity="0"/>
</radialGradient>
<radialGradient id="paint24_radial_366_3276" cx="0" cy="0" r="1" gradientUnits="userSpaceOnUse" gradientTransform="translate(4.5 172.5) rotate(90) scale(172.5 13.5)">
<stop stop-color="#0CC7BC"/>
<stop offset="1" stop-color="#0CC7BC" stop-opacity="0"/>
</radialGradient>
<radialGradient id="paint25_radial_366_3276" cx="0" cy="0" r="1" gradientUnits="userSpaceOnUse" gradientTransform="translate(4.5 172.5) rotate(90) scale(172.5 13.5)">
<stop stop-color="#0CC7BC"/>
<stop offset="1" stop-color="#0CC7BC" stop-opacity="0"/>
</radialGradient>
<radialGradient id="paint26_radial_366_3276" cx="0" cy="0" r="1" gradientUnits="userSpaceOnUse" gradientTransform="translate(4.5 172.5) rotate(90) scale(172.5 13.5)">
<stop stop-color="#0CC7BC"/>
<stop offset="1" stop-color="#0CC7BC" stop-opacity="0"/>
</radialGradient>
<radialGradient id="paint27_radial_366_3276" cx="0" cy="0" r="1" gradientUnits="userSpaceOnUse" gradientTransform="translate(4.5 172.5) rotate(90) scale(172.5 13.5)">
<stop stop-color="#0CC7BC"/>
<stop offset="1" stop-color="#0CC7BC" stop-opacity="0"/>
</radialGradient>
<radialGradient id="paint28_radial_366_3276" cx="0" cy="0" r="1" gradientUnits="userSpaceOnUse" gradientTransform="translate(4.5 172.5) rotate(90) scale(172.5 13.5)">
<stop stop-color="#0CC7BC"/>
<stop offset="1" stop-color="#0CC7BC" stop-opacity="0"/>
</radialGradient>
<radialGradient id="paint29_radial_366_3276" cx="0" cy="0" r="1" gradientUnits="userSpaceOnUse" gradientTransform="translate(4.5 172.5) rotate(90) scale(172.5 13.5)">
<stop stop-color="#0CC7BC"/>
<stop offset="1" stop-color="#0CC7BC" stop-opacity="0"/>
</radialGradient>
<radialGradient id="paint30_radial_366_3276" cx="0" cy="0" r="1" gradientUnits="userSpaceOnUse" gradientTransform="translate(4.5 172.5) rotate(90) scale(172.5 13.5)">
<stop stop-color="#0CC7BC"/>
<stop offset="1" stop-color="#0CC7BC" stop-opacity="0"/>
</radialGradient>
<radialGradient id="paint31_radial_366_3276" cx="0" cy="0" r="1" gradientUnits="userSpaceOnUse" gradientTransform="translate(4.5 172.5) rotate(90) scale(172.5 13.5)">
<stop stop-color="#0CC7BC"/>
<stop offset="1" stop-color="#0CC7BC" stop-opacity="0"/>
</radialGradient>
<radialGradient id="paint32_radial_366_3276" cx="0" cy="0" r="1" gradientUnits="userSpaceOnUse" gradientTransform="translate(4.5 172.5) rotate(90) scale(172.5 13.5)">
<stop stop-color="#0CC7BC"/>
<stop offset="1" stop-color="#0CC7BC" stop-opacity="0"/>
</radialGradient>
<radialGradient id="paint33_radial_366_3276" cx="0" cy="0" r="1" gradientUnits="userSpaceOnUse" gradientTransform="translate(4.5 172.5) rotate(90) scale(172.5 13.5)">
<stop stop-color="#0CC7BC"/>
<stop offset="1" stop-color="#0CC7BC" stop-opacity="0"/>
</radialGradient>
<radialGradient id="paint34_radial_366_3276" cx="0" cy="0" r="1" gradientUnits="userSpaceOnUse" gradientTransform="translate(4.5 172.5) rotate(90) scale(172.5 13.5)">
<stop stop-color="#0CC7BC"/>
<stop offset="1" stop-color="#0CC7BC" stop-opacity="0"/>
</radialGradient>
<radialGradient id="paint35_radial_366_3276" cx="0" cy="0" r="1" gradientUnits="userSpaceOnUse" gradientTransform="translate(4.5 172.5) rotate(90) scale(172.5 13.5)">
<stop stop-color="#0CC7BC"/>
<stop offset="1" stop-color="#0CC7BC" stop-opacity="0"/>
</radialGradient>
</defs>
</svg>
