<svg width="48" height="42" viewBox="0 0 48 42" fill="none" xmlns="http://www.w3.org/2000/svg">
<path d="M4.8103 10.034H10.2569V6.40319C10.2569 2.87246 13.1403 0 16.6846 0H36.4526C37.3962 0 38.164 0.725919 38.241 1.64412C39.7827 1.75872 41.2276 2.21454 42.5021 2.94088C45.5625 4.68505 47.6338 7.96336 47.6338 11.7201V15.461C47.6338 16.6267 46.682 17.5746 45.5121 17.5746H43.531V18.511H45.8695C47.0442 18.511 48 19.4635 48 20.6337C48 21.8039 47.0442 22.7563 45.8695 22.7563H44.5578V26.04C44.5578 26.7651 44.2154 27.4074 43.6878 27.844C44.2154 28.2807 44.5578 28.9229 44.5578 29.6479V32.5972H45.8695C47.0442 32.5972 48 33.5497 48 34.7198V35.8875C48 37.0577 47.0442 38.0102 45.8695 38.0102H43.0533C42.0945 40.3474 39.7904 42 37.1033 42H16.6846C13.1403 42 10.2569 39.1275 10.2569 35.5969V34.4446C10.0594 34.5963 9.82013 34.6871 9.56077 34.6871H5.16489C4.49632 34.6871 3.95207 34.0943 3.95207 33.3656V28.9897C1.72568 28.6973 0 26.7988 0 24.5018V14.8259C0 12.1838 2.15778 10.034 4.8103 10.034ZM16.6846 40.4551H37.1033C38.9103 40.4551 40.4875 39.4687 41.33 38.0102H12.4579C13.3004 39.4687 14.8775 40.4551 16.6846 40.4551ZM11.8076 35.5969C11.8076 35.8937 11.8386 36.1831 11.89 36.4654H45.8695C46.1893 36.4654 46.4492 36.2063 46.4492 35.8875V34.7198C46.4492 34.401 46.1893 34.142 45.8695 34.142H44.5578V34.2708H36.4172V34.142H15.5381C14.4827 34.142 13.6272 33.2897 13.6272 32.2384V23.1151C13.6272 22.0637 14.4827 21.2115 15.5381 21.2115H36.4172C36.4172 21.2043 37.444 21.2043 37.444 21.2043H44.5578C44.5578 21.2115 45.8695 21.2115 45.8695 21.2115C46.1893 21.2115 46.4492 20.9525 46.4492 20.6337C46.4492 20.3148 46.1893 20.0559 45.8695 20.0559H11.8076V35.5969ZM42.5769 28.3728C42.4264 28.4011 42.2718 28.4185 42.1129 28.4185H38.8621C38.7032 28.4185 38.5486 28.4011 38.3981 28.3728C37.8441 28.5572 37.444 29.0556 37.444 29.6479V32.5972H43.531V29.6479C43.531 29.0556 43.1309 28.5572 42.5769 28.3728ZM43.531 26.04V22.7563H37.444V26.04C37.444 26.6324 37.8441 27.1307 38.3981 27.3152C38.5486 27.2869 38.7032 27.2695 38.8621 27.2695H42.1129C42.2718 27.2695 42.4264 27.2869 42.5769 27.3152C43.1309 27.1307 43.531 26.6324 43.531 26.04ZM36.4366 29.4614C36.3407 28.8019 35.7545 28.2924 35.0382 28.2924H31.4354C30.6522 28.2924 30.0173 28.8993 30.0173 29.6479V32.5972H36.4172V29.6479C36.4172 29.5841 36.4314 29.5241 36.4366 29.4614ZM30.1034 26.04C30.1034 26.7887 30.7384 27.3956 31.5215 27.3956H35.1243C35.7486 27.3956 36.2726 27.0075 36.4621 26.4718C36.4354 26.3313 36.4172 26.1879 36.4172 26.04V22.7563H30.1034V26.04ZM22.8936 26.04C22.8936 26.7887 23.5285 27.3956 24.3117 27.3956H27.9144C28.6977 27.3956 29.3325 26.7887 29.3325 26.04V22.7563H22.8936V26.04ZM22.8075 29.6479V32.5972H29.2464V29.6479C29.2464 28.8993 28.6115 28.2924 27.8283 28.2924H24.2256C23.4424 28.2924 22.8075 28.8993 22.8075 29.6479ZM20.8397 28.2924H17.2369C16.4538 28.2924 15.8189 28.8993 15.8189 29.6479V32.5972H22.2578V29.6479C22.2578 28.8993 21.6229 28.2924 20.8397 28.2924ZM22.2578 26.04V22.7563H15.8189V26.04C15.8189 26.7887 16.4538 27.3956 17.2369 27.3956H20.8397C21.6229 27.3956 22.2578 26.7887 22.2578 26.04ZM11.8076 18.511H19.4082C16.8743 17.8436 14.9653 15.6534 14.7336 12.9792H12.8321C12.67 12.9792 12.5388 12.8485 12.5388 12.6869C12.5388 12.5254 12.67 12.3947 12.8321 12.3947H14.7077C14.7099 12.0213 14.7483 11.6569 14.813 11.3016H12.8321C12.67 11.3016 12.5388 11.1709 12.5388 11.0093C12.5388 10.8478 12.67 10.7171 12.8321 10.7171H14.9493C15.6996 8.07491 18.1326 6.13664 21.025 6.13664C24.515 6.13664 27.3442 8.95505 27.3442 12.4318C27.3442 15.3507 25.3471 17.7984 22.6419 18.511H41.9802V17.5746H38.2407C37.0708 17.5746 36.1192 16.6267 36.1192 15.461V13.6361C36.1192 13.0141 36.3955 12.4597 36.8262 12.0727H35.7012C34.1644 12.0727 32.9141 13.3182 32.9141 14.8497C32.9141 15.0112 32.7829 15.142 32.6208 15.142C32.4586 15.142 32.3274 15.0112 32.3274 14.8497C32.3274 12.9963 33.841 11.4882 35.7012 11.4882H38.775C38.8232 11.4882 38.8668 11.5025 38.9069 11.523H40.5302C41.0921 11.523 41.6003 11.7455 41.9802 12.1019C42.3914 12.4875 42.6519 13.0306 42.6519 13.6361C42.6519 14.2419 42.3914 14.785 41.9802 15.1707C41.6003 15.5271 41.0921 15.7497 40.5302 15.7497H39.1657C38.7373 15.7497 38.3903 15.4038 38.3903 14.9773C38.3903 14.5508 38.7373 14.2048 39.1657 14.2048H40.5302C40.845 14.2048 41.1011 13.9499 41.1011 13.6361C41.1011 13.3228 40.845 13.0678 40.5302 13.0678H38.2407C37.9259 13.0678 37.67 13.3228 37.67 13.6361V15.461C37.67 15.7749 37.9259 16.0298 38.2407 16.0298H45.5121C45.8268 16.0298 46.0831 15.7749 46.0831 15.461V11.7201C46.0831 9.3149 45.0797 7.14137 43.4722 5.58341C42.8608 4.9908 42.161 4.49066 41.3953 4.09875C40.4377 3.6086 39.3789 3.29022 38.256 3.18969V8.22865C38.256 9.21678 37.4471 10.0204 36.4526 10.0204H29.1476C28.1532 10.0204 27.3442 9.21678 27.3442 8.22865V4.78402H19.0382C18.8761 4.78402 18.7448 4.65331 18.7448 4.49181C18.7448 4.33024 18.8761 4.19953 19.0382 4.19953H27.3442V4.0447C27.3442 3.84694 27.3843 3.66001 27.4441 3.48203H16.5723C16.4102 3.48203 16.279 3.35131 16.279 3.18974C16.279 3.02824 16.4102 2.89753 16.5723 2.89753H27.7739C28.105 2.50682 28.5945 2.25291 29.1476 2.25291H33.6388C34.6333 2.25291 35.4423 3.05651 35.4423 4.0447V6.08283C35.4423 7.07102 34.6333 7.87461 33.6388 7.87461H31.5285C30.5341 7.87461 29.7251 7.07102 29.7251 6.08283C29.7251 5.09518 30.5341 4.29158 31.5285 4.29158H31.6926C32.1209 4.29158 32.468 4.63755 32.468 5.06398C32.468 5.49046 32.1209 5.83643 31.6926 5.83643H31.5285C31.3892 5.83643 31.2759 5.94707 31.2759 6.08283C31.2759 6.21914 31.3892 6.32977 31.5285 6.32977H33.6388C33.7782 6.32977 33.8915 6.21914 33.8915 6.08283V4.0447C33.8915 3.90839 33.7782 3.79775 33.6388 3.79775H29.1476C29.0083 3.79775 28.8949 3.90839 28.8949 4.0447V8.22865C28.8949 8.36489 29.0083 8.47554 29.1476 8.47554H36.4526C36.5919 8.47554 36.7053 8.36489 36.7053 8.22865V1.79173C36.7053 1.65549 36.5919 1.54485 36.4526 1.54485H16.6846C13.9955 1.54485 11.8076 3.72434 11.8076 6.40319V18.511ZM21.025 16.9733C23.5388 16.9733 25.5839 14.936 25.5839 12.4318C25.5839 9.92761 23.5388 7.89019 21.025 7.89019C18.5112 7.89019 16.4661 9.92749 16.4661 12.4318C16.4661 14.9361 18.5112 16.9733 21.025 16.9733ZM4.98594 27.4884V33.3656C4.98594 33.53 5.08214 33.6572 5.16489 33.6572H9.56077C9.64352 33.6572 9.73997 33.53 9.73997 33.3656V27.6343C9.73997 27.5794 9.72681 27.5317 9.70949 27.4884C9.67479 27.402 9.61588 27.3425 9.56077 27.3425H6.70351C6.64835 27.3425 6.5895 27.402 6.55479 27.4884C6.53741 27.5317 6.52432 27.5794 6.52432 27.6343V31.1579C6.52432 31.3224 6.62077 31.4496 6.70351 31.4496H8.09554C8.17835 31.4496 8.27474 31.3224 8.27474 31.1579V29.5024C8.27474 29.3381 8.17835 29.2108 8.09554 29.2108C8.01279 29.2108 7.91658 29.3381 7.91658 29.5024V29.6312C7.91658 29.9158 7.68511 30.1462 7.39968 30.1462C7.11419 30.1462 6.88277 29.9158 6.88277 29.6312V29.5024C6.88277 29.3367 6.9141 29.1796 6.96547 29.0333C7.1399 28.5363 7.579 28.1809 8.09554 28.1809C8.61226 28.1809 9.05141 28.5363 9.22591 29.0333C9.27727 29.1796 9.30859 29.3367 9.30859 29.5024V31.1579C9.30859 31.8866 8.76442 32.4795 8.09554 32.4795H6.70351C6.0347 32.4795 5.49052 31.8866 5.49052 31.1579V27.6343C5.49052 27.5842 5.50036 27.5371 5.50537 27.4884C5.51038 27.4398 5.51056 27.3896 5.52028 27.3425H5.09977C5.03694 27.3425 4.98594 27.3934 4.98594 27.4558V27.4884ZM1.55076 24.5018C1.55076 25.9463 2.5854 27.1539 3.95485 27.4291C3.96945 26.8116 4.47616 26.3127 5.09977 26.3127H9.56077C9.82175 26.3127 10.06 26.4071 10.2569 26.5609V13.9284H5.0245C4.54007 13.9284 4.14582 14.3212 4.14582 14.804V23.9547C4.14582 24.437 4.54007 24.8298 5.0245 24.8298H7.58896C8.07345 24.8298 8.46764 24.437 8.46764 23.9547V18.4076C8.46764 17.9247 8.07345 17.532 7.58896 17.532C7.10423 17.532 6.70998 17.9247 6.70998 18.4076V20.6337C6.70998 20.7953 6.57876 20.926 6.41664 20.926C6.25446 20.926 6.12325 20.7953 6.12325 20.6337V18.4076C6.12325 17.6027 6.78078 16.9475 7.58896 16.9475C8.3969 16.9475 9.05437 17.6027 9.05437 18.4076V23.9547C9.05437 24.7595 8.3969 25.4143 7.58896 25.4143H5.0245C4.21662 25.4143 3.55908 24.7595 3.55908 23.9547V14.804C3.55908 13.9992 4.21662 13.3439 5.0245 13.3439H10.2569V11.5788H4.8103C3.01292 11.5788 1.55076 13.0356 1.55076 14.8259V24.5018Z" fill="url(#paint0_radial_352_6007)"/>
<path d="M21.025 9.99805C22.3742 9.99805 23.468 11.0877 23.468 12.4318C23.468 13.776 22.3742 14.8655 21.025 14.8655C19.6758 14.8655 18.582 13.7759 18.582 12.4318C18.582 11.0877 19.6758 9.99805 21.025 9.99805Z" fill="url(#paint1_radial_352_6007)"/>
<defs>
<radialGradient id="paint0_radial_352_6007" cx="0" cy="0" r="1" gradientUnits="userSpaceOnUse" gradientTransform="translate(12.7923 25.9688) rotate(5.83588) scale(13.8301 368.35)">
<stop stop-color="#FB7819"/>
<stop offset="1" stop-color="#C70C0C"/>
</radialGradient>
<radialGradient id="paint1_radial_352_6007" cx="0" cy="0" r="1" gradientUnits="userSpaceOnUse" gradientTransform="translate(19.8841 13.0076) rotate(6.63737) scale(1.40996 42.6231)">
<stop stop-color="#FB7819"/>
<stop offset="1" stop-color="#C70C0C"/>
</radialGradient>
</defs>
</svg>
