<svg width="48" height="42" viewBox="0 0 48 42" fill="none" xmlns="http://www.w3.org/2000/svg">
<path d="M43.1897 10.034H37.7431V6.40319C37.7431 2.87246 34.8597 0 31.3154 0H11.5474C10.6038 0 9.836 0.725919 9.75898 1.64412C8.21734 1.75872 6.77239 2.21454 5.49788 2.94088C2.43753 4.68505 0.366248 7.96336 0.366248 11.7201V15.461C0.366248 16.6267 1.31802 17.5746 2.48793 17.5746H4.46903V18.511H2.13049C0.955817 18.511 0 19.4635 0 20.6337C0 21.8039 0.955817 22.7563 2.13049 22.7563H3.44223V26.04C3.44223 26.7651 3.78458 27.4074 4.31222 27.844C3.78458 28.2807 3.44223 28.9229 3.44223 29.6479V32.5972H2.13049C0.955817 32.5972 0 33.5497 0 34.7198V35.8875C0 37.0577 0.955817 38.0102 2.13049 38.0102H4.9467C5.90553 40.3474 8.20961 42 10.8967 42H31.3154C34.8597 42 37.7431 39.1275 37.7431 35.5969V34.4446C37.9406 34.5963 38.1799 34.6871 38.4392 34.6871H42.8351C43.5037 34.6871 44.0479 34.0943 44.0479 33.3656V28.9897C46.2743 28.6973 48 26.7988 48 24.5018V14.8259C48 12.1838 45.8422 10.034 43.1897 10.034ZM31.3154 40.4551H10.8967C9.08968 40.4551 7.51254 39.4687 6.67002 38.0102H35.5421C34.6996 39.4687 33.1225 40.4551 31.3154 40.4551ZM36.1924 35.5969C36.1924 35.8937 36.1614 36.1831 36.11 36.4654H2.13049C1.81072 36.4654 1.55076 36.2063 1.55076 35.8875V34.7198C1.55076 34.401 1.81072 34.142 2.13049 34.142H3.44223V34.2708H11.5828V34.142H32.4619C33.5173 34.142 34.3728 33.2897 34.3728 32.2384V23.1151C34.3728 22.0637 33.5173 21.2115 32.4619 21.2115H11.5828C11.5828 21.2043 10.556 21.2043 10.556 21.2043H3.44223C3.44223 21.2115 2.13049 21.2115 2.13049 21.2115C1.81072 21.2115 1.55076 20.9525 1.55076 20.6337C1.55076 20.3148 1.81072 20.0559 2.13049 20.0559H36.1924V35.5969ZM5.4231 28.3728C5.57363 28.4011 5.7282 28.4185 5.88712 28.4185H9.13791C9.29683 28.4185 9.4514 28.4011 9.60193 28.3728C10.1559 28.5572 10.556 29.0556 10.556 29.6479V32.5972H4.46903V29.6479C4.46903 29.0556 4.86908 28.5572 5.4231 28.3728ZM4.46903 26.04V22.7563H10.556V26.04C10.556 26.6324 10.1559 27.1307 9.60193 27.3152C9.4514 27.2869 9.29683 27.2695 9.13791 27.2695H5.88712C5.7282 27.2695 5.57363 27.2869 5.4231 27.3152C4.86908 27.1307 4.46903 26.6324 4.46903 26.04ZM11.5634 29.4614C11.6593 28.8019 12.2455 28.2924 12.9618 28.2924H16.5646C17.3478 28.2924 17.9827 28.8993 17.9827 29.6479V32.5972H11.5828V29.6479C11.5828 29.5841 11.5686 29.5241 11.5634 29.4614ZM17.8966 26.04C17.8966 26.7887 17.2616 27.3956 16.4785 27.3956H12.8757C12.2514 27.3956 11.7274 27.0075 11.5379 26.4718C11.5646 26.3313 11.5828 26.1879 11.5828 26.04V22.7563H17.8966V26.04ZM25.1064 26.04C25.1064 26.7887 24.4715 27.3956 23.6883 27.3956H20.0856C19.3023 27.3956 18.6675 26.7887 18.6675 26.04V22.7563H25.1064V26.04ZM25.1925 29.6479V32.5972H18.7536V29.6479C18.7536 28.8993 19.3885 28.2924 20.1717 28.2924H23.7744C24.5576 28.2924 25.1925 28.8993 25.1925 29.6479ZM27.1603 28.2924H30.7631C31.5462 28.2924 32.1811 28.8993 32.1811 29.6479V32.5972H25.7422V29.6479C25.7422 28.8993 26.3771 28.2924 27.1603 28.2924ZM25.7422 26.04V22.7563H32.1811V26.04C32.1811 26.7887 31.5462 27.3956 30.7631 27.3956H27.1603C26.3771 27.3956 25.7422 26.7887 25.7422 26.04ZM36.1924 18.511H28.5918C31.1257 17.8436 33.0347 15.6534 33.2664 12.9792H35.1679C35.33 12.9792 35.4612 12.8485 35.4612 12.6869C35.4612 12.5254 35.33 12.3947 35.1679 12.3947H33.2923C33.2901 12.0213 33.2517 11.6569 33.187 11.3016H35.1679C35.33 11.3016 35.4612 11.1709 35.4612 11.0093C35.4612 10.8478 35.33 10.7171 35.1679 10.7171H33.0507C32.3004 8.07491 29.8674 6.13664 26.975 6.13664C23.485 6.13664 20.6558 8.95505 20.6558 12.4318C20.6558 15.3507 22.6529 17.7984 25.3581 18.511H6.01979V17.5746H9.75934C10.9292 17.5746 11.8808 16.6267 11.8808 15.461V13.6361C11.8808 13.0141 11.6045 12.4597 11.1738 12.0727H12.2988C13.8356 12.0727 15.0859 13.3182 15.0859 14.8497C15.0859 15.0112 15.2171 15.142 15.3792 15.142C15.5414 15.142 15.6726 15.0112 15.6726 14.8497C15.6726 12.9963 14.159 11.4882 12.2988 11.4882H9.225C9.17677 11.4882 9.1332 11.5025 9.09306 11.523H7.46981C6.90795 11.523 6.39974 11.7455 6.01979 12.1019C5.60863 12.4875 5.34813 13.0306 5.34813 13.6361C5.34813 14.2419 5.60863 14.785 6.01979 15.1707C6.39974 15.5271 6.90795 15.7497 7.46981 15.7497H8.83431C9.26266 15.7497 9.60966 15.4038 9.60966 14.9773C9.60966 14.5508 9.26266 14.2048 8.83431 14.2048H7.46981C7.15505 14.2048 6.89889 13.9499 6.89889 13.6361C6.89889 13.3228 7.15505 13.0678 7.46981 13.0678H9.75934C10.0741 13.0678 10.33 13.3228 10.33 13.6361V15.461C10.33 15.7749 10.0741 16.0298 9.75934 16.0298H2.48793C2.17316 16.0298 1.91695 15.7749 1.91695 15.461V11.7201C1.91695 9.3149 2.92027 7.14137 4.52776 5.58341C5.13924 4.9908 5.83896 4.49066 6.60465 4.09875C7.56228 3.6086 8.62113 3.29022 9.74395 3.18969V8.22865C9.74395 9.21678 10.5529 10.0204 11.5474 10.0204H18.8524C19.8468 10.0204 20.6558 9.21678 20.6558 8.22865V4.78402H28.9618C29.1239 4.78402 29.2552 4.65331 29.2552 4.49181C29.2552 4.33024 29.1239 4.19953 28.9618 4.19953H20.6558V4.0447C20.6558 3.84694 20.6157 3.66001 20.5559 3.48203H31.4277C31.5898 3.48203 31.721 3.35131 31.721 3.18974C31.721 3.02824 31.5898 2.89753 31.4277 2.89753H20.2261C19.895 2.50682 19.4055 2.25291 18.8524 2.25291H14.3612C13.3667 2.25291 12.5577 3.05651 12.5577 4.0447V6.08283C12.5577 7.07102 13.3667 7.87461 14.3612 7.87461H16.4715C17.4659 7.87461 18.2749 7.07102 18.2749 6.08283C18.2749 5.09518 17.4659 4.29158 16.4715 4.29158H16.3074C15.8791 4.29158 15.532 4.63755 15.532 5.06398C15.532 5.49046 15.8791 5.83643 16.3074 5.83643H16.4715C16.6108 5.83643 16.7241 5.94707 16.7241 6.08283C16.7241 6.21914 16.6108 6.32977 16.4715 6.32977H14.3612C14.2218 6.32977 14.1085 6.21914 14.1085 6.08283V4.0447C14.1085 3.90839 14.2218 3.79775 14.3612 3.79775H18.8524C18.9917 3.79775 19.1051 3.90839 19.1051 4.0447V8.22865C19.1051 8.36489 18.9917 8.47554 18.8524 8.47554H11.5474C11.4081 8.47554 11.2947 8.36489 11.2947 8.22865V1.79173C11.2947 1.65549 11.4081 1.54485 11.5474 1.54485H31.3154C34.0045 1.54485 36.1924 3.72434 36.1924 6.40319V18.511ZM26.975 16.9733C24.4612 16.9733 22.4161 14.936 22.4161 12.4318C22.4161 9.92761 24.4612 7.89019 26.975 7.89019C29.4888 7.89019 31.5339 9.92749 31.5339 12.4318C31.5339 14.9361 29.4888 16.9733 26.975 16.9733ZM43.0141 27.4884V33.3656C43.0141 33.53 42.9179 33.6572 42.8351 33.6572H38.4392C38.3565 33.6572 38.26 33.53 38.26 33.3656V27.6343C38.26 27.5794 38.2732 27.5317 38.2905 27.4884C38.3252 27.402 38.3841 27.3425 38.4392 27.3425H41.2965C41.3517 27.3425 41.4105 27.402 41.4452 27.4884C41.4626 27.5317 41.4757 27.5794 41.4757 27.6343V31.1579C41.4757 31.3224 41.3792 31.4496 41.2965 31.4496H39.9045C39.8217 31.4496 39.7253 31.3224 39.7253 31.1579V29.5024C39.7253 29.3381 39.8217 29.2108 39.9045 29.2108C39.9872 29.2108 40.0834 29.3381 40.0834 29.5024V29.6312C40.0834 29.9158 40.3149 30.1462 40.6003 30.1462C40.8858 30.1462 41.1172 29.9158 41.1172 29.6312V29.5024C41.1172 29.3367 41.0859 29.1796 41.0345 29.0333C40.8601 28.5363 40.421 28.1809 39.9045 28.1809C39.3877 28.1809 38.9486 28.5363 38.7741 29.0333C38.7227 29.1796 38.6914 29.3367 38.6914 29.5024V31.1579C38.6914 31.8866 39.2356 32.4795 39.9045 32.4795H41.2965C41.9653 32.4795 42.5095 31.8866 42.5095 31.1579V27.6343C42.5095 27.5842 42.4996 27.5371 42.4946 27.4884C42.4896 27.4398 42.4894 27.3896 42.4797 27.3425H42.9002C42.9631 27.3425 43.0141 27.3934 43.0141 27.4558V27.4884ZM46.4492 24.5018C46.4492 25.9463 45.4146 27.1539 44.0452 27.4291C44.0305 26.8116 43.5238 26.3127 42.9002 26.3127H38.4392C38.1782 26.3127 37.94 26.4071 37.7431 26.5609V13.9284H42.9755C43.4599 13.9284 43.8542 14.3212 43.8542 14.804V23.9547C43.8542 24.437 43.4599 24.8298 42.9755 24.8298H40.411C39.9266 24.8298 39.5324 24.437 39.5324 23.9547V18.4076C39.5324 17.9247 39.9266 17.532 40.411 17.532C40.8958 17.532 41.29 17.9247 41.29 18.4076V20.6337C41.29 20.7953 41.4212 20.926 41.5834 20.926C41.7455 20.926 41.8768 20.7953 41.8768 20.6337V18.4076C41.8768 17.6027 41.2192 16.9475 40.411 16.9475C39.6031 16.9475 38.9456 17.6027 38.9456 18.4076V23.9547C38.9456 24.7595 39.6031 25.4143 40.411 25.4143H42.9755C43.7834 25.4143 44.4409 24.7595 44.4409 23.9547V14.804C44.4409 13.9992 43.7834 13.3439 42.9755 13.3439H37.7431V11.5788H43.1897C44.9871 11.5788 46.4492 13.0356 46.4492 14.8259V24.5018Z" fill="url(#paint0_radial_352_6004)"/>
<path d="M26.975 9.99805C25.6258 9.99805 24.532 11.0877 24.532 12.4318C24.532 13.776 25.6258 14.8655 26.975 14.8655C28.3242 14.8655 29.418 13.7759 29.418 12.4318C29.418 11.0877 28.3242 9.99805 26.975 9.99805Z" fill="url(#paint1_radial_352_6004)"/>
<defs>
<radialGradient id="paint0_radial_352_6004" cx="0" cy="0" r="1" gradientUnits="userSpaceOnUse" gradientTransform="translate(35.2077 25.9688) rotate(174.164) scale(13.8301 368.35)">
<stop stop-color="#FB7819"/>
<stop offset="1" stop-color="#C70C0C"/>
</radialGradient>
<radialGradient id="paint1_radial_352_6004" cx="0" cy="0" r="1" gradientUnits="userSpaceOnUse" gradientTransform="translate(28.1159 13.0076) rotate(173.363) scale(1.40996 42.6231)">
<stop stop-color="#FB7819"/>
<stop offset="1" stop-color="#C70C0C"/>
</radialGradient>
</defs>
</svg>
